<?xml version="1.0" encoding="UTF-8" standalone="no"?>
<!DOCTYPE svg PUBLIC "-//W3C//DTD SVG 1.1//EN"
 "http://www.w3.org/Graphics/SVG/1.1/DTD/svg11.dtd">
<!-- Generated by graphviz version 2.36.0 (20140111.2315)
 -->
<!-- Title: controllers_diagram Pages: 1 -->
<svg width="1124pt" height="1122pt"
 viewBox="0.00 0.00 1124.00 1122.00" xmlns="http://www.w3.org/2000/svg" xmlns:xlink="http://www.w3.org/1999/xlink">
<g id="graph0" class="graph" transform="scale(1 1) rotate(0) translate(4 1118)">
<title>controllers_diagram</title>
<polygon fill="white" stroke="none" points="-4,4 -4,-1118 1120,-1118 1120,4 -4,4"/>
<!-- _diagram_info -->
<g id="node1" class="node"><title>_diagram_info</title>
<text text-anchor="start" x="808" y="-103.6" font-family="Times,serif" font-size="13.00">Controllers diagram</text>
<text text-anchor="start" x="808" y="-89.6" font-family="Times,serif" font-size="13.00">Date: Jul 05 2015 &#45; 18:48</text>
<text text-anchor="start" x="808" y="-75.6" font-family="Times,serif" font-size="13.00">Migration version: 20150602225226</text>
<text text-anchor="start" x="808" y="-61.6" font-family="Times,serif" font-size="13.00">Generated by RailRoady 1.3.0</text>
<text text-anchor="start" x="808" y="-47.6" font-family="Times,serif" font-size="13.00">http://railroady.prestonlee.com</text>
</g>
<!-- AudiosController -->
<g id="node2" class="node"><title>AudiosController</title>
<path fill="none" stroke="black" d="M112,-900.5C112,-900.5 199,-900.5 199,-900.5 205,-900.5 211,-906.5 211,-912.5 211,-912.5 211,-1101.5 211,-1101.5 211,-1107.5 205,-1113.5 199,-1113.5 199,-1113.5 112,-1113.5 112,-1113.5 106,-1113.5 100,-1107.5 100,-1101.5 100,-1101.5 100,-912.5 100,-912.5 100,-906.5 106,-900.5 112,-900.5"/>
<text text-anchor="middle" x="155.5" y="-1098.3" font-family="Times,serif" font-size="14.00">AudiosController</text>
<polyline fill="none" stroke="black" points="100,-1090.5 211,-1090.5 "/>
<text text-anchor="start" x="108" y="-1075.3" font-family="Times,serif" font-size="14.00">create</text>
<text text-anchor="start" x="108" y="-1060.3" font-family="Times,serif" font-size="14.00">destroy</text>
<text text-anchor="start" x="108" y="-1045.3" font-family="Times,serif" font-size="14.00">edit</text>
<text text-anchor="start" x="108" y="-1030.3" font-family="Times,serif" font-size="14.00">index</text>
<text text-anchor="start" x="108" y="-1015.3" font-family="Times,serif" font-size="14.00">new</text>
<text text-anchor="start" x="108" y="-1000.3" font-family="Times,serif" font-size="14.00">show</text>
<text text-anchor="start" x="108" y="-985.3" font-family="Times,serif" font-size="14.00">update</text>
<polyline fill="none" stroke="black" points="100,-977.5 211,-977.5 "/>
<polyline fill="none" stroke="black" points="100,-953.5 211,-953.5 "/>
<text text-anchor="start" x="108" y="-938.3" font-family="Times,serif" font-size="14.00">_layout</text>
<text text-anchor="start" x="108" y="-923.3" font-family="Times,serif" font-size="14.00">audio_params</text>
<text text-anchor="start" x="108" y="-908.3" font-family="Times,serif" font-size="14.00">set_audio</text>
</g>
<!-- PropGeneralsController -->
<g id="node3" class="node"><title>PropGeneralsController</title>
<path fill="none" stroke="black" d="M232,-260.5C232,-260.5 354,-260.5 354,-260.5 360,-260.5 366,-266.5 366,-272.5 366,-272.5 366,-446.5 366,-446.5 366,-452.5 360,-458.5 354,-458.5 354,-458.5 232,-458.5 232,-458.5 226,-458.5 220,-452.5 220,-446.5 220,-446.5 220,-272.5 220,-272.5 220,-266.5 226,-260.5 232,-260.5"/>
<text text-anchor="middle" x="293" y="-443.3" font-family="Times,serif" font-size="14.00">PropGeneralsController</text>
<polyline fill="none" stroke="black" points="220,-435.5 366,-435.5 "/>
<text text-anchor="start" x="228" y="-420.3" font-family="Times,serif" font-size="14.00">create</text>
<text text-anchor="start" x="228" y="-405.3" font-family="Times,serif" font-size="14.00">destroy</text>
<text text-anchor="start" x="228" y="-390.3" font-family="Times,serif" font-size="14.00">edit</text>
<text text-anchor="start" x="228" y="-375.3" font-family="Times,serif" font-size="14.00">index</text>
<text text-anchor="start" x="228" y="-360.3" font-family="Times,serif" font-size="14.00">new</text>
<text text-anchor="start" x="228" y="-345.3" font-family="Times,serif" font-size="14.00">show</text>
<text text-anchor="start" x="228" y="-330.3" font-family="Times,serif" font-size="14.00">update</text>
<polyline fill="none" stroke="black" points="220,-322.5 366,-322.5 "/>
<polyline fill="none" stroke="black" points="220,-298.5 366,-298.5 "/>
<text text-anchor="start" x="228" y="-283.3" font-family="Times,serif" font-size="14.00">_layout</text>
<text text-anchor="start" x="228" y="-268.3" font-family="Times,serif" font-size="14.00">prop_general_params</text>
</g>
<!-- OpinionsController -->
<g id="node4" class="node"><title>OpinionsController</title>
<path fill="none" stroke="black" d="M12,-0.5C12,-0.5 110,-0.5 110,-0.5 116,-0.5 122,-6.5 122,-12.5 122,-12.5 122,-186.5 122,-186.5 122,-192.5 116,-198.5 110,-198.5 110,-198.5 12,-198.5 12,-198.5 6,-198.5 -5.68434e-14,-192.5 -5.68434e-14,-186.5 -5.68434e-14,-186.5 -5.68434e-14,-12.5 -5.68434e-14,-12.5 -5.68434e-14,-6.5 6,-0.5 12,-0.5"/>
<text text-anchor="middle" x="61" y="-183.3" font-family="Times,serif" font-size="14.00">OpinionsController</text>
<polyline fill="none" stroke="black" points="-5.68434e-14,-175.5 122,-175.5 "/>
<text text-anchor="start" x="8" y="-160.3" font-family="Times,serif" font-size="14.00">create</text>
<text text-anchor="start" x="8" y="-145.3" font-family="Times,serif" font-size="14.00">destroy</text>
<text text-anchor="start" x="8" y="-130.3" font-family="Times,serif" font-size="14.00">edit</text>
<text text-anchor="start" x="8" y="-115.3" font-family="Times,serif" font-size="14.00">index</text>
<text text-anchor="start" x="8" y="-100.3" font-family="Times,serif" font-size="14.00">new</text>
<text text-anchor="start" x="8" y="-85.3" font-family="Times,serif" font-size="14.00">show</text>
<text text-anchor="start" x="8" y="-70.3" font-family="Times,serif" font-size="14.00">update</text>
<polyline fill="none" stroke="black" points="-5.68434e-14,-62.5 122,-62.5 "/>
<polyline fill="none" stroke="black" points="-5.68434e-14,-38.5 122,-38.5 "/>
<text text-anchor="start" x="8" y="-23.3" font-family="Times,serif" font-size="14.00">_layout</text>
<text text-anchor="start" x="8" y="-8.3" font-family="Times,serif" font-size="14.00">opinion_params</text>
</g>
<!-- ItemProductosController -->
<g id="node5" class="node"><title>ItemProductosController</title>
<path fill="none" stroke="black" d="M652,-620.5C652,-620.5 780,-620.5 780,-620.5 786,-620.5 792,-626.5 792,-632.5 792,-632.5 792,-821.5 792,-821.5 792,-827.5 786,-833.5 780,-833.5 780,-833.5 652,-833.5 652,-833.5 646,-833.5 640,-827.5 640,-821.5 640,-821.5 640,-632.5 640,-632.5 640,-626.5 646,-620.5 652,-620.5"/>
<text text-anchor="middle" x="716" y="-818.3" font-family="Times,serif" font-size="14.00">ItemProductosController</text>
<polyline fill="none" stroke="black" points="640,-810.5 792,-810.5 "/>
<text text-anchor="start" x="648" y="-795.3" font-family="Times,serif" font-size="14.00">create</text>
<text text-anchor="start" x="648" y="-780.3" font-family="Times,serif" font-size="14.00">destroy</text>
<text text-anchor="start" x="648" y="-765.3" font-family="Times,serif" font-size="14.00">edit</text>
<text text-anchor="start" x="648" y="-750.3" font-family="Times,serif" font-size="14.00">index</text>
<text text-anchor="start" x="648" y="-735.3" font-family="Times,serif" font-size="14.00">new</text>
<text text-anchor="start" x="648" y="-720.3" font-family="Times,serif" font-size="14.00">show</text>
<text text-anchor="start" x="648" y="-705.3" font-family="Times,serif" font-size="14.00">update</text>
<polyline fill="none" stroke="black" points="640,-697.5 792,-697.5 "/>
<polyline fill="none" stroke="black" points="640,-673.5 792,-673.5 "/>
<text text-anchor="start" x="648" y="-658.3" font-family="Times,serif" font-size="14.00">_layout</text>
<text text-anchor="start" x="648" y="-643.3" font-family="Times,serif" font-size="14.00">item_producto_params</text>
<text text-anchor="start" x="648" y="-628.3" font-family="Times,serif" font-size="14.00">set_item_producto</text>
</g>
<!-- ConsultaClientesController -->
<g id="node6" class="node"><title>ConsultaClientesController</title>
<path fill="none" stroke="black" d="M412,-160.5C412,-160.5 552,-160.5 552,-160.5 558,-160.5 564,-166.5 564,-172.5 564,-172.5 564,-346.5 564,-346.5 564,-352.5 558,-358.5 552,-358.5 552,-358.5 412,-358.5 412,-358.5 406,-358.5 400,-352.5 400,-346.5 400,-346.5 400,-172.5 400,-172.5 400,-166.5 406,-160.5 412,-160.5"/>
<text text-anchor="middle" x="482" y="-343.3" font-family="Times,serif" font-size="14.00">ConsultaClientesController</text>
<polyline fill="none" stroke="black" points="400,-335.5 564,-335.5 "/>
<text text-anchor="start" x="408" y="-320.3" font-family="Times,serif" font-size="14.00">create</text>
<text text-anchor="start" x="408" y="-305.3" font-family="Times,serif" font-size="14.00">destroy</text>
<text text-anchor="start" x="408" y="-290.3" font-family="Times,serif" font-size="14.00">edit</text>
<text text-anchor="start" x="408" y="-275.3" font-family="Times,serif" font-size="14.00">index</text>
<text text-anchor="start" x="408" y="-260.3" font-family="Times,serif" font-size="14.00">new</text>
<text text-anchor="start" x="408" y="-245.3" font-family="Times,serif" font-size="14.00">show</text>
<text text-anchor="start" x="408" y="-230.3" font-family="Times,serif" font-size="14.00">update</text>
<polyline fill="none" stroke="black" points="400,-222.5 564,-222.5 "/>
<polyline fill="none" stroke="black" points="400,-198.5 564,-198.5 "/>
<text text-anchor="start" x="408" y="-183.3" font-family="Times,serif" font-size="14.00">_layout</text>
<text text-anchor="start" x="408" y="-168.3" font-family="Times,serif" font-size="14.00">consulta_cliente_params</text>
</g>
<!-- PropGeneralItemsController -->
<g id="node7" class="node"><title>PropGeneralItemsController</title>
<path fill="none" stroke="black" d="M452,-640.5C452,-640.5 599,-640.5 599,-640.5 605,-640.5 611,-646.5 611,-652.5 611,-652.5 611,-826.5 611,-826.5 611,-832.5 605,-838.5 599,-838.5 599,-838.5 452,-838.5 452,-838.5 446,-838.5 440,-832.5 440,-826.5 440,-826.5 440,-652.5 440,-652.5 440,-646.5 446,-640.5 452,-640.5"/>
<text text-anchor="middle" x="525.5" y="-823.3" font-family="Times,serif" font-size="14.00">PropGeneralItemsController</text>
<polyline fill="none" stroke="black" points="440,-815.5 611,-815.5 "/>
<text text-anchor="start" x="448" y="-800.3" font-family="Times,serif" font-size="14.00">create</text>
<text text-anchor="start" x="448" y="-785.3" font-family="Times,serif" font-size="14.00">destroy</text>
<text text-anchor="start" x="448" y="-770.3" font-family="Times,serif" font-size="14.00">edit</text>
<text text-anchor="start" x="448" y="-755.3" font-family="Times,serif" font-size="14.00">index</text>
<text text-anchor="start" x="448" y="-740.3" font-family="Times,serif" font-size="14.00">new</text>
<text text-anchor="start" x="448" y="-725.3" font-family="Times,serif" font-size="14.00">show</text>
<text text-anchor="start" x="448" y="-710.3" font-family="Times,serif" font-size="14.00">update</text>
<polyline fill="none" stroke="black" points="440,-702.5 611,-702.5 "/>
<polyline fill="none" stroke="black" points="440,-678.5 611,-678.5 "/>
<text text-anchor="start" x="448" y="-663.3" font-family="Times,serif" font-size="14.00">_layout</text>
<text text-anchor="start" x="448" y="-648.3" font-family="Times,serif" font-size="14.00">prop_general_item_params</text>
</g>
<!-- DetallesController -->
<g id="node8" class="node"><title>DetallesController</title>
<path fill="none" stroke="black" d="M1012,-400.5C1012,-400.5 1104,-400.5 1104,-400.5 1110,-400.5 1116,-406.5 1116,-412.5 1116,-412.5 1116,-586.5 1116,-586.5 1116,-592.5 1110,-598.5 1104,-598.5 1104,-598.5 1012,-598.5 1012,-598.5 1006,-598.5 1000,-592.5 1000,-586.5 1000,-586.5 1000,-412.5 1000,-412.5 1000,-406.5 1006,-400.5 1012,-400.5"/>
<text text-anchor="middle" x="1058" y="-583.3" font-family="Times,serif" font-size="14.00">DetallesController</text>
<polyline fill="none" stroke="black" points="1000,-575.5 1116,-575.5 "/>
<text text-anchor="start" x="1008" y="-560.3" font-family="Times,serif" font-size="14.00">create</text>
<text text-anchor="start" x="1008" y="-545.3" font-family="Times,serif" font-size="14.00">destroy</text>
<text text-anchor="start" x="1008" y="-530.3" font-family="Times,serif" font-size="14.00">edit</text>
<text text-anchor="start" x="1008" y="-515.3" font-family="Times,serif" font-size="14.00">index</text>
<text text-anchor="start" x="1008" y="-500.3" font-family="Times,serif" font-size="14.00">new</text>
<text text-anchor="start" x="1008" y="-485.3" font-family="Times,serif" font-size="14.00">show</text>
<text text-anchor="start" x="1008" y="-470.3" font-family="Times,serif" font-size="14.00">update</text>
<polyline fill="none" stroke="black" points="1000,-462.5 1116,-462.5 "/>
<polyline fill="none" stroke="black" points="1000,-438.5 1116,-438.5 "/>
<text text-anchor="start" x="1008" y="-423.3" font-family="Times,serif" font-size="14.00">_layout</text>
<text text-anchor="start" x="1008" y="-408.3" font-family="Times,serif" font-size="14.00">detalle_params</text>
</g>
<!-- GaleriaPrepMatesController -->
<g id="node9" class="node"><title>GaleriaPrepMatesController</title>
<path fill="none" stroke="black" d="M252,-760.5C252,-760.5 398,-760.5 398,-760.5 404,-760.5 410,-766.5 410,-772.5 410,-772.5 410,-946.5 410,-946.5 410,-952.5 404,-958.5 398,-958.5 398,-958.5 252,-958.5 252,-958.5 246,-958.5 240,-952.5 240,-946.5 240,-946.5 240,-772.5 240,-772.5 240,-766.5 246,-760.5 252,-760.5"/>
<text text-anchor="middle" x="325" y="-943.3" font-family="Times,serif" font-size="14.00">GaleriaPrepMatesController</text>
<polyline fill="none" stroke="black" points="240,-935.5 410,-935.5 "/>
<text text-anchor="start" x="248" y="-920.3" font-family="Times,serif" font-size="14.00">create</text>
<text text-anchor="start" x="248" y="-905.3" font-family="Times,serif" font-size="14.00">destroy</text>
<text text-anchor="start" x="248" y="-890.3" font-family="Times,serif" font-size="14.00">edit</text>
<text text-anchor="start" x="248" y="-875.3" font-family="Times,serif" font-size="14.00">index</text>
<text text-anchor="start" x="248" y="-860.3" font-family="Times,serif" font-size="14.00">new</text>
<text text-anchor="start" x="248" y="-845.3" font-family="Times,serif" font-size="14.00">show</text>
<text text-anchor="start" x="248" y="-830.3" font-family="Times,serif" font-size="14.00">update</text>
<polyline fill="none" stroke="black" points="240,-822.5 410,-822.5 "/>
<polyline fill="none" stroke="black" points="240,-798.5 410,-798.5 "/>
<text text-anchor="start" x="248" y="-783.3" font-family="Times,serif" font-size="14.00">_layout</text>
<text text-anchor="start" x="248" y="-768.3" font-family="Times,serif" font-size="14.00">galeria_prep_mate_params</text>
</g>
<!-- VideosController -->
<g id="node10" class="node"><title>VideosController</title>
<path fill="none" stroke="black" d="M92,-240.5C92,-240.5 178,-240.5 178,-240.5 184,-240.5 190,-246.5 190,-252.5 190,-252.5 190,-441.5 190,-441.5 190,-447.5 184,-453.5 178,-453.5 178,-453.5 92,-453.5 92,-453.5 86,-453.5 80,-447.5 80,-441.5 80,-441.5 80,-252.5 80,-252.5 80,-246.5 86,-240.5 92,-240.5"/>
<text text-anchor="middle" x="135" y="-438.3" font-family="Times,serif" font-size="14.00">VideosController</text>
<polyline fill="none" stroke="black" points="80,-430.5 190,-430.5 "/>
<text text-anchor="start" x="88" y="-415.3" font-family="Times,serif" font-size="14.00">create</text>
<text text-anchor="start" x="88" y="-400.3" font-family="Times,serif" font-size="14.00">destroy</text>
<text text-anchor="start" x="88" y="-385.3" font-family="Times,serif" font-size="14.00">edit</text>
<text text-anchor="start" x="88" y="-370.3" font-family="Times,serif" font-size="14.00">index</text>
<text text-anchor="start" x="88" y="-355.3" font-family="Times,serif" font-size="14.00">new</text>
<text text-anchor="start" x="88" y="-340.3" font-family="Times,serif" font-size="14.00">show</text>
<text text-anchor="start" x="88" y="-325.3" font-family="Times,serif" font-size="14.00">update</text>
<polyline fill="none" stroke="black" points="80,-317.5 190,-317.5 "/>
<polyline fill="none" stroke="black" points="80,-293.5 190,-293.5 "/>
<text text-anchor="start" x="88" y="-278.3" font-family="Times,serif" font-size="14.00">_layout</text>
<text text-anchor="start" x="88" y="-263.3" font-family="Times,serif" font-size="14.00">set_video</text>
<text text-anchor="start" x="88" y="-248.3" font-family="Times,serif" font-size="14.00">video_params</text>
</g>
<!-- UbicacionGeosController -->
<g id="node11" class="node"><title>UbicacionGeosController</title>
<path fill="none" stroke="black" d="M212,-500.5C212,-500.5 343,-500.5 343,-500.5 349,-500.5 355,-506.5 355,-512.5 355,-512.5 355,-701.5 355,-701.5 355,-707.5 349,-713.5 343,-713.5 343,-713.5 212,-713.5 212,-713.5 206,-713.5 200,-707.5 200,-701.5 200,-701.5 200,-512.5 200,-512.5 200,-506.5 206,-500.5 212,-500.5"/>
<text text-anchor="middle" x="277.5" y="-698.3" font-family="Times,serif" font-size="14.00">UbicacionGeosController</text>
<polyline fill="none" stroke="black" points="200,-690.5 355,-690.5 "/>
<text text-anchor="start" x="208" y="-675.3" font-family="Times,serif" font-size="14.00">create</text>
<text text-anchor="start" x="208" y="-660.3" font-family="Times,serif" font-size="14.00">destroy</text>
<text text-anchor="start" x="208" y="-645.3" font-family="Times,serif" font-size="14.00">edit</text>
<text text-anchor="start" x="208" y="-630.3" font-family="Times,serif" font-size="14.00">index</text>
<text text-anchor="start" x="208" y="-615.3" font-family="Times,serif" font-size="14.00">new</text>
<text text-anchor="start" x="208" y="-600.3" font-family="Times,serif" font-size="14.00">show</text>
<text text-anchor="start" x="208" y="-585.3" font-family="Times,serif" font-size="14.00">update</text>
<polyline fill="none" stroke="black" points="200,-577.5 355,-577.5 "/>
<polyline fill="none" stroke="black" points="200,-553.5 355,-553.5 "/>
<text text-anchor="start" x="208" y="-538.3" font-family="Times,serif" font-size="14.00">_layout</text>
<text text-anchor="start" x="208" y="-523.3" font-family="Times,serif" font-size="14.00">set_ubicacion_geo</text>
<text text-anchor="start" x="208" y="-508.3" font-family="Times,serif" font-size="14.00">ubicacion_geo_params</text>
</g>
<!-- InformacionEmpresasController -->
<g id="node12" class="node"><title>InformacionEmpresasController</title>
<path fill="none" stroke="black" d="M412,-400.5C412,-400.5 581,-400.5 581,-400.5 587,-400.5 593,-406.5 593,-412.5 593,-412.5 593,-586.5 593,-586.5 593,-592.5 587,-598.5 581,-598.5 581,-598.5 412,-598.5 412,-598.5 406,-598.5 400,-592.5 400,-586.5 400,-586.5 400,-412.5 400,-412.5 400,-406.5 406,-400.5 412,-400.5"/>
<text text-anchor="middle" x="496.5" y="-583.3" font-family="Times,serif" font-size="14.00">InformacionEmpresasController</text>
<polyline fill="none" stroke="black" points="400,-575.5 593,-575.5 "/>
<text text-anchor="start" x="408" y="-560.3" font-family="Times,serif" font-size="14.00">create</text>
<text text-anchor="start" x="408" y="-545.3" font-family="Times,serif" font-size="14.00">destroy</text>
<text text-anchor="start" x="408" y="-530.3" font-family="Times,serif" font-size="14.00">edit</text>
<text text-anchor="start" x="408" y="-515.3" font-family="Times,serif" font-size="14.00">index</text>
<text text-anchor="start" x="408" y="-500.3" font-family="Times,serif" font-size="14.00">new</text>
<text text-anchor="start" x="408" y="-485.3" font-family="Times,serif" font-size="14.00">show</text>
<text text-anchor="start" x="408" y="-470.3" font-family="Times,serif" font-size="14.00">update</text>
<polyline fill="none" stroke="black" points="400,-462.5 593,-462.5 "/>
<polyline fill="none" stroke="black" points="400,-438.5 593,-438.5 "/>
<text text-anchor="start" x="408" y="-423.3" font-family="Times,serif" font-size="14.00">_layout</text>
<text text-anchor="start" x="408" y="-408.3" font-family="Times,serif" font-size="14.00">informacion_empresa_params</text>
</g>
<!-- VideosProductosController -->
<g id="node13" class="node"><title>VideosProductosController</title>
<path fill="none" stroke="black" d="M852,-160.5C852,-160.5 992,-160.5 992,-160.5 998,-160.5 1004,-166.5 1004,-172.5 1004,-172.5 1004,-346.5 1004,-346.5 1004,-352.5 998,-358.5 992,-358.5 992,-358.5 852,-358.5 852,-358.5 846,-358.5 840,-352.5 840,-346.5 840,-346.5 840,-172.5 840,-172.5 840,-166.5 846,-160.5 852,-160.5"/>
<text text-anchor="middle" x="922" y="-343.3" font-family="Times,serif" font-size="14.00">VideosProductosController</text>
<polyline fill="none" stroke="black" points="840,-335.5 1004,-335.5 "/>
<text text-anchor="start" x="848" y="-320.3" font-family="Times,serif" font-size="14.00">create</text>
<text text-anchor="start" x="848" y="-305.3" font-family="Times,serif" font-size="14.00">destroy</text>
<text text-anchor="start" x="848" y="-290.3" font-family="Times,serif" font-size="14.00">edit</text>
<text text-anchor="start" x="848" y="-275.3" font-family="Times,serif" font-size="14.00">index</text>
<text text-anchor="start" x="848" y="-260.3" font-family="Times,serif" font-size="14.00">new</text>
<text text-anchor="start" x="848" y="-245.3" font-family="Times,serif" font-size="14.00">show</text>
<text text-anchor="start" x="848" y="-230.3" font-family="Times,serif" font-size="14.00">update</text>
<polyline fill="none" stroke="black" points="840,-222.5 1004,-222.5 "/>
<polyline fill="none" stroke="black" points="840,-198.5 1004,-198.5 "/>
<text text-anchor="start" x="848" y="-183.3" font-family="Times,serif" font-size="14.00">_layout</text>
<text text-anchor="start" x="848" y="-168.3" font-family="Times,serif" font-size="14.00">videos_productosparams</text>
</g>
<!-- GaleriaPropsController -->
<g id="node14" class="node"><title>GaleriaPropsController</title>
<path fill="none" stroke="black" d="M32,-500.5C32,-500.5 151,-500.5 151,-500.5 157,-500.5 163,-506.5 163,-512.5 163,-512.5 163,-686.5 163,-686.5 163,-692.5 157,-698.5 151,-698.5 151,-698.5 32,-698.5 32,-698.5 26,-698.5 20,-692.5 20,-686.5 20,-686.5 20,-512.5 20,-512.5 20,-506.5 26,-500.5 32,-500.5"/>
<text text-anchor="middle" x="91.5" y="-683.3" font-family="Times,serif" font-size="14.00">GaleriaPropsController</text>
<polyline fill="none" stroke="black" points="20,-675.5 163,-675.5 "/>
<text text-anchor="start" x="28" y="-660.3" font-family="Times,serif" font-size="14.00">create</text>
<text text-anchor="start" x="28" y="-645.3" font-family="Times,serif" font-size="14.00">destroy</text>
<text text-anchor="start" x="28" y="-630.3" font-family="Times,serif" font-size="14.00">edit</text>
<text text-anchor="start" x="28" y="-615.3" font-family="Times,serif" font-size="14.00">index</text>
<text text-anchor="start" x="28" y="-600.3" font-family="Times,serif" font-size="14.00">new</text>
<text text-anchor="start" x="28" y="-585.3" font-family="Times,serif" font-size="14.00">show</text>
<text text-anchor="start" x="28" y="-570.3" font-family="Times,serif" font-size="14.00">update</text>
<polyline fill="none" stroke="black" points="20,-562.5 163,-562.5 "/>
<polyline fill="none" stroke="black" points="20,-538.5 163,-538.5 "/>
<text text-anchor="start" x="28" y="-523.3" font-family="Times,serif" font-size="14.00">_layout</text>
<text text-anchor="start" x="28" y="-508.3" font-family="Times,serif" font-size="14.00">galeria_prop_params</text>
</g>
<!-- ProductosController -->
<g id="node15" class="node"><title>ProductosController</title>
<path fill="none" stroke="black" d="M852,-400.5C852,-400.5 954,-400.5 954,-400.5 960,-400.5 966,-406.5 966,-412.5 966,-412.5 966,-601.5 966,-601.5 966,-607.5 960,-613.5 954,-613.5 954,-613.5 852,-613.5 852,-613.5 846,-613.5 840,-607.5 840,-601.5 840,-601.5 840,-412.5 840,-412.5 840,-406.5 846,-400.5 852,-400.5"/>
<text text-anchor="middle" x="903" y="-598.3" font-family="Times,serif" font-size="14.00">ProductosController</text>
<polyline fill="none" stroke="black" points="840,-590.5 966,-590.5 "/>
<text text-anchor="start" x="848" y="-575.3" font-family="Times,serif" font-size="14.00">create</text>
<text text-anchor="start" x="848" y="-560.3" font-family="Times,serif" font-size="14.00">destroy</text>
<text text-anchor="start" x="848" y="-545.3" font-family="Times,serif" font-size="14.00">edit</text>
<text text-anchor="start" x="848" y="-530.3" font-family="Times,serif" font-size="14.00">index</text>
<text text-anchor="start" x="848" y="-515.3" font-family="Times,serif" font-size="14.00">new</text>
<text text-anchor="start" x="848" y="-500.3" font-family="Times,serif" font-size="14.00">show</text>
<text text-anchor="start" x="848" y="-485.3" font-family="Times,serif" font-size="14.00">update</text>
<polyline fill="none" stroke="black" points="840,-477.5 966,-477.5 "/>
<polyline fill="none" stroke="black" points="840,-453.5 966,-453.5 "/>
<text text-anchor="start" x="848" y="-438.3" font-family="Times,serif" font-size="14.00">_layout</text>
<text text-anchor="start" x="848" y="-423.3" font-family="Times,serif" font-size="14.00">producto_params</text>
<text text-anchor="start" x="848" y="-408.3" font-family="Times,serif" font-size="14.00">set_producto</text>
</g>
<!-- ApplicationController -->
<g id="node16" class="node"><title>ApplicationController</title>
<path fill="none" stroke="black" d="M72,-760.5C72,-760.5 184,-760.5 184,-760.5 190,-760.5 196,-766.5 196,-772.5 196,-772.5 196,-842.5 196,-842.5 196,-848.5 190,-854.5 184,-854.5 184,-854.5 72,-854.5 72,-854.5 66,-854.5 60,-848.5 60,-842.5 60,-842.5 60,-772.5 60,-772.5 60,-766.5 66,-760.5 72,-760.5"/>
<text text-anchor="middle" x="128" y="-839.3" font-family="Times,serif" font-size="14.00">ApplicationController</text>
<polyline fill="none" stroke="black" points="60,-831.5 196,-831.5 "/>
<polyline fill="none" stroke="black" points="60,-807.5 196,-807.5 "/>
<polyline fill="none" stroke="black" points="60,-783.5 196,-783.5 "/>
<text text-anchor="start" x="68" y="-768.3" font-family="Times,serif" font-size="14.00">_layout</text>
</g>
<!-- PropEspecificasController -->
<g id="node17" class="node"><title>PropEspecificasController</title>
<path fill="none" stroke="black" d="M852,-660.5C852,-660.5 987,-660.5 987,-660.5 993,-660.5 999,-666.5 999,-672.5 999,-672.5 999,-846.5 999,-846.5 999,-852.5 993,-858.5 987,-858.5 987,-858.5 852,-858.5 852,-858.5 846,-858.5 840,-852.5 840,-846.5 840,-846.5 840,-672.5 840,-672.5 840,-666.5 846,-660.5 852,-660.5"/>
<text text-anchor="middle" x="919.5" y="-843.3" font-family="Times,serif" font-size="14.00">PropEspecificasController</text>
<polyline fill="none" stroke="black" points="840,-835.5 999,-835.5 "/>
<text text-anchor="start" x="848" y="-820.3" font-family="Times,serif" font-size="14.00">create</text>
<text text-anchor="start" x="848" y="-805.3" font-family="Times,serif" font-size="14.00">destroy</text>
<text text-anchor="start" x="848" y="-790.3" font-family="Times,serif" font-size="14.00">edit</text>
<text text-anchor="start" x="848" y="-775.3" font-family="Times,serif" font-size="14.00">index</text>
<text text-anchor="start" x="848" y="-760.3" font-family="Times,serif" font-size="14.00">new</text>
<text text-anchor="start" x="848" y="-745.3" font-family="Times,serif" font-size="14.00">show</text>
<text text-anchor="start" x="848" y="-730.3" font-family="Times,serif" font-size="14.00">update</text>
<polyline fill="none" stroke="black" points="840,-722.5 999,-722.5 "/>
<polyline fill="none" stroke="black" points="840,-698.5 999,-698.5 "/>
<text text-anchor="start" x="848" y="-683.3" font-family="Times,serif" font-size="14.00">_layout</text>
<text text-anchor="start" x="848" y="-668.3" font-family="Times,serif" font-size="14.00">prop_especifica_params</text>
</g>
<!-- GaleriaImagenesController -->
<g id="node18" class="node"><title>GaleriaImagenesController</title>
<path fill="none" stroke="black" d="M612,-120.5C612,-120.5 752,-120.5 752,-120.5 758,-120.5 764,-126.5 764,-132.5 764,-132.5 764,-306.5 764,-306.5 764,-312.5 758,-318.5 752,-318.5 752,-318.5 612,-318.5 612,-318.5 606,-318.5 600,-312.5 600,-306.5 600,-306.5 600,-132.5 600,-132.5 600,-126.5 606,-120.5 612,-120.5"/>
<text text-anchor="middle" x="682" y="-303.3" font-family="Times,serif" font-size="14.00">GaleriaImagenesController</text>
<polyline fill="none" stroke="black" points="600,-295.5 764,-295.5 "/>
<text text-anchor="start" x="608" y="-280.3" font-family="Times,serif" font-size="14.00">create</text>
<text text-anchor="start" x="608" y="-265.3" font-family="Times,serif" font-size="14.00">destroy</text>
<text text-anchor="start" x="608" y="-250.3" font-family="Times,serif" font-size="14.00">edit</text>
<text text-anchor="start" x="608" y="-235.3" font-family="Times,serif" font-size="14.00">index</text>
<text text-anchor="start" x="608" y="-220.3" font-family="Times,serif" font-size="14.00">new</text>
<text text-anchor="start" x="608" y="-205.3" font-family="Times,serif" font-size="14.00">show</text>
<text text-anchor="start" x="608" y="-190.3" font-family="Times,serif" font-size="14.00">update</text>
<polyline fill="none" stroke="black" points="600,-182.5 764,-182.5 "/>
<polyline fill="none" stroke="black" points="600,-158.5 764,-158.5 "/>
<text text-anchor="start" x="608" y="-143.3" font-family="Times,serif" font-size="14.00">_layout</text>
<text text-anchor="start" x="608" y="-128.3" font-family="Times,serif" font-size="14.00">galeria_imagene_params</text>
</g>
<!-- EmpresasController -->
<g id="node19" class="node"><title>EmpresasController</title>
<path fill="none" stroke="black" d="M692,-880.5C692,-880.5 793,-880.5 793,-880.5 799,-880.5 805,-886.5 805,-892.5 805,-892.5 805,-1081.5 805,-1081.5 805,-1087.5 799,-1093.5 793,-1093.5 793,-1093.5 692,-1093.5 692,-1093.5 686,-1093.5 680,-1087.5 680,-1081.5 680,-1081.5 680,-892.5 680,-892.5 680,-886.5 686,-880.5 692,-880.5"/>
<text text-anchor="middle" x="742.5" y="-1078.3" font-family="Times,serif" font-size="14.00">EmpresasController</text>
<polyline fill="none" stroke="black" points="680,-1070.5 805,-1070.5 "/>
<text text-anchor="start" x="688" y="-1055.3" font-family="Times,serif" font-size="14.00">create</text>
<text text-anchor="start" x="688" y="-1040.3" font-family="Times,serif" font-size="14.00">destroy</text>
<text text-anchor="start" x="688" y="-1025.3" font-family="Times,serif" font-size="14.00">edit</text>
<text text-anchor="start" x="688" y="-1010.3" font-family="Times,serif" font-size="14.00">index</text>
<text text-anchor="start" x="688" y="-995.3" font-family="Times,serif" font-size="14.00">new</text>
<text text-anchor="start" x="688" y="-980.3" font-family="Times,serif" font-size="14.00">show</text>
<text text-anchor="start" x="688" y="-965.3" font-family="Times,serif" font-size="14.00">update</text>
<polyline fill="none" stroke="black" points="680,-957.5 805,-957.5 "/>
<polyline fill="none" stroke="black" points="680,-933.5 805,-933.5 "/>
<text text-anchor="start" x="688" y="-918.3" font-family="Times,serif" font-size="14.00">_layout</text>
<text text-anchor="start" x="688" y="-903.3" font-family="Times,serif" font-size="14.00">empresa_params</text>
<text text-anchor="start" x="688" y="-888.3" font-family="Times,serif" font-size="14.00">set_empresa</text>
</g>
<!-- ItemDeInfosController -->
<g id="node20" class="node"><title>ItemDeInfosController</title>
<path fill="none" stroke="black" d="M232,-20.5C232,-20.5 349,-20.5 349,-20.5 355,-20.5 361,-26.5 361,-32.5 361,-32.5 361,-206.5 361,-206.5 361,-212.5 355,-218.5 349,-218.5 349,-218.5 232,-218.5 232,-218.5 226,-218.5 220,-212.5 220,-206.5 220,-206.5 220,-32.5 220,-32.5 220,-26.5 226,-20.5 232,-20.5"/>
<text text-anchor="middle" x="290.5" y="-203.3" font-family="Times,serif" font-size="14.00">ItemDeInfosController</text>
<polyline fill="none" stroke="black" points="220,-195.5 361,-195.5 "/>
<text text-anchor="start" x="228" y="-180.3" font-family="Times,serif" font-size="14.00">create</text>
<text text-anchor="start" x="228" y="-165.3" font-family="Times,serif" font-size="14.00">destroy</text>
<text text-anchor="start" x="228" y="-150.3" font-family="Times,serif" font-size="14.00">edit</text>
<text text-anchor="start" x="228" y="-135.3" font-family="Times,serif" font-size="14.00">index</text>
<text text-anchor="start" x="228" y="-120.3" font-family="Times,serif" font-size="14.00">new</text>
<text text-anchor="start" x="228" y="-105.3" font-family="Times,serif" font-size="14.00">show</text>
<text text-anchor="start" x="228" y="-90.3" font-family="Times,serif" font-size="14.00">update</text>
<polyline fill="none" stroke="black" points="220,-82.5 361,-82.5 "/>
<polyline fill="none" stroke="black" points="220,-58.5 361,-58.5 "/>
<text text-anchor="start" x="228" y="-43.3" font-family="Times,serif" font-size="14.00">_layout</text>
<text text-anchor="start" x="228" y="-28.3" font-family="Times,serif" font-size="14.00">item_de_info_params</text>
</g>
<!-- NoticiaEmpresasController -->
<g id="node21" class="node"><title>NoticiaEmpresasController</title>
<path fill="none" stroke="black" d="M652,-360.5C652,-360.5 793,-360.5 793,-360.5 799,-360.5 805,-366.5 805,-372.5 805,-372.5 805,-561.5 805,-561.5 805,-567.5 799,-573.5 793,-573.5 793,-573.5 652,-573.5 652,-573.5 646,-573.5 640,-567.5 640,-561.5 640,-561.5 640,-372.5 640,-372.5 640,-366.5 646,-360.5 652,-360.5"/>
<text text-anchor="middle" x="722.5" y="-558.3" font-family="Times,serif" font-size="14.00">NoticiaEmpresasController</text>
<polyline fill="none" stroke="black" points="640,-550.5 805,-550.5 "/>
<text text-anchor="start" x="648" y="-535.3" font-family="Times,serif" font-size="14.00">create</text>
<text text-anchor="start" x="648" y="-520.3" font-family="Times,serif" font-size="14.00">destroy</text>
<text text-anchor="start" x="648" y="-505.3" font-family="Times,serif" font-size="14.00">edit</text>
<text text-anchor="start" x="648" y="-490.3" font-family="Times,serif" font-size="14.00">index</text>
<text text-anchor="start" x="648" y="-475.3" font-family="Times,serif" font-size="14.00">new</text>
<text text-anchor="start" x="648" y="-460.3" font-family="Times,serif" font-size="14.00">show</text>
<text text-anchor="start" x="648" y="-445.3" font-family="Times,serif" font-size="14.00">update</text>
<polyline fill="none" stroke="black" points="640,-437.5 805,-437.5 "/>
<polyline fill="none" stroke="black" points="640,-413.5 805,-413.5 "/>
<text text-anchor="start" x="648" y="-398.3" font-family="Times,serif" font-size="14.00">_layout</text>
<text text-anchor="start" x="648" y="-383.3" font-family="Times,serif" font-size="14.00">noticia_empresa_params</text>
<text text-anchor="start" x="648" y="-368.3" font-family="Times,serif" font-size="14.00">set_noticia_empresa</text>
</g>
<!-- PrepararMatesController -->
<g id="node22" class="node"><title>PrepararMatesController</title>
<path fill="none" stroke="black" d="M492,-880.5C492,-880.5 620,-880.5 620,-880.5 626,-880.5 632,-886.5 632,-892.5 632,-892.5 632,-1066.5 632,-1066.5 632,-1072.5 626,-1078.5 620,-1078.5 620,-1078.5 492,-1078.5 492,-1078.5 486,-1078.5 480,-1072.5 480,-1066.5 480,-1066.5 480,-892.5 480,-892.5 480,-886.5 486,-880.5 492,-880.5"/>
<text text-anchor="middle" x="556" y="-1063.3" font-family="Times,serif" font-size="14.00">PrepararMatesController</text>
<polyline fill="none" stroke="black" points="480,-1055.5 632,-1055.5 "/>
<text text-anchor="start" x="488" y="-1040.3" font-family="Times,serif" font-size="14.00">create</text>
<text text-anchor="start" x="488" y="-1025.3" font-family="Times,serif" font-size="14.00">destroy</text>
<text text-anchor="start" x="488" y="-1010.3" font-family="Times,serif" font-size="14.00">edit</text>
<text text-anchor="start" x="488" y="-995.3" font-family="Times,serif" font-size="14.00">index</text>
<text text-anchor="start" x="488" y="-980.3" font-family="Times,serif" font-size="14.00">new</text>
<text text-anchor="start" x="488" y="-965.3" font-family="Times,serif" font-size="14.00">show</text>
<text text-anchor="start" x="488" y="-950.3" font-family="Times,serif" font-size="14.00">update</text>
<polyline fill="none" stroke="black" points="480,-942.5 632,-942.5 "/>
<polyline fill="none" stroke="black" points="480,-918.5 632,-918.5 "/>
<text text-anchor="start" x="488" y="-903.3" font-family="Times,serif" font-size="14.00">_layout</text>
<text text-anchor="start" x="488" y="-888.3" font-family="Times,serif" font-size="14.00">preparar_mate_params</text>
</g>
<!-- GaleriaProcesosController -->
<g id="node23" class="node"><title>GaleriaProcesosController</title>
<path fill="none" stroke="black" d="M912,-900.5C912,-900.5 1048,-900.5 1048,-900.5 1054,-900.5 1060,-906.5 1060,-912.5 1060,-912.5 1060,-1086.5 1060,-1086.5 1060,-1092.5 1054,-1098.5 1048,-1098.5 1048,-1098.5 912,-1098.5 912,-1098.5 906,-1098.5 900,-1092.5 900,-1086.5 900,-1086.5 900,-912.5 900,-912.5 900,-906.5 906,-900.5 912,-900.5"/>
<text text-anchor="middle" x="980" y="-1083.3" font-family="Times,serif" font-size="14.00">GaleriaProcesosController</text>
<polyline fill="none" stroke="black" points="900,-1075.5 1060,-1075.5 "/>
<text text-anchor="start" x="908" y="-1060.3" font-family="Times,serif" font-size="14.00">create</text>
<text text-anchor="start" x="908" y="-1045.3" font-family="Times,serif" font-size="14.00">destroy</text>
<text text-anchor="start" x="908" y="-1030.3" font-family="Times,serif" font-size="14.00">edit</text>
<text text-anchor="start" x="908" y="-1015.3" font-family="Times,serif" font-size="14.00">index</text>
<text text-anchor="start" x="908" y="-1000.3" font-family="Times,serif" font-size="14.00">new</text>
<text text-anchor="start" x="908" y="-985.3" font-family="Times,serif" font-size="14.00">show</text>
<text text-anchor="start" x="908" y="-970.3" font-family="Times,serif" font-size="14.00">update</text>
<polyline fill="none" stroke="black" points="900,-962.5 1060,-962.5 "/>
<polyline fill="none" stroke="black" points="900,-938.5 1060,-938.5 "/>
<text text-anchor="start" x="908" y="-923.3" font-family="Times,serif" font-size="14.00">_layout</text>
<text text-anchor="start" x="908" y="-908.3" font-family="Times,serif" font-size="14.00">galeria_proceso_params</text>
</g>
</g>
</svg>
