<?xml version="1.0" encoding="UTF-8" standalone="no"?>
<!DOCTYPE svg PUBLIC "-//W3C//DTD SVG 1.1//EN"
 "http://www.w3.org/Graphics/SVG/1.1/DTD/svg11.dtd">
<!-- Generated by graphviz version 2.36.0 (20140111.2315)
 -->
<!-- Title: controllers_diagram Pages: 1 -->
<svg width="1002pt" height="908pt"
 viewBox="0.00 0.00 1002.00 907.98" xmlns="http://www.w3.org/2000/svg" xmlns:xlink="http://www.w3.org/1999/xlink">
<g id="graph0" class="graph" transform="scale(1 1) rotate(0) translate(4 903.98)">
<title>controllers_diagram</title>
<polygon fill="white" stroke="none" points="-4,4 -4,-903.98 998,-903.98 998,4 -4,4"/>
<!-- _diagram_info -->
<g id="node1" class="node"><title>_diagram_info</title>
<text text-anchor="start" x="788" y="-128.6" font-family="Times,serif" font-size="13.00">Controllers diagram</text>
<text text-anchor="start" x="788" y="-114.6" font-family="Times,serif" font-size="13.00">Date: Mar 29 2015 &#45; 16:42</text>
<text text-anchor="start" x="788" y="-100.6" font-family="Times,serif" font-size="13.00">Migration version: 20150326224716</text>
<text text-anchor="start" x="788" y="-86.6" font-family="Times,serif" font-size="13.00">Generated by RailRoady 1.3.0</text>
<text text-anchor="start" x="788" y="-72.6" font-family="Times,serif" font-size="13.00">http://railroady.prestonlee.com</text>
</g>
<!-- AudiosController -->
<g id="node2" class="node"><title>AudiosController</title>
<path fill="none" stroke="black" d="M71.2474,-450.878C71.2474,-450.878 158.247,-450.878 158.247,-450.878 164.247,-450.878 170.247,-456.878 170.247,-462.878 170.247,-462.878 170.247,-651.878 170.247,-651.878 170.247,-657.878 164.247,-663.878 158.247,-663.878 158.247,-663.878 71.2474,-663.878 71.2474,-663.878 65.2474,-663.878 59.2474,-657.878 59.2474,-651.878 59.2474,-651.878 59.2474,-462.878 59.2474,-462.878 59.2474,-456.878 65.2474,-450.878 71.2474,-450.878"/>
<text text-anchor="middle" x="114.747" y="-648.678" font-family="Times,serif" font-size="14.00">AudiosController</text>
<polyline fill="none" stroke="black" points="59.2474,-640.878 170.247,-640.878 "/>
<text text-anchor="start" x="67.2474" y="-625.678" font-family="Times,serif" font-size="14.00">create</text>
<text text-anchor="start" x="67.2474" y="-610.678" font-family="Times,serif" font-size="14.00">destroy</text>
<text text-anchor="start" x="67.2474" y="-595.678" font-family="Times,serif" font-size="14.00">edit</text>
<text text-anchor="start" x="67.2474" y="-580.678" font-family="Times,serif" font-size="14.00">index</text>
<text text-anchor="start" x="67.2474" y="-565.678" font-family="Times,serif" font-size="14.00">new</text>
<text text-anchor="start" x="67.2474" y="-550.678" font-family="Times,serif" font-size="14.00">show</text>
<text text-anchor="start" x="67.2474" y="-535.678" font-family="Times,serif" font-size="14.00">update</text>
<polyline fill="none" stroke="black" points="59.2474,-527.878 170.247,-527.878 "/>
<polyline fill="none" stroke="black" points="59.2474,-503.878 170.247,-503.878 "/>
<text text-anchor="start" x="67.2474" y="-488.678" font-family="Times,serif" font-size="14.00">_layout</text>
<text text-anchor="start" x="67.2474" y="-473.678" font-family="Times,serif" font-size="14.00">audio_params</text>
<text text-anchor="start" x="67.2474" y="-458.678" font-family="Times,serif" font-size="14.00">set_audio</text>
</g>
<!-- ItemProductosController -->
<g id="node3" class="node"><title>ItemProductosController</title>
<path fill="none" stroke="black" d="M564.587,-447.57C564.587,-447.57 692.587,-447.57 692.587,-447.57 698.587,-447.57 704.587,-453.57 704.587,-459.57 704.587,-459.57 704.587,-648.57 704.587,-648.57 704.587,-654.57 698.587,-660.57 692.587,-660.57 692.587,-660.57 564.587,-660.57 564.587,-660.57 558.587,-660.57 552.587,-654.57 552.587,-648.57 552.587,-648.57 552.587,-459.57 552.587,-459.57 552.587,-453.57 558.587,-447.57 564.587,-447.57"/>
<text text-anchor="middle" x="628.587" y="-645.37" font-family="Times,serif" font-size="14.00">ItemProductosController</text>
<polyline fill="none" stroke="black" points="552.587,-637.57 704.587,-637.57 "/>
<text text-anchor="start" x="560.587" y="-622.37" font-family="Times,serif" font-size="14.00">create</text>
<text text-anchor="start" x="560.587" y="-607.37" font-family="Times,serif" font-size="14.00">destroy</text>
<text text-anchor="start" x="560.587" y="-592.37" font-family="Times,serif" font-size="14.00">edit</text>
<text text-anchor="start" x="560.587" y="-577.37" font-family="Times,serif" font-size="14.00">index</text>
<text text-anchor="start" x="560.587" y="-562.37" font-family="Times,serif" font-size="14.00">new</text>
<text text-anchor="start" x="560.587" y="-547.37" font-family="Times,serif" font-size="14.00">show</text>
<text text-anchor="start" x="560.587" y="-532.37" font-family="Times,serif" font-size="14.00">update</text>
<polyline fill="none" stroke="black" points="552.587,-524.57 704.587,-524.57 "/>
<polyline fill="none" stroke="black" points="552.587,-500.57 704.587,-500.57 "/>
<text text-anchor="start" x="560.587" y="-485.37" font-family="Times,serif" font-size="14.00">_layout</text>
<text text-anchor="start" x="560.587" y="-470.37" font-family="Times,serif" font-size="14.00">item_producto_params</text>
<text text-anchor="start" x="560.587" y="-455.37" font-family="Times,serif" font-size="14.00">set_item_producto</text>
</g>
<!-- VideosController -->
<g id="node4" class="node"><title>VideosController</title>
<path fill="none" stroke="black" d="M324.351,-43.9424C324.351,-43.9424 410.351,-43.9424 410.351,-43.9424 416.351,-43.9424 422.351,-49.9424 422.351,-55.9424 422.351,-55.9424 422.351,-244.942 422.351,-244.942 422.351,-250.942 416.351,-256.942 410.351,-256.942 410.351,-256.942 324.351,-256.942 324.351,-256.942 318.351,-256.942 312.351,-250.942 312.351,-244.942 312.351,-244.942 312.351,-55.9424 312.351,-55.9424 312.351,-49.9424 318.351,-43.9424 324.351,-43.9424"/>
<text text-anchor="middle" x="367.351" y="-241.742" font-family="Times,serif" font-size="14.00">VideosController</text>
<polyline fill="none" stroke="black" points="312.351,-233.942 422.351,-233.942 "/>
<text text-anchor="start" x="320.351" y="-218.742" font-family="Times,serif" font-size="14.00">create</text>
<text text-anchor="start" x="320.351" y="-203.742" font-family="Times,serif" font-size="14.00">destroy</text>
<text text-anchor="start" x="320.351" y="-188.742" font-family="Times,serif" font-size="14.00">edit</text>
<text text-anchor="start" x="320.351" y="-173.742" font-family="Times,serif" font-size="14.00">index</text>
<text text-anchor="start" x="320.351" y="-158.742" font-family="Times,serif" font-size="14.00">new</text>
<text text-anchor="start" x="320.351" y="-143.742" font-family="Times,serif" font-size="14.00">show</text>
<text text-anchor="start" x="320.351" y="-128.742" font-family="Times,serif" font-size="14.00">update</text>
<polyline fill="none" stroke="black" points="312.351,-120.942 422.351,-120.942 "/>
<polyline fill="none" stroke="black" points="312.351,-96.9424 422.351,-96.9424 "/>
<text text-anchor="start" x="320.351" y="-81.7424" font-family="Times,serif" font-size="14.00">_layout</text>
<text text-anchor="start" x="320.351" y="-66.7424" font-family="Times,serif" font-size="14.00">set_video</text>
<text text-anchor="start" x="320.351" y="-51.7424" font-family="Times,serif" font-size="14.00">video_params</text>
</g>
<!-- UbicacionGeosController -->
<g id="node5" class="node"><title>UbicacionGeosController</title>
<path fill="none" stroke="black" d="M217.084,-669.31C217.084,-669.31 348.084,-669.31 348.084,-669.31 354.084,-669.31 360.084,-675.31 360.084,-681.31 360.084,-681.31 360.084,-870.31 360.084,-870.31 360.084,-876.31 354.084,-882.31 348.084,-882.31 348.084,-882.31 217.084,-882.31 217.084,-882.31 211.084,-882.31 205.084,-876.31 205.084,-870.31 205.084,-870.31 205.084,-681.31 205.084,-681.31 205.084,-675.31 211.084,-669.31 217.084,-669.31"/>
<text text-anchor="middle" x="282.584" y="-867.11" font-family="Times,serif" font-size="14.00">UbicacionGeosController</text>
<polyline fill="none" stroke="black" points="205.084,-859.31 360.084,-859.31 "/>
<text text-anchor="start" x="213.084" y="-844.11" font-family="Times,serif" font-size="14.00">create</text>
<text text-anchor="start" x="213.084" y="-829.11" font-family="Times,serif" font-size="14.00">destroy</text>
<text text-anchor="start" x="213.084" y="-814.11" font-family="Times,serif" font-size="14.00">edit</text>
<text text-anchor="start" x="213.084" y="-799.11" font-family="Times,serif" font-size="14.00">index</text>
<text text-anchor="start" x="213.084" y="-784.11" font-family="Times,serif" font-size="14.00">new</text>
<text text-anchor="start" x="213.084" y="-769.11" font-family="Times,serif" font-size="14.00">show</text>
<text text-anchor="start" x="213.084" y="-754.11" font-family="Times,serif" font-size="14.00">update</text>
<polyline fill="none" stroke="black" points="205.084,-746.31 360.084,-746.31 "/>
<polyline fill="none" stroke="black" points="205.084,-722.31 360.084,-722.31 "/>
<text text-anchor="start" x="213.084" y="-707.11" font-family="Times,serif" font-size="14.00">_layout</text>
<text text-anchor="start" x="213.084" y="-692.11" font-family="Times,serif" font-size="14.00">set_ubicacion_geo</text>
<text text-anchor="start" x="213.084" y="-677.11" font-family="Times,serif" font-size="14.00">ubicacion_geo_params</text>
</g>
<!-- InformacionEmpresasController -->
<g id="node6" class="node"><title>InformacionEmpresasController</title>
<path fill="none" stroke="black" d="M561.986,-700.226C561.986,-700.226 730.986,-700.226 730.986,-700.226 736.986,-700.226 742.986,-706.226 742.986,-712.226 742.986,-712.226 742.986,-886.226 742.986,-886.226 742.986,-892.226 736.986,-898.226 730.986,-898.226 730.986,-898.226 561.986,-898.226 561.986,-898.226 555.986,-898.226 549.986,-892.226 549.986,-886.226 549.986,-886.226 549.986,-712.226 549.986,-712.226 549.986,-706.226 555.986,-700.226 561.986,-700.226"/>
<text text-anchor="middle" x="646.486" y="-883.026" font-family="Times,serif" font-size="14.00">InformacionEmpresasController</text>
<polyline fill="none" stroke="black" points="549.986,-875.226 742.986,-875.226 "/>
<text text-anchor="start" x="557.986" y="-860.026" font-family="Times,serif" font-size="14.00">create</text>
<text text-anchor="start" x="557.986" y="-845.026" font-family="Times,serif" font-size="14.00">destroy</text>
<text text-anchor="start" x="557.986" y="-830.026" font-family="Times,serif" font-size="14.00">edit</text>
<text text-anchor="start" x="557.986" y="-815.026" font-family="Times,serif" font-size="14.00">index</text>
<text text-anchor="start" x="557.986" y="-800.026" font-family="Times,serif" font-size="14.00">new</text>
<text text-anchor="start" x="557.986" y="-785.026" font-family="Times,serif" font-size="14.00">show</text>
<text text-anchor="start" x="557.986" y="-770.026" font-family="Times,serif" font-size="14.00">update</text>
<polyline fill="none" stroke="black" points="549.986,-762.226 742.986,-762.226 "/>
<polyline fill="none" stroke="black" points="549.986,-738.226 742.986,-738.226 "/>
<text text-anchor="start" x="557.986" y="-723.026" font-family="Times,serif" font-size="14.00">_layout</text>
<text text-anchor="start" x="557.986" y="-708.026" font-family="Times,serif" font-size="14.00">informacion_empresa_params</text>
</g>
<!-- VideosProductosController -->
<g id="node7" class="node"><title>VideosProductosController</title>
<path fill="none" stroke="black" d="M385.044,-642.298C385.044,-642.298 525.044,-642.298 525.044,-642.298 531.044,-642.298 537.044,-648.298 537.044,-654.298 537.044,-654.298 537.044,-828.298 537.044,-828.298 537.044,-834.298 531.044,-840.298 525.044,-840.298 525.044,-840.298 385.044,-840.298 385.044,-840.298 379.044,-840.298 373.044,-834.298 373.044,-828.298 373.044,-828.298 373.044,-654.298 373.044,-654.298 373.044,-648.298 379.044,-642.298 385.044,-642.298"/>
<text text-anchor="middle" x="455.044" y="-825.098" font-family="Times,serif" font-size="14.00">VideosProductosController</text>
<polyline fill="none" stroke="black" points="373.044,-817.298 537.044,-817.298 "/>
<text text-anchor="start" x="381.044" y="-802.098" font-family="Times,serif" font-size="14.00">create</text>
<text text-anchor="start" x="381.044" y="-787.098" font-family="Times,serif" font-size="14.00">destroy</text>
<text text-anchor="start" x="381.044" y="-772.098" font-family="Times,serif" font-size="14.00">edit</text>
<text text-anchor="start" x="381.044" y="-757.098" font-family="Times,serif" font-size="14.00">index</text>
<text text-anchor="start" x="381.044" y="-742.098" font-family="Times,serif" font-size="14.00">new</text>
<text text-anchor="start" x="381.044" y="-727.098" font-family="Times,serif" font-size="14.00">show</text>
<text text-anchor="start" x="381.044" y="-712.098" font-family="Times,serif" font-size="14.00">update</text>
<polyline fill="none" stroke="black" points="373.044,-704.298 537.044,-704.298 "/>
<polyline fill="none" stroke="black" points="373.044,-680.298 537.044,-680.298 "/>
<text text-anchor="start" x="381.044" y="-665.098" font-family="Times,serif" font-size="14.00">_layout</text>
<text text-anchor="start" x="381.044" y="-650.098" font-family="Times,serif" font-size="14.00">videos_producto_params</text>
</g>
<!-- ProductosController -->
<g id="node8" class="node"><title>ProductosController</title>
<path fill="none" stroke="black" d="M61.6519,-0.607331C61.6519,-0.607331 163.652,-0.607331 163.652,-0.607331 169.652,-0.607331 175.652,-6.60733 175.652,-12.6073 175.652,-12.6073 175.652,-201.607 175.652,-201.607 175.652,-207.607 169.652,-213.607 163.652,-213.607 163.652,-213.607 61.6519,-213.607 61.6519,-213.607 55.6519,-213.607 49.6519,-207.607 49.6519,-201.607 49.6519,-201.607 49.6519,-12.6073 49.6519,-12.6073 49.6519,-6.60733 55.6519,-0.607331 61.6519,-0.607331"/>
<text text-anchor="middle" x="112.652" y="-198.407" font-family="Times,serif" font-size="14.00">ProductosController</text>
<polyline fill="none" stroke="black" points="49.6519,-190.607 175.652,-190.607 "/>
<text text-anchor="start" x="57.6519" y="-175.407" font-family="Times,serif" font-size="14.00">create</text>
<text text-anchor="start" x="57.6519" y="-160.407" font-family="Times,serif" font-size="14.00">destroy</text>
<text text-anchor="start" x="57.6519" y="-145.407" font-family="Times,serif" font-size="14.00">edit</text>
<text text-anchor="start" x="57.6519" y="-130.407" font-family="Times,serif" font-size="14.00">index</text>
<text text-anchor="start" x="57.6519" y="-115.407" font-family="Times,serif" font-size="14.00">new</text>
<text text-anchor="start" x="57.6519" y="-100.407" font-family="Times,serif" font-size="14.00">show</text>
<text text-anchor="start" x="57.6519" y="-85.4073" font-family="Times,serif" font-size="14.00">update</text>
<polyline fill="none" stroke="black" points="49.6519,-77.6073 175.652,-77.6073 "/>
<polyline fill="none" stroke="black" points="49.6519,-53.6073 175.652,-53.6073 "/>
<text text-anchor="start" x="57.6519" y="-38.4073" font-family="Times,serif" font-size="14.00">_layout</text>
<text text-anchor="start" x="57.6519" y="-23.4073" font-family="Times,serif" font-size="14.00">producto_params</text>
<text text-anchor="start" x="57.6519" y="-8.40733" font-family="Times,serif" font-size="14.00">set_producto</text>
</g>
<!-- ApplicationController -->
<g id="node9" class="node"><title>ApplicationController</title>
<path fill="none" stroke="black" d="M310.626,-410.442C310.626,-410.442 422.626,-410.442 422.626,-410.442 428.626,-410.442 434.626,-416.442 434.626,-422.442 434.626,-422.442 434.626,-492.442 434.626,-492.442 434.626,-498.442 428.626,-504.442 422.626,-504.442 422.626,-504.442 310.626,-504.442 310.626,-504.442 304.626,-504.442 298.626,-498.442 298.626,-492.442 298.626,-492.442 298.626,-422.442 298.626,-422.442 298.626,-416.442 304.626,-410.442 310.626,-410.442"/>
<text text-anchor="middle" x="366.626" y="-489.242" font-family="Times,serif" font-size="14.00">ApplicationController</text>
<polyline fill="none" stroke="black" points="298.626,-481.442 434.626,-481.442 "/>
<polyline fill="none" stroke="black" points="298.626,-457.442 434.626,-457.442 "/>
<polyline fill="none" stroke="black" points="298.626,-433.442 434.626,-433.442 "/>
<text text-anchor="start" x="306.626" y="-418.242" font-family="Times,serif" font-size="14.00">_layout</text>
</g>
<!-- ApplicationController&#45;&gt;AudiosController -->
<g id="edge1" class="edge"><title>ApplicationController&#45;&gt;AudiosController</title>
<path fill="none" stroke="black" d="M298.464,-484.486C258.398,-500.383 208.372,-520.231 170.644,-535.2"/>
</g>
<!-- ApplicationController&#45;&gt;ItemProductosController -->
<g id="edge2" class="edge"><title>ApplicationController&#45;&gt;ItemProductosController</title>
<path fill="none" stroke="black" d="M434.769,-482.578C470.849,-495.886 515.266,-512.27 552.473,-525.994"/>
</g>
<!-- ApplicationController&#45;&gt;VideosController -->
<g id="edge3" class="edge"><title>ApplicationController&#45;&gt;VideosController</title>
<path fill="none" stroke="black" d="M366.738,-410.146C366.834,-369.443 366.976,-309.198 367.099,-256.978"/>
</g>
<!-- ApplicationController&#45;&gt;UbicacionGeosController -->
<g id="edge4" class="edge"><title>ApplicationController&#45;&gt;UbicacionGeosController</title>
<path fill="none" stroke="black" d="M354.135,-504.761C342.726,-547.979 325.446,-613.441 310.725,-669.206"/>
</g>
<!-- ApplicationController&#45;&gt;InformacionEmpresasController -->
<g id="edge5" class="edge"><title>ApplicationController&#45;&gt;InformacionEmpresasController</title>
<path fill="none" stroke="black" d="M422.532,-504.742C460.02,-538.9 508.21,-587.868 540.244,-639.098 546.445,-649.013 543.9,-653.443 549.387,-663.77 555.836,-675.907 563.234,-688.204 571.008,-700.183"/>
</g>
<!-- ApplicationController&#45;&gt;VideosProductosController -->
<g id="edge6" class="edge"><title>ApplicationController&#45;&gt;VideosProductosController</title>
<path fill="none" stroke="black" d="M381.326,-504.634C392.964,-541.996 409.623,-595.479 424.161,-642.152"/>
</g>
<!-- ApplicationController&#45;&gt;ProductosController -->
<g id="edge7" class="edge"><title>ApplicationController&#45;&gt;ProductosController</title>
<path fill="none" stroke="black" d="M333.977,-410.073C301.94,-363.848 251.464,-291.695 206.368,-230.169 196.605,-216.849 186.124,-202.826 175.833,-189.207"/>
</g>
<!-- GaleriaImagenesController -->
<g id="node10" class="node"><title>GaleriaImagenesController</title>
<path fill="none" stroke="black" d="M51.1684,-233.369C51.1684,-233.369 191.168,-233.369 191.168,-233.369 197.168,-233.369 203.168,-239.369 203.168,-245.369 203.168,-245.369 203.168,-419.369 203.168,-419.369 203.168,-425.369 197.168,-431.369 191.168,-431.369 191.168,-431.369 51.1684,-431.369 51.1684,-431.369 45.1684,-431.369 39.1684,-425.369 39.1684,-419.369 39.1684,-419.369 39.1684,-245.369 39.1684,-245.369 39.1684,-239.369 45.1684,-233.369 51.1684,-233.369"/>
<text text-anchor="middle" x="121.168" y="-416.169" font-family="Times,serif" font-size="14.00">GaleriaImagenesController</text>
<polyline fill="none" stroke="black" points="39.1684,-408.369 203.168,-408.369 "/>
<text text-anchor="start" x="47.1684" y="-393.169" font-family="Times,serif" font-size="14.00">create</text>
<text text-anchor="start" x="47.1684" y="-378.169" font-family="Times,serif" font-size="14.00">destroy</text>
<text text-anchor="start" x="47.1684" y="-363.169" font-family="Times,serif" font-size="14.00">edit</text>
<text text-anchor="start" x="47.1684" y="-348.169" font-family="Times,serif" font-size="14.00">index</text>
<text text-anchor="start" x="47.1684" y="-333.169" font-family="Times,serif" font-size="14.00">new</text>
<text text-anchor="start" x="47.1684" y="-318.169" font-family="Times,serif" font-size="14.00">show</text>
<text text-anchor="start" x="47.1684" y="-303.169" font-family="Times,serif" font-size="14.00">update</text>
<polyline fill="none" stroke="black" points="39.1684,-295.369 203.168,-295.369 "/>
<polyline fill="none" stroke="black" points="39.1684,-271.369 203.168,-271.369 "/>
<text text-anchor="start" x="47.1684" y="-256.169" font-family="Times,serif" font-size="14.00">_layout</text>
<text text-anchor="start" x="47.1684" y="-241.169" font-family="Times,serif" font-size="14.00">galeria_imagene_params</text>
</g>
<!-- ApplicationController&#45;&gt;GaleriaImagenesController -->
<g id="edge8" class="edge"><title>ApplicationController&#45;&gt;GaleriaImagenesController</title>
<path fill="none" stroke="black" d="M298.578,-422.769C269.068,-407.731 234.255,-389.993 203.318,-374.229"/>
</g>
<!-- EmpresasController -->
<g id="node11" class="node"><title>EmpresasController</title>
<path fill="none" stroke="black" d="M561.378,-224.829C561.378,-224.829 662.378,-224.829 662.378,-224.829 668.378,-224.829 674.378,-230.829 674.378,-236.829 674.378,-236.829 674.378,-425.829 674.378,-425.829 674.378,-431.829 668.378,-437.829 662.378,-437.829 662.378,-437.829 561.378,-437.829 561.378,-437.829 555.378,-437.829 549.378,-431.829 549.378,-425.829 549.378,-425.829 549.378,-236.829 549.378,-236.829 549.378,-230.829 555.378,-224.829 561.378,-224.829"/>
<text text-anchor="middle" x="611.878" y="-422.629" font-family="Times,serif" font-size="14.00">EmpresasController</text>
<polyline fill="none" stroke="black" points="549.378,-414.829 674.378,-414.829 "/>
<text text-anchor="start" x="557.378" y="-399.629" font-family="Times,serif" font-size="14.00">create</text>
<text text-anchor="start" x="557.378" y="-384.629" font-family="Times,serif" font-size="14.00">destroy</text>
<text text-anchor="start" x="557.378" y="-369.629" font-family="Times,serif" font-size="14.00">edit</text>
<text text-anchor="start" x="557.378" y="-354.629" font-family="Times,serif" font-size="14.00">index</text>
<text text-anchor="start" x="557.378" y="-339.629" font-family="Times,serif" font-size="14.00">new</text>
<text text-anchor="start" x="557.378" y="-324.629" font-family="Times,serif" font-size="14.00">show</text>
<text text-anchor="start" x="557.378" y="-309.629" font-family="Times,serif" font-size="14.00">update</text>
<polyline fill="none" stroke="black" points="549.378,-301.829 674.378,-301.829 "/>
<polyline fill="none" stroke="black" points="549.378,-277.829 674.378,-277.829 "/>
<text text-anchor="start" x="557.378" y="-262.629" font-family="Times,serif" font-size="14.00">_layout</text>
<text text-anchor="start" x="557.378" y="-247.629" font-family="Times,serif" font-size="14.00">empresa_params</text>
<text text-anchor="start" x="557.378" y="-232.629" font-family="Times,serif" font-size="14.00">set_empresa</text>
</g>
<!-- ApplicationController&#45;&gt;EmpresasController -->
<g id="edge9" class="edge"><title>ApplicationController&#45;&gt;EmpresasController</title>
<path fill="none" stroke="black" d="M434.942,-422.313C470.659,-403.946 514.08,-381.619 548.968,-363.678"/>
</g>
<!-- ItemDeInfosController -->
<g id="node12" class="node"><title>ItemDeInfosController</title>
<path fill="none" stroke="black" d="M564.057,-0.5C564.057,-0.5 681.057,-0.5 681.057,-0.5 687.057,-0.5 693.057,-6.5 693.057,-12.5 693.057,-12.5 693.057,-201.5 693.057,-201.5 693.057,-207.5 687.057,-213.5 681.057,-213.5 681.057,-213.5 564.057,-213.5 564.057,-213.5 558.057,-213.5 552.057,-207.5 552.057,-201.5 552.057,-201.5 552.057,-12.5 552.057,-12.5 552.057,-6.5 558.057,-0.5 564.057,-0.5"/>
<text text-anchor="middle" x="622.557" y="-198.3" font-family="Times,serif" font-size="14.00">ItemDeInfosController</text>
<polyline fill="none" stroke="black" points="552.057,-190.5 693.057,-190.5 "/>
<text text-anchor="start" x="560.057" y="-175.3" font-family="Times,serif" font-size="14.00">create</text>
<text text-anchor="start" x="560.057" y="-160.3" font-family="Times,serif" font-size="14.00">destroy</text>
<text text-anchor="start" x="560.057" y="-145.3" font-family="Times,serif" font-size="14.00">edit</text>
<text text-anchor="start" x="560.057" y="-130.3" font-family="Times,serif" font-size="14.00">index</text>
<text text-anchor="start" x="560.057" y="-115.3" font-family="Times,serif" font-size="14.00">new</text>
<text text-anchor="start" x="560.057" y="-100.3" font-family="Times,serif" font-size="14.00">show</text>
<text text-anchor="start" x="560.057" y="-85.3" font-family="Times,serif" font-size="14.00">update</text>
<polyline fill="none" stroke="black" points="552.057,-77.5 693.057,-77.5 "/>
<polyline fill="none" stroke="black" points="552.057,-53.5 693.057,-53.5 "/>
<text text-anchor="start" x="560.057" y="-38.3" font-family="Times,serif" font-size="14.00">_layout</text>
<text text-anchor="start" x="560.057" y="-23.3" font-family="Times,serif" font-size="14.00">item_de_info_params</text>
<text text-anchor="start" x="560.057" y="-8.3" font-family="Times,serif" font-size="14.00">set_item_de_info</text>
</g>
<!-- ApplicationController&#45;&gt;ItemDeInfosController -->
<g id="edge10" class="edge"><title>ApplicationController&#45;&gt;ItemDeInfosController</title>
<path fill="none" stroke="black" d="M401.142,-410.18C439.619,-357.495 502.879,-270.873 551.951,-203.68"/>
</g>
<!-- NoticiaEmpresasController -->
<g id="node13" class="node"><title>NoticiaEmpresasController</title>
<path fill="none" stroke="black" d="M12,-686.48C12,-686.48 153,-686.48 153,-686.48 159,-686.48 165,-692.48 165,-698.48 165,-698.48 165,-887.48 165,-887.48 165,-893.48 159,-899.48 153,-899.48 153,-899.48 12,-899.48 12,-899.48 6,-899.48 0,-893.48 0,-887.48 0,-887.48 0,-698.48 0,-698.48 0,-692.48 6,-686.48 12,-686.48"/>
<text text-anchor="middle" x="82.5" y="-884.28" font-family="Times,serif" font-size="14.00">NoticiaEmpresasController</text>
<polyline fill="none" stroke="black" points="0,-876.48 165,-876.48 "/>
<text text-anchor="start" x="8" y="-861.28" font-family="Times,serif" font-size="14.00">create</text>
<text text-anchor="start" x="8" y="-846.28" font-family="Times,serif" font-size="14.00">destroy</text>
<text text-anchor="start" x="8" y="-831.28" font-family="Times,serif" font-size="14.00">edit</text>
<text text-anchor="start" x="8" y="-816.28" font-family="Times,serif" font-size="14.00">index</text>
<text text-anchor="start" x="8" y="-801.28" font-family="Times,serif" font-size="14.00">new</text>
<text text-anchor="start" x="8" y="-786.28" font-family="Times,serif" font-size="14.00">show</text>
<text text-anchor="start" x="8" y="-771.28" font-family="Times,serif" font-size="14.00">update</text>
<polyline fill="none" stroke="black" points="0,-763.48 165,-763.48 "/>
<polyline fill="none" stroke="black" points="0,-739.48 165,-739.48 "/>
<text text-anchor="start" x="8" y="-724.28" font-family="Times,serif" font-size="14.00">_layout</text>
<text text-anchor="start" x="8" y="-709.28" font-family="Times,serif" font-size="14.00">noticia_empresa_params</text>
<text text-anchor="start" x="8" y="-694.28" font-family="Times,serif" font-size="14.00">set_noticia_empresa</text>
</g>
<!-- ApplicationController&#45;&gt;NoticiaEmpresasController -->
<g id="edge11" class="edge"><title>ApplicationController&#45;&gt;NoticiaEmpresasController</title>
<path fill="none" stroke="black" d="M326.82,-504.451C285.126,-553.689 218.433,-632.45 165.254,-695.252"/>
</g>
</g>
</svg>
