<?xml version="1.0" encoding="UTF-8" standalone="no"?>
<!DOCTYPE svg PUBLIC "-//W3C//DTD SVG 1.1//EN"
 "http://www.w3.org/Graphics/SVG/1.1/DTD/svg11.dtd">
<!-- Generated by graphviz version 2.36.0 (20140111.2315)
 -->
<!-- Title: models_diagram Pages: 1 -->
<svg width="1307pt" height="1138pt"
 viewBox="0.00 0.00 1307.00 1138.00" xmlns="http://www.w3.org/2000/svg" xmlns:xlink="http://www.w3.org/1999/xlink">
<g id="graph0" class="graph" transform="scale(1 1) rotate(0) translate(4 1134)">
<title>models_diagram</title>
<polygon fill="white" stroke="none" points="-4,4 -4,-1134 1303,-1134 1303,4 -4,4"/>
<!-- _diagram_info -->
<g id="node1" class="node"><title>_diagram_info</title>
<text text-anchor="start" x="8" y="-1003.6" font-family="Times,serif" font-size="13.00">Models diagram</text>
<text text-anchor="start" x="8" y="-989.6" font-family="Times,serif" font-size="13.00">Date: Jul 05 2015 &#45; 18:48</text>
<text text-anchor="start" x="8" y="-975.6" font-family="Times,serif" font-size="13.00">Migration version: 20150602225226</text>
<text text-anchor="start" x="8" y="-961.6" font-family="Times,serif" font-size="13.00">Generated by RailRoady 1.3.0</text>
<text text-anchor="start" x="8" y="-947.6" font-family="Times,serif" font-size="13.00">http://railroady.prestonlee.com</text>
</g>
<!-- Audio -->
<g id="node2" class="node"><title>Audio</title>
<path fill="none" stroke="black" d="M244.5,-828.5C244.5,-828.5 411.5,-828.5 411.5,-828.5 417.5,-828.5 423.5,-834.5 423.5,-840.5 423.5,-840.5 423.5,-1117.5 423.5,-1117.5 423.5,-1123.5 417.5,-1129.5 411.5,-1129.5 411.5,-1129.5 244.5,-1129.5 244.5,-1129.5 238.5,-1129.5 232.5,-1123.5 232.5,-1117.5 232.5,-1117.5 232.5,-840.5 232.5,-840.5 232.5,-834.5 238.5,-828.5 244.5,-828.5"/>
<text text-anchor="middle" x="328" y="-1114.3" font-family="Times,serif" font-size="14.00">Audio</text>
<polyline fill="none" stroke="black" points="232.5,-1106.5 423.5,-1106.5 "/>
<text text-anchor="start" x="240.5" y="-1091.3" font-family="Times,serif" font-size="14.00">id :integer</text>
<text text-anchor="start" x="240.5" y="-1076.3" font-family="Times,serif" font-size="14.00">image :string</text>
<text text-anchor="start" x="240.5" y="-1061.3" font-family="Times,serif" font-size="14.00">document :string</text>
<text text-anchor="start" x="240.5" y="-1046.3" font-family="Times,serif" font-size="14.00">audio :string</text>
<text text-anchor="start" x="240.5" y="-1031.3" font-family="Times,serif" font-size="14.00">image_file_name :string</text>
<text text-anchor="start" x="240.5" y="-1016.3" font-family="Times,serif" font-size="14.00">image_content_type :string</text>
<text text-anchor="start" x="240.5" y="-1001.3" font-family="Times,serif" font-size="14.00">image_file_size :integer</text>
<text text-anchor="start" x="240.5" y="-986.3" font-family="Times,serif" font-size="14.00">image_updated_at :datetime</text>
<text text-anchor="start" x="240.5" y="-971.3" font-family="Times,serif" font-size="14.00">document_file_name :string</text>
<text text-anchor="start" x="240.5" y="-956.3" font-family="Times,serif" font-size="14.00">document_content_type :string</text>
<text text-anchor="start" x="240.5" y="-941.3" font-family="Times,serif" font-size="14.00">document_file_size :integer</text>
<text text-anchor="start" x="240.5" y="-926.3" font-family="Times,serif" font-size="14.00">document_updated_at :datetime</text>
<text text-anchor="start" x="240.5" y="-911.3" font-family="Times,serif" font-size="14.00">audio_file_name :string</text>
<text text-anchor="start" x="240.5" y="-896.3" font-family="Times,serif" font-size="14.00">audio_content_type :string</text>
<text text-anchor="start" x="240.5" y="-881.3" font-family="Times,serif" font-size="14.00">audio_file_size :integer</text>
<text text-anchor="start" x="240.5" y="-866.3" font-family="Times,serif" font-size="14.00">audio_updated_at :datetime</text>
<text text-anchor="start" x="240.5" y="-851.3" font-family="Times,serif" font-size="14.00">created_at :datetime</text>
<text text-anchor="start" x="240.5" y="-836.3" font-family="Times,serif" font-size="14.00">updated_at :datetime</text>
</g>
<!-- NoticiaEmpresa -->
<g id="node3" class="node"><title>NoticiaEmpresa</title>
<path fill="none" stroke="black" d="M29.5,-610.5C29.5,-610.5 176.5,-610.5 176.5,-610.5 182.5,-610.5 188.5,-616.5 188.5,-622.5 188.5,-622.5 188.5,-779.5 188.5,-779.5 188.5,-785.5 182.5,-791.5 176.5,-791.5 176.5,-791.5 29.5,-791.5 29.5,-791.5 23.5,-791.5 17.5,-785.5 17.5,-779.5 17.5,-779.5 17.5,-622.5 17.5,-622.5 17.5,-616.5 23.5,-610.5 29.5,-610.5"/>
<text text-anchor="middle" x="103" y="-776.3" font-family="Times,serif" font-size="14.00">NoticiaEmpresa</text>
<polyline fill="none" stroke="black" points="17.5,-768.5 188.5,-768.5 "/>
<text text-anchor="start" x="25.5" y="-753.3" font-family="Times,serif" font-size="14.00">id :integer</text>
<text text-anchor="start" x="25.5" y="-738.3" font-family="Times,serif" font-size="14.00">titulo :string</text>
<text text-anchor="start" x="25.5" y="-723.3" font-family="Times,serif" font-size="14.00">descripcion :text</text>
<text text-anchor="start" x="25.5" y="-708.3" font-family="Times,serif" font-size="14.00">empresa_id :integer</text>
<text text-anchor="start" x="25.5" y="-693.3" font-family="Times,serif" font-size="14.00">created_at :datetime</text>
<text text-anchor="start" x="25.5" y="-678.3" font-family="Times,serif" font-size="14.00">updated_at :datetime</text>
<text text-anchor="start" x="25.5" y="-663.3" font-family="Times,serif" font-size="14.00">image_file_name :string</text>
<text text-anchor="start" x="25.5" y="-648.3" font-family="Times,serif" font-size="14.00">image_content_type :string</text>
<text text-anchor="start" x="25.5" y="-633.3" font-family="Times,serif" font-size="14.00">image_file_size :integer</text>
<text text-anchor="start" x="25.5" y="-618.3" font-family="Times,serif" font-size="14.00">image_updated_at :datetime</text>
</g>
<!-- GaleriaProp -->
<g id="node4" class="node"><title>GaleriaProp</title>
<path fill="none" stroke="black" d="M971.5,-181.5C971.5,-181.5 1118.5,-181.5 1118.5,-181.5 1124.5,-181.5 1130.5,-187.5 1130.5,-193.5 1130.5,-193.5 1130.5,-320.5 1130.5,-320.5 1130.5,-326.5 1124.5,-332.5 1118.5,-332.5 1118.5,-332.5 971.5,-332.5 971.5,-332.5 965.5,-332.5 959.5,-326.5 959.5,-320.5 959.5,-320.5 959.5,-193.5 959.5,-193.5 959.5,-187.5 965.5,-181.5 971.5,-181.5"/>
<text text-anchor="middle" x="1045" y="-317.3" font-family="Times,serif" font-size="14.00">GaleriaProp</text>
<polyline fill="none" stroke="black" points="959.5,-309.5 1130.5,-309.5 "/>
<text text-anchor="start" x="967.5" y="-294.3" font-family="Times,serif" font-size="14.00">id :integer</text>
<text text-anchor="start" x="967.5" y="-279.3" font-family="Times,serif" font-size="14.00">prop_general_id :integer</text>
<text text-anchor="start" x="967.5" y="-264.3" font-family="Times,serif" font-size="14.00">created_at :datetime</text>
<text text-anchor="start" x="967.5" y="-249.3" font-family="Times,serif" font-size="14.00">updated_at :datetime</text>
<text text-anchor="start" x="967.5" y="-234.3" font-family="Times,serif" font-size="14.00">image_file_name :string</text>
<text text-anchor="start" x="967.5" y="-219.3" font-family="Times,serif" font-size="14.00">image_content_type :string</text>
<text text-anchor="start" x="967.5" y="-204.3" font-family="Times,serif" font-size="14.00">image_file_size :integer</text>
<text text-anchor="start" x="967.5" y="-189.3" font-family="Times,serif" font-size="14.00">image_updated_at :datetime</text>
</g>
<!-- ItemDeInfo -->
<g id="node5" class="node"><title>ItemDeInfo</title>
<path fill="none" stroke="black" d="M149,-392.5C149,-392.5 323,-392.5 323,-392.5 329,-392.5 335,-398.5 335,-404.5 335,-404.5 335,-561.5 335,-561.5 335,-567.5 329,-573.5 323,-573.5 323,-573.5 149,-573.5 149,-573.5 143,-573.5 137,-567.5 137,-561.5 137,-561.5 137,-404.5 137,-404.5 137,-398.5 143,-392.5 149,-392.5"/>
<text text-anchor="middle" x="236" y="-558.3" font-family="Times,serif" font-size="14.00">ItemDeInfo</text>
<polyline fill="none" stroke="black" points="137,-550.5 335,-550.5 "/>
<text text-anchor="start" x="145" y="-535.3" font-family="Times,serif" font-size="14.00">id :integer</text>
<text text-anchor="start" x="145" y="-520.3" font-family="Times,serif" font-size="14.00">título :string</text>
<text text-anchor="start" x="145" y="-505.3" font-family="Times,serif" font-size="14.00">descripción :text</text>
<text text-anchor="start" x="145" y="-490.3" font-family="Times,serif" font-size="14.00">informacion_empresa_id :integer</text>
<text text-anchor="start" x="145" y="-475.3" font-family="Times,serif" font-size="14.00">created_at :datetime</text>
<text text-anchor="start" x="145" y="-460.3" font-family="Times,serif" font-size="14.00">updated_at :datetime</text>
<text text-anchor="start" x="145" y="-445.3" font-family="Times,serif" font-size="14.00">image_file_name :string</text>
<text text-anchor="start" x="145" y="-430.3" font-family="Times,serif" font-size="14.00">image_content_type :string</text>
<text text-anchor="start" x="145" y="-415.3" font-family="Times,serif" font-size="14.00">image_file_size :integer</text>
<text text-anchor="start" x="145" y="-400.3" font-family="Times,serif" font-size="14.00">image_updated_at :datetime</text>
</g>
<!-- Opinion -->
<g id="node6" class="node"><title>Opinion</title>
<path fill="none" stroke="black" d="M104,-174C104,-174 238,-174 238,-174 244,-174 250,-180 250,-186 250,-186 250,-328 250,-328 250,-334 244,-340 238,-340 238,-340 104,-340 104,-340 98,-340 92,-334 92,-328 92,-328 92,-186 92,-186 92,-180 98,-174 104,-174"/>
<text text-anchor="middle" x="171" y="-324.8" font-family="Times,serif" font-size="14.00">Opinion</text>
<polyline fill="none" stroke="black" points="92,-317 250,-317 "/>
<text text-anchor="start" x="100" y="-301.8" font-family="Times,serif" font-size="14.00">id :integer</text>
<text text-anchor="start" x="100" y="-286.8" font-family="Times,serif" font-size="14.00">nombre :string</text>
<text text-anchor="start" x="100" y="-271.8" font-family="Times,serif" font-size="14.00">nacionalidad :string</text>
<text text-anchor="start" x="100" y="-256.8" font-family="Times,serif" font-size="14.00">pais :string</text>
<text text-anchor="start" x="100" y="-241.8" font-family="Times,serif" font-size="14.00">ciudad :string</text>
<text text-anchor="start" x="100" y="-226.8" font-family="Times,serif" font-size="14.00">comentario :string</text>
<text text-anchor="start" x="100" y="-211.8" font-family="Times,serif" font-size="14.00">item_producto_id :integer</text>
<text text-anchor="start" x="100" y="-196.8" font-family="Times,serif" font-size="14.00">created_at :datetime</text>
<text text-anchor="start" x="100" y="-181.8" font-family="Times,serif" font-size="14.00">updated_at :datetime</text>
</g>
<!-- ItemProducto -->
<g id="node7" class="node"><title>ItemProducto</title>
<path fill="none" stroke="black" d="M365.5,-392.5C365.5,-392.5 512.5,-392.5 512.5,-392.5 518.5,-392.5 524.5,-398.5 524.5,-404.5 524.5,-404.5 524.5,-561.5 524.5,-561.5 524.5,-567.5 518.5,-573.5 512.5,-573.5 512.5,-573.5 365.5,-573.5 365.5,-573.5 359.5,-573.5 353.5,-567.5 353.5,-561.5 353.5,-561.5 353.5,-404.5 353.5,-404.5 353.5,-398.5 359.5,-392.5 365.5,-392.5"/>
<text text-anchor="middle" x="439" y="-558.3" font-family="Times,serif" font-size="14.00">ItemProducto</text>
<polyline fill="none" stroke="black" points="353.5,-550.5 524.5,-550.5 "/>
<text text-anchor="start" x="361.5" y="-535.3" font-family="Times,serif" font-size="14.00">id :integer</text>
<text text-anchor="start" x="361.5" y="-520.3" font-family="Times,serif" font-size="14.00">marca :string</text>
<text text-anchor="start" x="361.5" y="-505.3" font-family="Times,serif" font-size="14.00">tipo :string</text>
<text text-anchor="start" x="361.5" y="-490.3" font-family="Times,serif" font-size="14.00">producto_id :integer</text>
<text text-anchor="start" x="361.5" y="-475.3" font-family="Times,serif" font-size="14.00">created_at :datetime</text>
<text text-anchor="start" x="361.5" y="-460.3" font-family="Times,serif" font-size="14.00">updated_at :datetime</text>
<text text-anchor="start" x="361.5" y="-445.3" font-family="Times,serif" font-size="14.00">image_file_name :string</text>
<text text-anchor="start" x="361.5" y="-430.3" font-family="Times,serif" font-size="14.00">image_content_type :string</text>
<text text-anchor="start" x="361.5" y="-415.3" font-family="Times,serif" font-size="14.00">image_file_size :integer</text>
<text text-anchor="start" x="361.5" y="-400.3" font-family="Times,serif" font-size="14.00">image_updated_at :datetime</text>
</g>
<!-- ItemProducto&#45;&gt;Opinion -->
<g id="edge3" class="edge"><title>ItemProducto&#45;&gt;Opinion</title>
<path fill="none" stroke="#3bc5ab" d="M346.644,-393.757C345.764,-393.163 344.882,-392.577 344,-392 309.672,-369.534 292.394,-379.833 259,-356 255.022,-353.161 251.094,-350.112 247.237,-346.909"/>
<ellipse fill="none" stroke="#3bc5ab" cx="350.092" cy="-396.17" rx="4.00002" ry="4.00002"/>
<polygon fill="#3bc5ab" stroke="#3bc5ab" points="246.979,-346.686 242.371,-336.736 243.201,-343.411 239.423,-340.136 239.423,-340.136 239.423,-340.136 243.201,-343.411 236.476,-343.536 246.979,-346.686 246.979,-346.686"/>
</g>
<!-- VideosProducto -->
<g id="node13" class="node"><title>VideosProducto</title>
<path fill="none" stroke="black" d="M280,-189C280,-189 414,-189 414,-189 420,-189 426,-195 426,-201 426,-201 426,-313 426,-313 426,-319 420,-325 414,-325 414,-325 280,-325 280,-325 274,-325 268,-319 268,-313 268,-313 268,-201 268,-201 268,-195 274,-189 280,-189"/>
<text text-anchor="middle" x="347" y="-309.8" font-family="Times,serif" font-size="14.00">VideosProducto</text>
<polyline fill="none" stroke="black" points="268,-302 426,-302 "/>
<text text-anchor="start" x="276" y="-286.8" font-family="Times,serif" font-size="14.00">id :integer</text>
<text text-anchor="start" x="276" y="-271.8" font-family="Times,serif" font-size="14.00">titulo :string</text>
<text text-anchor="start" x="276" y="-256.8" font-family="Times,serif" font-size="14.00">descripcion :string</text>
<text text-anchor="start" x="276" y="-241.8" font-family="Times,serif" font-size="14.00">url :string</text>
<text text-anchor="start" x="276" y="-226.8" font-family="Times,serif" font-size="14.00">item_producto_id :integer</text>
<text text-anchor="start" x="276" y="-211.8" font-family="Times,serif" font-size="14.00">created_at :datetime</text>
<text text-anchor="start" x="276" y="-196.8" font-family="Times,serif" font-size="14.00">updated_at :datetime</text>
</g>
<!-- ItemProducto&#45;&gt;VideosProducto -->
<g id="edge2" class="edge"><title>ItemProducto&#45;&gt;VideosProducto</title>
<path fill="none" stroke="#5f17a7" d="M398.967,-384.528C392.079,-367.757 385.009,-350.543 378.389,-334.426"/>
<ellipse fill="none" stroke="#5f17a7" cx="400.59" cy="-388.481" rx="4.00001" ry="4.00001"/>
<polygon fill="#5f17a7" stroke="#5f17a7" points="378.348,-334.325 378.711,-323.365 376.448,-329.7 374.548,-325.075 374.548,-325.075 374.548,-325.075 376.448,-329.7 370.386,-326.784 378.348,-334.325 378.348,-334.325"/>
</g>
<!-- GaleriaImagene -->
<g id="node16" class="node"><title>GaleriaImagene</title>
<path fill="none" stroke="black" d="M456.5,-166.5C456.5,-166.5 603.5,-166.5 603.5,-166.5 609.5,-166.5 615.5,-172.5 615.5,-178.5 615.5,-178.5 615.5,-335.5 615.5,-335.5 615.5,-341.5 609.5,-347.5 603.5,-347.5 603.5,-347.5 456.5,-347.5 456.5,-347.5 450.5,-347.5 444.5,-341.5 444.5,-335.5 444.5,-335.5 444.5,-178.5 444.5,-178.5 444.5,-172.5 450.5,-166.5 456.5,-166.5"/>
<text text-anchor="middle" x="530" y="-332.3" font-family="Times,serif" font-size="14.00">GaleriaImagene</text>
<polyline fill="none" stroke="black" points="444.5,-324.5 615.5,-324.5 "/>
<text text-anchor="start" x="452.5" y="-309.3" font-family="Times,serif" font-size="14.00">id :integer</text>
<text text-anchor="start" x="452.5" y="-294.3" font-family="Times,serif" font-size="14.00">titulo :string</text>
<text text-anchor="start" x="452.5" y="-279.3" font-family="Times,serif" font-size="14.00">descripcion :text</text>
<text text-anchor="start" x="452.5" y="-264.3" font-family="Times,serif" font-size="14.00">item_producto_id :integer</text>
<text text-anchor="start" x="452.5" y="-249.3" font-family="Times,serif" font-size="14.00">created_at :datetime</text>
<text text-anchor="start" x="452.5" y="-234.3" font-family="Times,serif" font-size="14.00">updated_at :datetime</text>
<text text-anchor="start" x="452.5" y="-219.3" font-family="Times,serif" font-size="14.00">image_file_name :string</text>
<text text-anchor="start" x="452.5" y="-204.3" font-family="Times,serif" font-size="14.00">image_content_type :string</text>
<text text-anchor="start" x="452.5" y="-189.3" font-family="Times,serif" font-size="14.00">image_file_size :integer</text>
<text text-anchor="start" x="452.5" y="-174.3" font-family="Times,serif" font-size="14.00">image_updated_at :datetime</text>
</g>
<!-- ItemProducto&#45;&gt;GaleriaImagene -->
<g id="edge1" class="edge"><title>ItemProducto&#45;&gt;GaleriaImagene</title>
<path fill="none" stroke="#4f1832" d="M478.565,-384.609C482.249,-375.54 485.986,-366.341 489.677,-357.256"/>
<ellipse fill="none" stroke="#4f1832" cx="476.994" cy="-388.475" rx="4.00001" ry="4.00001"/>
<polygon fill="#4f1832" stroke="#4f1832" points="489.739,-357.104 497.672,-349.533 491.621,-352.471 493.503,-347.839 493.503,-347.839 493.503,-347.839 491.621,-352.471 489.334,-346.145 489.739,-357.104 489.739,-357.104"/>
</g>
<!-- Detalle -->
<g id="node20" class="node"><title>Detalle</title>
<path fill="none" stroke="black" d="M646,-159C646,-159 780,-159 780,-159 786,-159 792,-165 792,-171 792,-171 792,-343 792,-343 792,-349 786,-355 780,-355 780,-355 646,-355 646,-355 640,-355 634,-349 634,-343 634,-343 634,-171 634,-171 634,-165 640,-159 646,-159"/>
<text text-anchor="middle" x="713" y="-339.8" font-family="Times,serif" font-size="14.00">Detalle</text>
<polyline fill="none" stroke="black" points="634,-332 792,-332 "/>
<text text-anchor="start" x="642" y="-316.8" font-family="Times,serif" font-size="14.00">id :integer</text>
<text text-anchor="start" x="642" y="-301.8" font-family="Times,serif" font-size="14.00">descripción :text</text>
<text text-anchor="start" x="642" y="-286.8" font-family="Times,serif" font-size="14.00">elaboración :text</text>
<text text-anchor="start" x="642" y="-271.8" font-family="Times,serif" font-size="14.00">presentación :text</text>
<text text-anchor="start" x="642" y="-256.8" font-family="Times,serif" font-size="14.00">packaging :text</text>
<text text-anchor="start" x="642" y="-241.8" font-family="Times,serif" font-size="14.00">origen :text</text>
<text text-anchor="start" x="642" y="-226.8" font-family="Times,serif" font-size="14.00">secanza :text</text>
<text text-anchor="start" x="642" y="-211.8" font-family="Times,serif" font-size="14.00">característica :text</text>
<text text-anchor="start" x="642" y="-196.8" font-family="Times,serif" font-size="14.00">item_producto_id :integer</text>
<text text-anchor="start" x="642" y="-181.8" font-family="Times,serif" font-size="14.00">created_at :datetime</text>
<text text-anchor="start" x="642" y="-166.8" font-family="Times,serif" font-size="14.00">updated_at :datetime</text>
</g>
<!-- ItemProducto&#45;&gt;Detalle -->
<g id="edge4" class="edge"><title>ItemProducto&#45;&gt;Detalle</title>
<path fill="none" stroke="#b897ec" d="M531.45,-393.004C531.966,-392.666 532.483,-392.332 533,-392 569.613,-368.522 588.228,-380.741 624,-356 624.517,-355.643 625.033,-355.281 625.548,-354.917"/>
<ellipse fill="none" stroke="#b897ec" cx="528.073" cy="-395.303" rx="4.00002" ry="4.00002"/>
<polygon fill="#b897ec" stroke="#b897ec" points="625.801,-354.727 636.502,-352.333 629.803,-351.729 633.804,-348.731 633.804,-348.731 633.804,-348.731 629.803,-351.729 631.106,-345.13 625.801,-354.727 625.801,-354.727"/>
</g>
<!-- PrepararMate -->
<g id="node8" class="node"><title>PrepararMate</title>
<path fill="none" stroke="black" d="M554.5,-422.5C554.5,-422.5 661.5,-422.5 661.5,-422.5 667.5,-422.5 673.5,-428.5 673.5,-434.5 673.5,-434.5 673.5,-531.5 673.5,-531.5 673.5,-537.5 667.5,-543.5 661.5,-543.5 661.5,-543.5 554.5,-543.5 554.5,-543.5 548.5,-543.5 542.5,-537.5 542.5,-531.5 542.5,-531.5 542.5,-434.5 542.5,-434.5 542.5,-428.5 548.5,-422.5 554.5,-422.5"/>
<text text-anchor="middle" x="608" y="-528.3" font-family="Times,serif" font-size="14.00">PrepararMate</text>
<polyline fill="none" stroke="black" points="542.5,-520.5 673.5,-520.5 "/>
<text text-anchor="start" x="550.5" y="-505.3" font-family="Times,serif" font-size="14.00">id :integer</text>
<text text-anchor="start" x="550.5" y="-490.3" font-family="Times,serif" font-size="14.00">título :string</text>
<text text-anchor="start" x="550.5" y="-475.3" font-family="Times,serif" font-size="14.00">descrición :text</text>
<text text-anchor="start" x="550.5" y="-460.3" font-family="Times,serif" font-size="14.00">producto_id :integer</text>
<text text-anchor="start" x="550.5" y="-445.3" font-family="Times,serif" font-size="14.00">created_at :datetime</text>
<text text-anchor="start" x="550.5" y="-430.3" font-family="Times,serif" font-size="14.00">updated_at :datetime</text>
</g>
<!-- InformacionEmpresa -->
<g id="node9" class="node"><title>InformacionEmpresa</title>
<path fill="none" stroke="black" d="M219,-648C219,-648 327,-648 327,-648 333,-648 339,-654 339,-660 339,-660 339,-742 339,-742 339,-748 333,-754 327,-754 327,-754 219,-754 219,-754 213,-754 207,-748 207,-742 207,-742 207,-660 207,-660 207,-654 213,-648 219,-648"/>
<text text-anchor="middle" x="273" y="-738.8" font-family="Times,serif" font-size="14.00">InformacionEmpresa</text>
<polyline fill="none" stroke="black" points="207,-731 339,-731 "/>
<text text-anchor="start" x="215" y="-715.8" font-family="Times,serif" font-size="14.00">id :integer</text>
<text text-anchor="start" x="215" y="-700.8" font-family="Times,serif" font-size="14.00">itemTitulo :string</text>
<text text-anchor="start" x="215" y="-685.8" font-family="Times,serif" font-size="14.00">empresa_id :integer</text>
<text text-anchor="start" x="215" y="-670.8" font-family="Times,serif" font-size="14.00">created_at :datetime</text>
<text text-anchor="start" x="215" y="-655.8" font-family="Times,serif" font-size="14.00">updated_at :datetime</text>
</g>
<!-- InformacionEmpresa&#45;&gt;ItemDeInfo -->
<g id="edge5" class="edge"><title>InformacionEmpresa&#45;&gt;ItemDeInfo</title>
<path fill="none" stroke="#3ce52d" d="M262.715,-639.959C259.715,-622.442 256.352,-602.813 253.052,-583.545"/>
<ellipse fill="none" stroke="#3ce52d" cx="263.415" cy="-644.045" rx="4.00001" ry="4.00001"/>
<polygon fill="#3ce52d" stroke="#3ce52d" points="253.022,-583.372 255.769,-572.755 252.178,-578.444 251.334,-573.515 251.334,-573.515 251.334,-573.515 252.178,-578.444 246.898,-574.275 253.022,-583.372 253.022,-583.372"/>
</g>
<!-- Video -->
<g id="node10" class="node"><title>Video</title>
<path fill="none" stroke="black" d="M369.5,-633C369.5,-633 476.5,-633 476.5,-633 482.5,-633 488.5,-639 488.5,-645 488.5,-645 488.5,-757 488.5,-757 488.5,-763 482.5,-769 476.5,-769 476.5,-769 369.5,-769 369.5,-769 363.5,-769 357.5,-763 357.5,-757 357.5,-757 357.5,-645 357.5,-645 357.5,-639 363.5,-633 369.5,-633"/>
<text text-anchor="middle" x="423" y="-753.8" font-family="Times,serif" font-size="14.00">Video</text>
<polyline fill="none" stroke="black" points="357.5,-746 488.5,-746 "/>
<text text-anchor="start" x="365.5" y="-730.8" font-family="Times,serif" font-size="14.00">id :integer</text>
<text text-anchor="start" x="365.5" y="-715.8" font-family="Times,serif" font-size="14.00">titulo :string</text>
<text text-anchor="start" x="365.5" y="-700.8" font-family="Times,serif" font-size="14.00">url :string</text>
<text text-anchor="start" x="365.5" y="-685.8" font-family="Times,serif" font-size="14.00">descripcion :text</text>
<text text-anchor="start" x="365.5" y="-670.8" font-family="Times,serif" font-size="14.00">empresa_id :integer</text>
<text text-anchor="start" x="365.5" y="-655.8" font-family="Times,serif" font-size="14.00">created_at :datetime</text>
<text text-anchor="start" x="365.5" y="-640.8" font-family="Times,serif" font-size="14.00">updated_at :datetime</text>
</g>
<!-- Video&#45;&gt;Video -->
<g id="edge6" class="edge"><title>Video&#45;&gt;Video</title>
<path fill="none" stroke="#f51c63" d="M495.378,-733.387C501.902,-726.628 506,-715.832 506,-701 506,-687.076 502.388,-676.709 496.548,-669.9"/>
<ellipse fill="none" stroke="#f51c63" cx="491.929" cy="-736.028" rx="4.00002" ry="4.00002"/>
<polygon fill="#f51c63" stroke="#f51c63" points="496.502,-669.861 491.597,-660.053 492.627,-666.701 488.753,-663.54 488.753,-663.54 488.753,-663.54 492.627,-666.701 485.908,-667.027 496.502,-669.861 496.502,-669.861"/>
</g>
<!-- GaleriaPrepMate -->
<g id="node11" class="node"><title>GaleriaPrepMate</title>
<path fill="none" stroke="black" d="M703.5,-392.5C703.5,-392.5 850.5,-392.5 850.5,-392.5 856.5,-392.5 862.5,-398.5 862.5,-404.5 862.5,-404.5 862.5,-561.5 862.5,-561.5 862.5,-567.5 856.5,-573.5 850.5,-573.5 850.5,-573.5 703.5,-573.5 703.5,-573.5 697.5,-573.5 691.5,-567.5 691.5,-561.5 691.5,-561.5 691.5,-404.5 691.5,-404.5 691.5,-398.5 697.5,-392.5 703.5,-392.5"/>
<text text-anchor="middle" x="777" y="-558.3" font-family="Times,serif" font-size="14.00">GaleriaPrepMate</text>
<polyline fill="none" stroke="black" points="691.5,-550.5 862.5,-550.5 "/>
<text text-anchor="start" x="699.5" y="-535.3" font-family="Times,serif" font-size="14.00">id :integer</text>
<text text-anchor="start" x="699.5" y="-520.3" font-family="Times,serif" font-size="14.00">título :string</text>
<text text-anchor="start" x="699.5" y="-505.3" font-family="Times,serif" font-size="14.00">descrición :text</text>
<text text-anchor="start" x="699.5" y="-490.3" font-family="Times,serif" font-size="14.00">producto_id :integer</text>
<text text-anchor="start" x="699.5" y="-475.3" font-family="Times,serif" font-size="14.00">created_at :datetime</text>
<text text-anchor="start" x="699.5" y="-460.3" font-family="Times,serif" font-size="14.00">updated_at :datetime</text>
<text text-anchor="start" x="699.5" y="-445.3" font-family="Times,serif" font-size="14.00">image_file_name :string</text>
<text text-anchor="start" x="699.5" y="-430.3" font-family="Times,serif" font-size="14.00">image_content_type :string</text>
<text text-anchor="start" x="699.5" y="-415.3" font-family="Times,serif" font-size="14.00">image_file_size :integer</text>
<text text-anchor="start" x="699.5" y="-400.3" font-family="Times,serif" font-size="14.00">image_updated_at :datetime</text>
</g>
<!-- Empresa -->
<g id="node12" class="node"><title>Empresa</title>
<path fill="none" stroke="black" d="M453.5,-873.5C453.5,-873.5 560.5,-873.5 560.5,-873.5 566.5,-873.5 572.5,-879.5 572.5,-885.5 572.5,-885.5 572.5,-1072.5 572.5,-1072.5 572.5,-1078.5 566.5,-1084.5 560.5,-1084.5 560.5,-1084.5 453.5,-1084.5 453.5,-1084.5 447.5,-1084.5 441.5,-1078.5 441.5,-1072.5 441.5,-1072.5 441.5,-885.5 441.5,-885.5 441.5,-879.5 447.5,-873.5 453.5,-873.5"/>
<text text-anchor="middle" x="507" y="-1069.3" font-family="Times,serif" font-size="14.00">Empresa</text>
<polyline fill="none" stroke="black" points="441.5,-1061.5 572.5,-1061.5 "/>
<text text-anchor="start" x="449.5" y="-1046.3" font-family="Times,serif" font-size="14.00">id :integer</text>
<text text-anchor="start" x="449.5" y="-1031.3" font-family="Times,serif" font-size="14.00">nombre :string</text>
<text text-anchor="start" x="449.5" y="-1016.3" font-family="Times,serif" font-size="14.00">actividad :string</text>
<text text-anchor="start" x="449.5" y="-1001.3" font-family="Times,serif" font-size="14.00">país :string</text>
<text text-anchor="start" x="449.5" y="-986.3" font-family="Times,serif" font-size="14.00">provincia :string</text>
<text text-anchor="start" x="449.5" y="-971.3" font-family="Times,serif" font-size="14.00">localidad :string</text>
<text text-anchor="start" x="449.5" y="-956.3" font-family="Times,serif" font-size="14.00">dirección :string</text>
<text text-anchor="start" x="449.5" y="-941.3" font-family="Times,serif" font-size="14.00">telefono :string</text>
<text text-anchor="start" x="449.5" y="-926.3" font-family="Times,serif" font-size="14.00">misión :text</text>
<text text-anchor="start" x="449.5" y="-911.3" font-family="Times,serif" font-size="14.00">visión :text</text>
<text text-anchor="start" x="449.5" y="-896.3" font-family="Times,serif" font-size="14.00">created_at :datetime</text>
<text text-anchor="start" x="449.5" y="-881.3" font-family="Times,serif" font-size="14.00">updated_at :datetime</text>
</g>
<!-- Empresa&#45;&gt;NoticiaEmpresa -->
<g id="edge8" class="edge"><title>Empresa&#45;&gt;NoticiaEmpresa</title>
<path fill="none" stroke="#4f1003" d="M466.968,-866.507C457.504,-851.724 445.976,-838.188 432,-828 346.97,-766.017 292.494,-838.29 198,-792 197.901,-791.952 197.802,-791.903 197.704,-791.854"/>
<ellipse fill="none" stroke="#4f1003" cx="469.085" cy="-869.967" rx="4.00002" ry="4.00002"/>
<polygon fill="#4f1003" stroke="#4f1003" points="197.422,-791.702 190.763,-782.989 193.023,-789.325 188.624,-786.948 188.624,-786.948 188.624,-786.948 193.023,-789.325 186.485,-790.907 197.422,-791.702 197.422,-791.702"/>
</g>
<!-- Empresa&#45;&gt;InformacionEmpresa -->
<g id="edge7" class="edge"><title>Empresa&#45;&gt;InformacionEmpresa</title>
<path fill="none" stroke="#85ed26" d="M462.649,-866.44C453.915,-852.381 443.742,-839.072 432,-828 402.448,-800.135 380.568,-816.272 348,-792 336.472,-783.408 325.592,-772.7 315.881,-761.698"/>
<ellipse fill="none" stroke="#85ed26" cx="464.763" cy="-869.965" rx="4.00002" ry="4.00002"/>
<polygon fill="#85ed26" stroke="#85ed26" points="315.848,-761.659 312.773,-751.133 312.6,-757.858 309.352,-754.057 309.352,-754.057 309.352,-754.057 312.6,-757.858 305.931,-756.98 315.848,-761.659 315.848,-761.659"/>
</g>
<!-- Empresa&#45;&gt;Video -->
<g id="edge11" class="edge"><title>Empresa&#45;&gt;Video</title>
<path fill="none" stroke="#9d2aa0" d="M472.743,-865.441C463.88,-836.322 454.541,-805.636 446.379,-778.817"/>
<ellipse fill="none" stroke="#9d2aa0" cx="473.959" cy="-869.436" rx="4.00001" ry="4.00001"/>
<polygon fill="#9d2aa0" stroke="#9d2aa0" points="446.34,-778.688 447.733,-767.811 444.884,-773.904 443.428,-769.121 443.428,-769.121 443.428,-769.121 444.884,-773.904 439.123,-770.431 446.34,-778.688 446.34,-778.688"/>
</g>
<!-- UbicacionGeo -->
<g id="node15" class="node"><title>UbicacionGeo</title>
<path fill="none" stroke="black" d="M536.5,-618C536.5,-618 643.5,-618 643.5,-618 649.5,-618 655.5,-624 655.5,-630 655.5,-630 655.5,-772 655.5,-772 655.5,-778 649.5,-784 643.5,-784 643.5,-784 536.5,-784 536.5,-784 530.5,-784 524.5,-778 524.5,-772 524.5,-772 524.5,-630 524.5,-630 524.5,-624 530.5,-618 536.5,-618"/>
<text text-anchor="middle" x="590" y="-768.8" font-family="Times,serif" font-size="14.00">UbicacionGeo</text>
<polyline fill="none" stroke="black" points="524.5,-761 655.5,-761 "/>
<text text-anchor="start" x="532.5" y="-745.8" font-family="Times,serif" font-size="14.00">id :integer</text>
<text text-anchor="start" x="532.5" y="-730.8" font-family="Times,serif" font-size="14.00">latitude :float</text>
<text text-anchor="start" x="532.5" y="-715.8" font-family="Times,serif" font-size="14.00">longitude :float</text>
<text text-anchor="start" x="532.5" y="-700.8" font-family="Times,serif" font-size="14.00">address :string</text>
<text text-anchor="start" x="532.5" y="-685.8" font-family="Times,serif" font-size="14.00">description :text</text>
<text text-anchor="start" x="532.5" y="-670.8" font-family="Times,serif" font-size="14.00">title :string</text>
<text text-anchor="start" x="532.5" y="-655.8" font-family="Times,serif" font-size="14.00">empresa_id :integer</text>
<text text-anchor="start" x="532.5" y="-640.8" font-family="Times,serif" font-size="14.00">created_at :datetime</text>
<text text-anchor="start" x="532.5" y="-625.8" font-family="Times,serif" font-size="14.00">updated_at :datetime</text>
</g>
<!-- Empresa&#45;&gt;UbicacionGeo -->
<g id="edge10" class="edge"><title>Empresa&#45;&gt;UbicacionGeo</title>
<path fill="none" stroke="#0feb8e" d="M540.897,-865.282C548.027,-841.573 555.467,-816.833 562.336,-793.992"/>
<ellipse fill="none" stroke="#0feb8e" cx="539.649" cy="-869.432" rx="4.00001" ry="4.00001"/>
<polygon fill="#0feb8e" stroke="#0feb8e" points="562.362,-793.904 569.551,-785.624 563.802,-789.116 565.242,-784.328 565.242,-784.328 565.242,-784.328 563.802,-789.116 560.933,-783.032 562.362,-793.904 562.362,-793.904"/>
</g>
<!-- Producto -->
<g id="node17" class="node"><title>Producto</title>
<path fill="none" stroke="black" d="M685.5,-648C685.5,-648 792.5,-648 792.5,-648 798.5,-648 804.5,-654 804.5,-660 804.5,-660 804.5,-742 804.5,-742 804.5,-748 798.5,-754 792.5,-754 792.5,-754 685.5,-754 685.5,-754 679.5,-754 673.5,-748 673.5,-742 673.5,-742 673.5,-660 673.5,-660 673.5,-654 679.5,-648 685.5,-648"/>
<text text-anchor="middle" x="739" y="-738.8" font-family="Times,serif" font-size="14.00">Producto</text>
<polyline fill="none" stroke="black" points="673.5,-731 804.5,-731 "/>
<text text-anchor="start" x="681.5" y="-715.8" font-family="Times,serif" font-size="14.00">id :integer</text>
<text text-anchor="start" x="681.5" y="-700.8" font-family="Times,serif" font-size="14.00">titulo :string</text>
<text text-anchor="start" x="681.5" y="-685.8" font-family="Times,serif" font-size="14.00">empresa_id :integer</text>
<text text-anchor="start" x="681.5" y="-670.8" font-family="Times,serif" font-size="14.00">created_at :datetime</text>
<text text-anchor="start" x="681.5" y="-655.8" font-family="Times,serif" font-size="14.00">updated_at :datetime</text>
</g>
<!-- Empresa&#45;&gt;Producto -->
<g id="edge9" class="edge"><title>Empresa&#45;&gt;Producto</title>
<path fill="none" stroke="#530478" d="M578.136,-893.952C605.077,-862.061 635.997,-825.389 664,-792 672.044,-782.409 680.556,-772.227 688.844,-762.294"/>
<ellipse fill="none" stroke="#530478" cx="575.384" cy="-897.209" rx="4.00002" ry="4.00002"/>
<polygon fill="#530478" stroke="#530478" points="689.026,-762.076 698.887,-757.278 692.229,-758.236 695.431,-754.396 695.431,-754.396 695.431,-754.396 692.229,-758.236 691.975,-751.514 689.026,-762.076 689.026,-762.076"/>
</g>
<!-- ConsultaCliente -->
<g id="node19" class="node"><title>ConsultaCliente</title>
<path fill="none" stroke="black" d="M834.5,-625.5C834.5,-625.5 941.5,-625.5 941.5,-625.5 947.5,-625.5 953.5,-631.5 953.5,-637.5 953.5,-637.5 953.5,-764.5 953.5,-764.5 953.5,-770.5 947.5,-776.5 941.5,-776.5 941.5,-776.5 834.5,-776.5 834.5,-776.5 828.5,-776.5 822.5,-770.5 822.5,-764.5 822.5,-764.5 822.5,-637.5 822.5,-637.5 822.5,-631.5 828.5,-625.5 834.5,-625.5"/>
<text text-anchor="middle" x="888" y="-761.3" font-family="Times,serif" font-size="14.00">ConsultaCliente</text>
<polyline fill="none" stroke="black" points="822.5,-753.5 953.5,-753.5 "/>
<text text-anchor="start" x="830.5" y="-738.3" font-family="Times,serif" font-size="14.00">id :integer</text>
<text text-anchor="start" x="830.5" y="-723.3" font-family="Times,serif" font-size="14.00">nombre :string</text>
<text text-anchor="start" x="830.5" y="-708.3" font-family="Times,serif" font-size="14.00">correo :string</text>
<text text-anchor="start" x="830.5" y="-693.3" font-family="Times,serif" font-size="14.00">telefono :string</text>
<text text-anchor="start" x="830.5" y="-678.3" font-family="Times,serif" font-size="14.00">descripcion :string</text>
<text text-anchor="start" x="830.5" y="-663.3" font-family="Times,serif" font-size="14.00">empresa_id :integer</text>
<text text-anchor="start" x="830.5" y="-648.3" font-family="Times,serif" font-size="14.00">created_at :datetime</text>
<text text-anchor="start" x="830.5" y="-633.3" font-family="Times,serif" font-size="14.00">updated_at :datetime</text>
</g>
<!-- Empresa&#45;&gt;ConsultaCliente -->
<g id="edge12" class="edge"><title>Empresa&#45;&gt;ConsultaCliente</title>
<path fill="none" stroke="#0073f4" d="M580.009,-942.432C644.985,-908.807 740.661,-854.318 813,-792 816.034,-789.386 819.045,-786.643 822.018,-783.804"/>
<ellipse fill="none" stroke="#0073f4" cx="576.193" cy="-944.395" rx="4.00002" ry="4.00002"/>
<polygon fill="#0073f4" stroke="#0073f4" points="822.216,-783.608 832.489,-779.771 825.77,-780.09 829.323,-776.573 829.323,-776.573 829.323,-776.573 825.77,-780.09 826.158,-773.375 822.216,-783.608 822.216,-783.608"/>
</g>
<!-- GaleriaProceso -->
<g id="node14" class="node"><title>GaleriaProceso</title>
<path fill="none" stroke="black" d="M892.5,-392.5C892.5,-392.5 1039.5,-392.5 1039.5,-392.5 1045.5,-392.5 1051.5,-398.5 1051.5,-404.5 1051.5,-404.5 1051.5,-561.5 1051.5,-561.5 1051.5,-567.5 1045.5,-573.5 1039.5,-573.5 1039.5,-573.5 892.5,-573.5 892.5,-573.5 886.5,-573.5 880.5,-567.5 880.5,-561.5 880.5,-561.5 880.5,-404.5 880.5,-404.5 880.5,-398.5 886.5,-392.5 892.5,-392.5"/>
<text text-anchor="middle" x="966" y="-558.3" font-family="Times,serif" font-size="14.00">GaleriaProceso</text>
<polyline fill="none" stroke="black" points="880.5,-550.5 1051.5,-550.5 "/>
<text text-anchor="start" x="888.5" y="-535.3" font-family="Times,serif" font-size="14.00">id :integer</text>
<text text-anchor="start" x="888.5" y="-520.3" font-family="Times,serif" font-size="14.00">título :string</text>
<text text-anchor="start" x="888.5" y="-505.3" font-family="Times,serif" font-size="14.00">descrición :text</text>
<text text-anchor="start" x="888.5" y="-490.3" font-family="Times,serif" font-size="14.00">producto_id :integer</text>
<text text-anchor="start" x="888.5" y="-475.3" font-family="Times,serif" font-size="14.00">created_at :datetime</text>
<text text-anchor="start" x="888.5" y="-460.3" font-family="Times,serif" font-size="14.00">updated_at :datetime</text>
<text text-anchor="start" x="888.5" y="-445.3" font-family="Times,serif" font-size="14.00">image_file_name :string</text>
<text text-anchor="start" x="888.5" y="-430.3" font-family="Times,serif" font-size="14.00">image_content_type :string</text>
<text text-anchor="start" x="888.5" y="-415.3" font-family="Times,serif" font-size="14.00">image_file_size :integer</text>
<text text-anchor="start" x="888.5" y="-400.3" font-family="Times,serif" font-size="14.00">image_updated_at :datetime</text>
</g>
<!-- Producto&#45;&gt;ItemProducto -->
<g id="edge13" class="edge"><title>Producto&#45;&gt;ItemProducto</title>
<path fill="none" stroke="#09439c" d="M699.095,-641.401C688.82,-629.638 676.96,-618.346 664,-610 615.813,-578.969 588.395,-601.251 533.564,-573.715"/>
<ellipse fill="none" stroke="#09439c" cx="701.739" cy="-644.528" rx="4.00002" ry="4.00002"/>
<polygon fill="#09439c" stroke="#09439c" points="533.329,-573.588 526.653,-564.888 528.925,-571.22 524.522,-568.852 524.522,-568.852 524.522,-568.852 528.925,-571.22 522.39,-572.815 533.329,-573.588 533.329,-573.588"/>
</g>
<!-- Producto&#45;&gt;PrepararMate -->
<g id="edge16" class="edge"><title>Producto&#45;&gt;PrepararMate</title>
<path fill="none" stroke="#05f186" d="M703.124,-640.845C686.501,-613.437 666.653,-580.711 649.399,-552.261"/>
<ellipse fill="none" stroke="#05f186" cx="705.381" cy="-644.568" rx="4.00002" ry="4.00002"/>
<polygon fill="#05f186" stroke="#05f186" points="649.319,-552.129 647.981,-541.246 646.726,-547.854 644.134,-543.579 644.134,-543.579 644.134,-543.579 646.726,-547.854 640.286,-545.913 649.319,-552.129 649.319,-552.129"/>
</g>
<!-- Producto&#45;&gt;GaleriaPrepMate -->
<g id="edge17" class="edge"><title>Producto&#45;&gt;GaleriaPrepMate</title>
<path fill="none" stroke="#c2cef8" d="M749.563,-639.959C752.644,-622.442 756.098,-602.813 759.487,-583.545"/>
<ellipse fill="none" stroke="#c2cef8" cx="748.843" cy="-644.048" rx="4.00001" ry="4.00001"/>
<polygon fill="#c2cef8" stroke="#c2cef8" points="759.519,-583.364 765.684,-574.295 760.386,-578.44 761.252,-573.515 761.252,-573.515 761.252,-573.515 760.386,-578.44 756.82,-572.736 759.519,-583.364 759.519,-583.364"/>
</g>
<!-- Producto&#45;&gt;GaleriaProceso -->
<g id="edge15" class="edge"><title>Producto&#45;&gt;GaleriaProceso</title>
<path fill="none" stroke="#f7518c" d="M782.93,-641.782C792.573,-630.641 803.159,-619.502 814,-610 836.532,-590.25 847.345,-592.391 871,-574 871.49,-573.619 871.981,-573.235 872.472,-572.85"/>
<ellipse fill="none" stroke="#f7518c" cx="780.266" cy="-644.915" rx="4.00002" ry="4.00002"/>
<polygon fill="#f7518c" stroke="#f7518c" points="872.65,-572.707 883.264,-569.949 876.547,-569.574 880.444,-566.442 880.444,-566.442 880.444,-566.442 876.547,-569.574 877.625,-562.934 872.65,-572.707 872.65,-572.707"/>
</g>
<!-- PropGeneral -->
<g id="node22" class="node"><title>PropGeneral</title>
<path fill="none" stroke="black" d="M1081.5,-430C1081.5,-430 1188.5,-430 1188.5,-430 1194.5,-430 1200.5,-436 1200.5,-442 1200.5,-442 1200.5,-524 1200.5,-524 1200.5,-530 1194.5,-536 1188.5,-536 1188.5,-536 1081.5,-536 1081.5,-536 1075.5,-536 1069.5,-530 1069.5,-524 1069.5,-524 1069.5,-442 1069.5,-442 1069.5,-436 1075.5,-430 1081.5,-430"/>
<text text-anchor="middle" x="1135" y="-520.8" font-family="Times,serif" font-size="14.00">PropGeneral</text>
<polyline fill="none" stroke="black" points="1069.5,-513 1200.5,-513 "/>
<text text-anchor="start" x="1077.5" y="-497.8" font-family="Times,serif" font-size="14.00">id :integer</text>
<text text-anchor="start" x="1077.5" y="-482.8" font-family="Times,serif" font-size="14.00">descripción :text</text>
<text text-anchor="start" x="1077.5" y="-467.8" font-family="Times,serif" font-size="14.00">producto_id :integer</text>
<text text-anchor="start" x="1077.5" y="-452.8" font-family="Times,serif" font-size="14.00">created_at :datetime</text>
<text text-anchor="start" x="1077.5" y="-437.8" font-family="Times,serif" font-size="14.00">updated_at :datetime</text>
</g>
<!-- Producto&#45;&gt;PropGeneral -->
<g id="edge14" class="edge"><title>Producto&#45;&gt;PropGeneral</title>
<path fill="none" stroke="#6d324f" d="M777.142,-641.38C787.682,-629.239 800.099,-617.788 814,-610 910.399,-555.992 963.601,-628.008 1060,-574 1073.39,-566.497 1085.41,-555.597 1095.69,-543.954"/>
<ellipse fill="none" stroke="#6d324f" cx="774.367" cy="-644.706" rx="4.00002" ry="4.00002"/>
<polygon fill="#6d324f" stroke="#6d324f" points="1095.76,-543.874 1105.64,-539.121 1098.98,-540.049 1102.2,-536.223 1102.2,-536.223 1102.2,-536.223 1098.98,-540.049 1098.75,-533.326 1095.76,-543.874 1095.76,-543.874"/>
</g>
<!-- PropEspecifica -->
<g id="node18" class="node"><title>PropEspecifica</title>
<path fill="none" stroke="black" d="M659.5,-0.5C659.5,-0.5 766.5,-0.5 766.5,-0.5 772.5,-0.5 778.5,-6.5 778.5,-12.5 778.5,-12.5 778.5,-109.5 778.5,-109.5 778.5,-115.5 772.5,-121.5 766.5,-121.5 766.5,-121.5 659.5,-121.5 659.5,-121.5 653.5,-121.5 647.5,-115.5 647.5,-109.5 647.5,-109.5 647.5,-12.5 647.5,-12.5 647.5,-6.5 653.5,-0.5 659.5,-0.5"/>
<text text-anchor="middle" x="713" y="-106.3" font-family="Times,serif" font-size="14.00">PropEspecifica</text>
<polyline fill="none" stroke="black" points="647.5,-98.5 778.5,-98.5 "/>
<text text-anchor="start" x="655.5" y="-83.3" font-family="Times,serif" font-size="14.00">id :integer</text>
<text text-anchor="start" x="655.5" y="-68.3" font-family="Times,serif" font-size="14.00">item :string</text>
<text text-anchor="start" x="655.5" y="-53.3" font-family="Times,serif" font-size="14.00">descripción :text</text>
<text text-anchor="start" x="655.5" y="-38.3" font-family="Times,serif" font-size="14.00">detalle_id :integer</text>
<text text-anchor="start" x="655.5" y="-23.3" font-family="Times,serif" font-size="14.00">created_at :datetime</text>
<text text-anchor="start" x="655.5" y="-8.3" font-family="Times,serif" font-size="14.00">updated_at :datetime</text>
</g>
<!-- ConsultaCliente&#45;&gt;ConsultaCliente -->
<g id="edge18" class="edge"><title>ConsultaCliente&#45;&gt;ConsultaCliente</title>
<path fill="none" stroke="#80c9a6" d="M960.378,-733.387C966.902,-726.628 971,-715.832 971,-701 971,-687.076 967.388,-676.709 961.548,-669.9"/>
<ellipse fill="none" stroke="#80c9a6" cx="956.929" cy="-736.028" rx="4.00002" ry="4.00002"/>
<polygon fill="#80c9a6" stroke="#80c9a6" points="961.502,-669.861 956.597,-660.053 957.627,-666.701 953.753,-663.54 953.753,-663.54 953.753,-663.54 957.627,-666.701 950.908,-667.027 961.502,-669.861 961.502,-669.861"/>
</g>
<!-- Detalle&#45;&gt;PropEspecifica -->
<g id="edge19" class="edge"><title>Detalle&#45;&gt;PropEspecifica</title>
<path fill="none" stroke="#5ca483" d="M713,-150.708C713,-144.325 713,-137.99 713,-131.815"/>
<ellipse fill="none" stroke="#5ca483" cx="713" cy="-154.716" rx="4" ry="4"/>
<polygon fill="#5ca483" stroke="#5ca483" points="713,-131.594 717.5,-121.594 713,-126.594 713,-121.594 713,-121.594 713,-121.594 713,-126.594 708.5,-121.594 713,-131.594 713,-131.594"/>
</g>
<!-- PropGeneralItem -->
<g id="node21" class="node"><title>PropGeneralItem</title>
<path fill="none" stroke="black" d="M1161,-196.5C1161,-196.5 1287,-196.5 1287,-196.5 1293,-196.5 1299,-202.5 1299,-208.5 1299,-208.5 1299,-305.5 1299,-305.5 1299,-311.5 1293,-317.5 1287,-317.5 1287,-317.5 1161,-317.5 1161,-317.5 1155,-317.5 1149,-311.5 1149,-305.5 1149,-305.5 1149,-208.5 1149,-208.5 1149,-202.5 1155,-196.5 1161,-196.5"/>
<text text-anchor="middle" x="1224" y="-302.3" font-family="Times,serif" font-size="14.00">PropGeneralItem</text>
<polyline fill="none" stroke="black" points="1149,-294.5 1299,-294.5 "/>
<text text-anchor="start" x="1157" y="-279.3" font-family="Times,serif" font-size="14.00">id :integer</text>
<text text-anchor="start" x="1157" y="-264.3" font-family="Times,serif" font-size="14.00">item :string</text>
<text text-anchor="start" x="1157" y="-249.3" font-family="Times,serif" font-size="14.00">descripción :text</text>
<text text-anchor="start" x="1157" y="-234.3" font-family="Times,serif" font-size="14.00">prop_general_id :integer</text>
<text text-anchor="start" x="1157" y="-219.3" font-family="Times,serif" font-size="14.00">created_at :datetime</text>
<text text-anchor="start" x="1157" y="-204.3" font-family="Times,serif" font-size="14.00">updated_at :datetime</text>
</g>
<!-- PropGeneral&#45;&gt;GaleriaProp -->
<g id="edge21" class="edge"><title>PropGeneral&#45;&gt;GaleriaProp</title>
<path fill="none" stroke="#414967" d="M1110.96,-422.174C1101.1,-397.624 1089.5,-368.768 1078.81,-342.151"/>
<ellipse fill="none" stroke="#414967" cx="1112.52" cy="-426.053" rx="4.00001" ry="4.00001"/>
<polygon fill="#414967" stroke="#414967" points="1078.8,-342.12 1079.25,-331.163 1076.93,-337.481 1075.07,-332.841 1075.07,-332.841 1075.07,-332.841 1076.93,-337.481 1070.89,-334.519 1078.8,-342.12 1078.8,-342.12"/>
</g>
<!-- PropGeneral&#45;&gt;PropGeneralItem -->
<g id="edge20" class="edge"><title>PropGeneral&#45;&gt;PropGeneralItem</title>
<path fill="none" stroke="#d8b162" d="M1158.78,-422.151C1170.36,-393.016 1184.34,-357.821 1196.38,-327.504"/>
<ellipse fill="none" stroke="#d8b162" cx="1157.23" cy="-426.047" rx="4.00001" ry="4.00001"/>
<polygon fill="#d8b162" stroke="#d8b162" points="1196.53,-327.139 1204.4,-319.507 1198.38,-322.492 1200.22,-317.846 1200.22,-317.846 1200.22,-317.846 1198.38,-322.492 1196.04,-316.184 1196.53,-327.139 1196.53,-327.139"/>
</g>
</g>
</svg>
