<?xml version="1.0" encoding="UTF-8" standalone="no"?>
<!DOCTYPE svg PUBLIC "-//W3C//DTD SVG 1.1//EN"
 "http://www.w3.org/Graphics/SVG/1.1/DTD/svg11.dtd">
<!-- Generated by graphviz version 2.36.0 (20140111.2315)
 -->
<!-- Title: models_diagram Pages: 1 -->
<svg width="1019pt" height="374pt"
 viewBox="0.00 0.00 1019.00 374.00" xmlns="http://www.w3.org/2000/svg" xmlns:xlink="http://www.w3.org/1999/xlink">
<g id="graph0" class="graph" transform="scale(1 1) rotate(0) translate(4 370)">
<title>models_diagram</title>
<polygon fill="white" stroke="none" points="-4,4 -4,-370 1015,-370 1015,4 -4,4"/>
<!-- _diagram_info -->
<g id="node1" class="node"><title>_diagram_info</title>
<text text-anchor="start" x="289" y="-351.6" font-family="Times,serif" font-size="13.00">Models diagram</text>
<text text-anchor="start" x="289" y="-337.6" font-family="Times,serif" font-size="13.00">Date: Mar 29 2015 &#45; 16:42</text>
<text text-anchor="start" x="289" y="-323.6" font-family="Times,serif" font-size="13.00">Migration version: 20150326224716</text>
<text text-anchor="start" x="289" y="-309.6" font-family="Times,serif" font-size="13.00">Generated by RailRoady 1.3.0</text>
<text text-anchor="start" x="289" y="-295.6" font-family="Times,serif" font-size="13.00">http://railroady.prestonlee.com</text>
</g>
<!-- Audio -->
<g id="node2" class="node"><title>Audio</title>
<ellipse fill="none" stroke="black" cx="32" cy="-234" rx="32.2457" ry="18"/>
<text text-anchor="middle" x="32" y="-230.3" font-family="Times,serif" font-size="14.00">Audio</text>
</g>
<!-- NoticiaEmpresa -->
<g id="node3" class="node"><title>NoticiaEmpresa</title>
<ellipse fill="none" stroke="black" cx="377" cy="-162" rx="67.3907" ry="18"/>
<text text-anchor="middle" x="377" y="-158.3" font-family="Times,serif" font-size="14.00">NoticiaEmpresa</text>
</g>
<!-- ItemDeInfo -->
<g id="node4" class="node"><title>ItemDeInfo</title>
<ellipse fill="none" stroke="black" cx="149" cy="-90" rx="51.4931" ry="18"/>
<text text-anchor="middle" x="149" y="-86.3" font-family="Times,serif" font-size="14.00">ItemDeInfo</text>
</g>
<!-- ItemProducto -->
<g id="node5" class="node"><title>ItemProducto</title>
<ellipse fill="none" stroke="black" cx="804" cy="-90" rx="59.2173" ry="18"/>
<text text-anchor="middle" x="804" y="-86.3" font-family="Times,serif" font-size="14.00">ItemProducto</text>
</g>
<!-- VideosProducto -->
<g id="node10" class="node"><title>VideosProducto</title>
<ellipse fill="none" stroke="black" cx="727" cy="-18" rx="67.3907" ry="18"/>
<text text-anchor="middle" x="727" y="-14.3" font-family="Times,serif" font-size="14.00">VideosProducto</text>
</g>
<!-- ItemProducto&#45;&gt;VideosProducto -->
<g id="edge5" class="edge"><title>ItemProducto&#45;&gt;VideosProducto</title>
<path fill="none" stroke="#94b15d" d="M780.088,-67.2614C771.335,-59.3043 761.401,-50.274 752.514,-42.1944"/>
<ellipse fill="none" stroke="#94b15d" cx="783.181" cy="-70.0739" rx="4.00002" ry="4.00002"/>
<polygon fill="#94b15d" stroke="#94b15d" points="752.428,-42.1166 748.056,-32.06 748.728,-38.7532 745.029,-35.3898 745.029,-35.3898 745.029,-35.3898 748.728,-38.7532 742.002,-38.7195 752.428,-42.1166 752.428,-42.1166"/>
</g>
<!-- GaleriaImagene -->
<g id="node12" class="node"><title>GaleriaImagene</title>
<ellipse fill="none" stroke="black" cx="886" cy="-18" rx="67.3907" ry="18"/>
<text text-anchor="middle" x="886" y="-14.3" font-family="Times,serif" font-size="14.00">GaleriaImagene</text>
</g>
<!-- ItemProducto&#45;&gt;GaleriaImagene -->
<g id="edge4" class="edge"><title>ItemProducto&#45;&gt;GaleriaImagene</title>
<path fill="none" stroke="#92c51d" d="M829.131,-67.5468C838.602,-59.4613 849.41,-50.2354 859.042,-42.0132"/>
<ellipse fill="none" stroke="#92c51d" cx="826.061" cy="-70.1676" rx="4.00002" ry="4.00002"/>
<polygon fill="#92c51d" stroke="#92c51d" points="859.195,-41.8824 869.722,-38.8123 862.998,-38.6361 866.801,-35.3898 866.801,-35.3898 866.801,-35.3898 862.998,-38.6361 863.879,-31.9672 859.195,-41.8824 859.195,-41.8824"/>
</g>
<!-- InformacionEmpresa -->
<g id="node6" class="node"><title>InformacionEmpresa</title>
<ellipse fill="none" stroke="black" cx="206" cy="-162" rx="85.19" ry="18"/>
<text text-anchor="middle" x="206" y="-158.3" font-family="Times,serif" font-size="14.00">InformacionEmpresa</text>
</g>
<!-- InformacionEmpresa&#45;&gt;ItemDeInfo -->
<g id="edge7" class="edge"><title>InformacionEmpresa&#45;&gt;ItemDeInfo</title>
<path fill="none" stroke="#c3ea1d" d="M187.143,-137.843C181.396,-130.784 175.055,-122.997 169.221,-115.833"/>
<ellipse fill="none" stroke="#c3ea1d" cx="189.676" cy="-140.953" rx="4.00002" ry="4.00002"/>
<polygon fill="#c3ea1d" stroke="#c3ea1d" points="168.985,-115.543 166.161,-104.948 165.828,-111.666 162.671,-107.789 162.671,-107.789 162.671,-107.789 165.828,-111.666 159.182,-110.63 168.985,-115.543 168.985,-115.543"/>
</g>
<!-- Video -->
<g id="node7" class="node"><title>Video</title>
<ellipse fill="none" stroke="black" cx="495" cy="-162" rx="32.2457" ry="18"/>
<text text-anchor="middle" x="495" y="-158.3" font-family="Times,serif" font-size="14.00">Video</text>
</g>
<!-- Video&#45;&gt;Video -->
<g id="edge9" class="edge"><title>Video&#45;&gt;Video</title>
<path fill="none" stroke="#b95b1a" d="M526.372,-175.5C536.732,-175.465 545,-170.965 545,-162 545,-153.562 537.676,-149.08 528.177,-148.553"/>
<ellipse fill="none" stroke="#b95b1a" cx="522.124" cy="-175.064" rx="4" ry="4"/>
<polygon fill="#b95b1a" stroke="#b95b1a" points="528.114,-148.558 517.791,-144.858 523.129,-148.951 518.145,-149.344 518.145,-149.344 518.145,-149.344 523.129,-148.951 518.498,-153.83 528.114,-148.558 528.114,-148.558"/>
</g>
<!-- Empresa -->
<g id="node8" class="node"><title>Empresa</title>
<ellipse fill="none" stroke="black" cx="498" cy="-234" rx="42.3701" ry="18"/>
<text text-anchor="middle" x="498" y="-230.3" font-family="Times,serif" font-size="14.00">Empresa</text>
</g>
<!-- Empresa&#45;&gt;NoticiaEmpresa -->
<g id="edge12" class="edge"><title>Empresa&#45;&gt;NoticiaEmpresa</title>
<path fill="none" stroke="#a23659" d="M466.951,-215.038C450.446,-205.489 430.073,-193.703 412.891,-183.764"/>
<ellipse fill="none" stroke="#a23659" cx="470.632" cy="-217.167" rx="4.00002" ry="4.00002"/>
<polygon fill="#a23659" stroke="#a23659" points="412.891,-183.763 406.488,-174.861 408.563,-181.26 404.235,-178.756 404.235,-178.756 404.235,-178.756 408.563,-181.26 401.981,-182.651 412.891,-183.763 412.891,-183.763"/>
</g>
<!-- Empresa&#45;&gt;InformacionEmpresa -->
<g id="edge11" class="edge"><title>Empresa&#45;&gt;InformacionEmpresa</title>
<path fill="none" stroke="#960b69" d="M454.189,-222.497C405.335,-210.786 325.862,-191.734 270.037,-178.351"/>
<ellipse fill="none" stroke="#960b69" cx="458.305" cy="-223.484" rx="4.00001" ry="4.00001"/>
<polygon fill="#960b69" stroke="#960b69" points="269.974,-178.336 261.298,-171.629 265.112,-177.171 260.249,-176.005 260.249,-176.005 260.249,-176.005 265.112,-177.171 259.2,-180.381 269.974,-178.336 269.974,-178.336"/>
</g>
<!-- Empresa&#45;&gt;Video -->
<g id="edge15" class="edge"><title>Empresa&#45;&gt;Video</title>
<path fill="none" stroke="#abba9e" d="M496.913,-207.64C496.674,-202.063 496.42,-196.132 496.178,-190.476"/>
<ellipse fill="none" stroke="#abba9e" cx="497.087" cy="-211.7" rx="4" ry="4"/>
<polygon fill="#abba9e" stroke="#abba9e" points="496.161,-190.095 500.229,-179.912 495.947,-185.1 495.733,-180.104 495.733,-180.104 495.733,-180.104 495.947,-185.1 491.237,-180.297 496.161,-190.095 496.161,-190.095"/>
</g>
<!-- UbicacionGeo -->
<g id="node11" class="node"><title>UbicacionGeo</title>
<ellipse fill="none" stroke="black" cx="625" cy="-162" rx="61.6163" ry="18"/>
<text text-anchor="middle" x="625" y="-158.3" font-family="Times,serif" font-size="14.00">UbicacionGeo</text>
</g>
<!-- Empresa&#45;&gt;UbicacionGeo -->
<g id="edge14" class="edge"><title>Empresa&#45;&gt;UbicacionGeo</title>
<path fill="none" stroke="#2395a8" d="M529.843,-215.449C547.567,-205.68 569.712,-193.474 588.178,-183.296"/>
<ellipse fill="none" stroke="#2395a8" cx="526.291" cy="-217.406" rx="4.00002" ry="4.00002"/>
<polygon fill="#2395a8" stroke="#2395a8" points="588.425,-183.159 599.356,-182.273 592.804,-180.746 597.183,-178.332 597.183,-178.332 597.183,-178.332 592.804,-180.746 595.011,-174.391 588.425,-183.159 588.425,-183.159"/>
</g>
<!-- Producto -->
<g id="node13" class="node"><title>Producto</title>
<ellipse fill="none" stroke="black" cx="785" cy="-162" rx="42.3701" ry="18"/>
<text text-anchor="middle" x="785" y="-158.3" font-family="Times,serif" font-size="14.00">Producto</text>
</g>
<!-- Empresa&#45;&gt;Producto -->
<g id="edge13" class="edge"><title>Empresa&#45;&gt;Producto</title>
<path fill="none" stroke="#cdabb5" d="M541.843,-222.307C595.225,-209.287 684.954,-187.401 739.205,-174.17"/>
<ellipse fill="none" stroke="#cdabb5" cx="537.655" cy="-223.328" rx="4.00001" ry="4.00001"/>
<polygon fill="#cdabb5" stroke="#cdabb5" points="739.517,-174.093 750.299,-176.096 744.375,-172.909 749.233,-171.724 749.233,-171.724 749.233,-171.724 744.375,-172.909 748.166,-167.352 739.517,-174.093 739.517,-174.093"/>
</g>
<!-- Company -->
<g id="node9" class="node"><title>Company</title>
<ellipse fill="none" stroke="black" cx="966" cy="-234" rx="45.244" ry="18"/>
<text text-anchor="middle" x="966" y="-230.3" font-family="Times,serif" font-size="14.00">Company</text>
</g>
<!-- Producto&#45;&gt;ItemProducto -->
<g id="edge21" class="edge"><title>Producto&#45;&gt;ItemProducto</title>
<path fill="none" stroke="#629538" d="M791.713,-136.267C793.322,-130.34 795.048,-123.981 796.683,-117.959"/>
<ellipse fill="none" stroke="#629538" cx="790.647" cy="-140.195" rx="4.00001" ry="4.00001"/>
<polygon fill="#629538" stroke="#629538" points="796.691,-117.926 803.654,-109.454 798.001,-113.101 799.311,-108.275 799.311,-108.275 799.311,-108.275 798.001,-113.101 794.968,-107.096 796.691,-117.926 796.691,-117.926"/>
</g>
<!-- ActiveRecord::Base -->
<g id="node14" class="node"><title>ActiveRecord::Base</title>
<ellipse fill="none" stroke="black" cx="594" cy="-327" rx="81.3646" ry="18"/>
<text text-anchor="middle" x="594" y="-323.3" font-family="Times,serif" font-size="14.00">ActiveRecord::Base</text>
</g>
<!-- ActiveRecord::Base&#45;&gt;Audio -->
<g id="edge1" class="edge"><title>ActiveRecord::Base&#45;&gt;Audio</title>
<path fill="none" stroke="black" d="M563.231,-310.329C545.971,-302.267 523.787,-293.088 503,-288 318.87,-242.933 263.027,-293.23 78,-252 71.0194,-250.444 63.6672,-248.079 56.9388,-245.604"/>
</g>
<!-- ActiveRecord::Base&#45;&gt;NoticiaEmpresa -->
<g id="edge2" class="edge"><title>ActiveRecord::Base&#45;&gt;NoticiaEmpresa</title>
<path fill="none" stroke="black" d="M559.414,-310.71C522.058,-293.83 465.415,-267.055 447,-252 421.432,-231.097 399.275,-199.3 387.064,-179.91"/>
</g>
<!-- ActiveRecord::Base&#45;&gt;ItemDeInfo -->
<g id="edge3" class="edge"><title>ActiveRecord::Base&#45;&gt;ItemDeInfo</title>
<path fill="none" stroke="black" d="M561.305,-310.475C544.232,-302.851 522.819,-294.031 503,-288 330.115,-235.386 216.038,-327.053 111,-180 94.5943,-157.032 116.086,-125.88 132.801,-107.178"/>
</g>
<!-- ActiveRecord::Base&#45;&gt;ItemProducto -->
<g id="edge6" class="edge"><title>ActiveRecord::Base&#45;&gt;ItemProducto</title>
<path fill="none" stroke="black" d="M646.708,-313.317C707.204,-295.419 802.401,-256.081 836,-180 846.879,-155.367 830.686,-125.769 817.643,-107.677"/>
</g>
<!-- ActiveRecord::Base&#45;&gt;InformacionEmpresa -->
<g id="edge8" class="edge"><title>ActiveRecord::Base&#45;&gt;InformacionEmpresa</title>
<path fill="none" stroke="black" d="M558.228,-310.773C541.5,-303.726 521.28,-295.315 503,-288 461.465,-271.379 450.387,-268.986 409,-252 349.193,-227.453 280.458,-196.795 240.269,-178.618"/>
</g>
<!-- ActiveRecord::Base&#45;&gt;Video -->
<g id="edge10" class="edge"><title>ActiveRecord::Base&#45;&gt;Video</title>
<path fill="none" stroke="black" d="M589.383,-308.934C582.77,-286.37 569.135,-245.973 549,-216 539.038,-201.17 524.42,-187.139 512.905,-177.244"/>
</g>
<!-- ActiveRecord::Base&#45;&gt;Empresa -->
<g id="edge16" class="edge"><title>ActiveRecord::Base&#45;&gt;Empresa</title>
<path fill="none" stroke="black" d="M576.392,-309.309C558.746,-292.582 531.79,-267.03 514.534,-250.673"/>
</g>
<!-- ActiveRecord::Base&#45;&gt;Company -->
<g id="edge17" class="edge"><title>ActiveRecord::Base&#45;&gt;Company</title>
<path fill="none" stroke="black" d="M649.327,-313.77C712.032,-299.712 817.202,-275.537 907,-252 914.734,-249.973 923,-247.674 930.823,-245.438"/>
</g>
<!-- ActiveRecord::Base&#45;&gt;VideosProducto -->
<g id="edge18" class="edge"><title>ActiveRecord::Base&#45;&gt;VideosProducto</title>
<path fill="none" stroke="black" d="M609.324,-308.975C631.761,-283.083 673.24,-231.368 695,-180 716.009,-130.405 723.439,-66.2855 725.889,-36.1201"/>
</g>
<!-- ActiveRecord::Base&#45;&gt;UbicacionGeo -->
<g id="edge19" class="edge"><title>ActiveRecord::Base&#45;&gt;UbicacionGeo</title>
<path fill="none" stroke="black" d="M597.259,-308.864C603.197,-277.64 615.717,-211.812 621.691,-180.397"/>
</g>
<!-- ActiveRecord::Base&#45;&gt;GaleriaImagene -->
<g id="edge20" class="edge"><title>ActiveRecord::Base&#45;&gt;GaleriaImagene</title>
<path fill="none" stroke="black" d="M659.542,-316.197C705.797,-306.475 766.951,-287.646 810,-252 877.347,-196.234 885.543,-79.8576 886.157,-36.1134"/>
</g>
<!-- ActiveRecord::Base&#45;&gt;Producto -->
<g id="edge22" class="edge"><title>ActiveRecord::Base&#45;&gt;Producto</title>
<path fill="none" stroke="black" d="M632.819,-311.051C661.766,-298.5 700.978,-278.384 729,-252 751.329,-230.976 768.469,-199.217 777.613,-179.867"/>
</g>
</g>
</svg>
