<?xml version="1.0" encoding="UTF-8" standalone="no"?>
<!DOCTYPE svg PUBLIC "-//W3C//DTD SVG 1.1//EN"
 "http://www.w3.org/Graphics/SVG/1.1/DTD/svg11.dtd">
<!-- Generated by graphviz version 2.36.0 (20140111.2315)
 -->
<!-- Title: models_diagram Pages: 1 -->
<svg width="1222pt" height="1078pt"
 viewBox="0.00 0.00 1222.00 1078.00" xmlns="http://www.w3.org/2000/svg" xmlns:xlink="http://www.w3.org/1999/xlink">
<g id="graph0" class="graph" transform="scale(1 1) rotate(0) translate(4 1074)">
<title>models_diagram</title>
<polygon fill="white" stroke="none" points="-4,4 -4,-1074 1218,-1074 1218,4 -4,4"/>
<!-- _diagram_info -->
<g id="node1" class="node"><title>_diagram_info</title>
<text text-anchor="start" x="420" y="-1055.6" font-family="Times,serif" font-size="13.00">Models diagram</text>
<text text-anchor="start" x="420" y="-1041.6" font-family="Times,serif" font-size="13.00">Date: Mar 29 2015 &#45; 16:42</text>
<text text-anchor="start" x="420" y="-1027.6" font-family="Times,serif" font-size="13.00">Migration version: 20150326224716</text>
<text text-anchor="start" x="420" y="-1013.6" font-family="Times,serif" font-size="13.00">Generated by RailRoady 1.3.0</text>
<text text-anchor="start" x="420" y="-999.6" font-family="Times,serif" font-size="13.00">http://railroady.prestonlee.com</text>
</g>
<!-- Audio -->
<g id="node2" class="node"><title>Audio</title>
<path fill="none" stroke="black" d="M11.5,-654.5C11.5,-654.5 178.5,-654.5 178.5,-654.5 184.5,-654.5 190.5,-660.5 190.5,-666.5 190.5,-666.5 190.5,-943.5 190.5,-943.5 190.5,-949.5 184.5,-955.5 178.5,-955.5 178.5,-955.5 11.5,-955.5 11.5,-955.5 5.5,-955.5 -0.5,-949.5 -0.5,-943.5 -0.5,-943.5 -0.5,-666.5 -0.5,-666.5 -0.5,-660.5 5.5,-654.5 11.5,-654.5"/>
<text text-anchor="middle" x="95" y="-940.3" font-family="Times,serif" font-size="14.00">Audio</text>
<polyline fill="none" stroke="black" points="-0.5,-932.5 190.5,-932.5 "/>
<text text-anchor="start" x="7.5" y="-917.3" font-family="Times,serif" font-size="14.00">id :integer</text>
<text text-anchor="start" x="7.5" y="-902.3" font-family="Times,serif" font-size="14.00">image :string</text>
<text text-anchor="start" x="7.5" y="-887.3" font-family="Times,serif" font-size="14.00">document :string</text>
<text text-anchor="start" x="7.5" y="-872.3" font-family="Times,serif" font-size="14.00">audio :string</text>
<text text-anchor="start" x="7.5" y="-857.3" font-family="Times,serif" font-size="14.00">image_file_name :string</text>
<text text-anchor="start" x="7.5" y="-842.3" font-family="Times,serif" font-size="14.00">image_content_type :string</text>
<text text-anchor="start" x="7.5" y="-827.3" font-family="Times,serif" font-size="14.00">image_file_size :integer</text>
<text text-anchor="start" x="7.5" y="-812.3" font-family="Times,serif" font-size="14.00">image_updated_at :datetime</text>
<text text-anchor="start" x="7.5" y="-797.3" font-family="Times,serif" font-size="14.00">document_file_name :string</text>
<text text-anchor="start" x="7.5" y="-782.3" font-family="Times,serif" font-size="14.00">document_content_type :string</text>
<text text-anchor="start" x="7.5" y="-767.3" font-family="Times,serif" font-size="14.00">document_file_size :integer</text>
<text text-anchor="start" x="7.5" y="-752.3" font-family="Times,serif" font-size="14.00">document_updated_at :datetime</text>
<text text-anchor="start" x="7.5" y="-737.3" font-family="Times,serif" font-size="14.00">audio_file_name :string</text>
<text text-anchor="start" x="7.5" y="-722.3" font-family="Times,serif" font-size="14.00">audio_content_type :string</text>
<text text-anchor="start" x="7.5" y="-707.3" font-family="Times,serif" font-size="14.00">audio_file_size :integer</text>
<text text-anchor="start" x="7.5" y="-692.3" font-family="Times,serif" font-size="14.00">audio_updated_at :datetime</text>
<text text-anchor="start" x="7.5" y="-677.3" font-family="Times,serif" font-size="14.00">created_at :datetime</text>
<text text-anchor="start" x="7.5" y="-662.3" font-family="Times,serif" font-size="14.00">updated_at :datetime</text>
</g>
<!-- NoticiaEmpresa -->
<g id="node3" class="node"><title>NoticiaEmpresa</title>
<path fill="none" stroke="black" d="M409.5,-436.5C409.5,-436.5 556.5,-436.5 556.5,-436.5 562.5,-436.5 568.5,-442.5 568.5,-448.5 568.5,-448.5 568.5,-605.5 568.5,-605.5 568.5,-611.5 562.5,-617.5 556.5,-617.5 556.5,-617.5 409.5,-617.5 409.5,-617.5 403.5,-617.5 397.5,-611.5 397.5,-605.5 397.5,-605.5 397.5,-448.5 397.5,-448.5 397.5,-442.5 403.5,-436.5 409.5,-436.5"/>
<text text-anchor="middle" x="483" y="-602.3" font-family="Times,serif" font-size="14.00">NoticiaEmpresa</text>
<polyline fill="none" stroke="black" points="397.5,-594.5 568.5,-594.5 "/>
<text text-anchor="start" x="405.5" y="-579.3" font-family="Times,serif" font-size="14.00">id :integer</text>
<text text-anchor="start" x="405.5" y="-564.3" font-family="Times,serif" font-size="14.00">titulo :string</text>
<text text-anchor="start" x="405.5" y="-549.3" font-family="Times,serif" font-size="14.00">descripcion :text</text>
<text text-anchor="start" x="405.5" y="-534.3" font-family="Times,serif" font-size="14.00">empresa_id :integer</text>
<text text-anchor="start" x="405.5" y="-519.3" font-family="Times,serif" font-size="14.00">created_at :datetime</text>
<text text-anchor="start" x="405.5" y="-504.3" font-family="Times,serif" font-size="14.00">updated_at :datetime</text>
<text text-anchor="start" x="405.5" y="-489.3" font-family="Times,serif" font-size="14.00">image_file_name :string</text>
<text text-anchor="start" x="405.5" y="-474.3" font-family="Times,serif" font-size="14.00">image_content_type :string</text>
<text text-anchor="start" x="405.5" y="-459.3" font-family="Times,serif" font-size="14.00">image_file_size :integer</text>
<text text-anchor="start" x="405.5" y="-444.3" font-family="Times,serif" font-size="14.00">image_updated_at :datetime</text>
</g>
<!-- ItemDeInfo -->
<g id="node4" class="node"><title>ItemDeInfo</title>
<path fill="none" stroke="black" d="M179,-218.5C179,-218.5 353,-218.5 353,-218.5 359,-218.5 365,-224.5 365,-230.5 365,-230.5 365,-387.5 365,-387.5 365,-393.5 359,-399.5 353,-399.5 353,-399.5 179,-399.5 179,-399.5 173,-399.5 167,-393.5 167,-387.5 167,-387.5 167,-230.5 167,-230.5 167,-224.5 173,-218.5 179,-218.5"/>
<text text-anchor="middle" x="266" y="-384.3" font-family="Times,serif" font-size="14.00">ItemDeInfo</text>
<polyline fill="none" stroke="black" points="167,-376.5 365,-376.5 "/>
<text text-anchor="start" x="175" y="-361.3" font-family="Times,serif" font-size="14.00">id :integer</text>
<text text-anchor="start" x="175" y="-346.3" font-family="Times,serif" font-size="14.00">titulo :string</text>
<text text-anchor="start" x="175" y="-331.3" font-family="Times,serif" font-size="14.00">descripcion :string</text>
<text text-anchor="start" x="175" y="-316.3" font-family="Times,serif" font-size="14.00">informacion_empresa_id :integer</text>
<text text-anchor="start" x="175" y="-301.3" font-family="Times,serif" font-size="14.00">created_at :datetime</text>
<text text-anchor="start" x="175" y="-286.3" font-family="Times,serif" font-size="14.00">updated_at :datetime</text>
<text text-anchor="start" x="175" y="-271.3" font-family="Times,serif" font-size="14.00">image_file_name :string</text>
<text text-anchor="start" x="175" y="-256.3" font-family="Times,serif" font-size="14.00">image_content_type :string</text>
<text text-anchor="start" x="175" y="-241.3" font-family="Times,serif" font-size="14.00">image_file_size :integer</text>
<text text-anchor="start" x="175" y="-226.3" font-family="Times,serif" font-size="14.00">image_updated_at :datetime</text>
</g>
<!-- ItemProducto -->
<g id="node5" class="node"><title>ItemProducto</title>
<path fill="none" stroke="black" d="M953.5,-218.5C953.5,-218.5 1100.5,-218.5 1100.5,-218.5 1106.5,-218.5 1112.5,-224.5 1112.5,-230.5 1112.5,-230.5 1112.5,-387.5 1112.5,-387.5 1112.5,-393.5 1106.5,-399.5 1100.5,-399.5 1100.5,-399.5 953.5,-399.5 953.5,-399.5 947.5,-399.5 941.5,-393.5 941.5,-387.5 941.5,-387.5 941.5,-230.5 941.5,-230.5 941.5,-224.5 947.5,-218.5 953.5,-218.5"/>
<text text-anchor="middle" x="1027" y="-384.3" font-family="Times,serif" font-size="14.00">ItemProducto</text>
<polyline fill="none" stroke="black" points="941.5,-376.5 1112.5,-376.5 "/>
<text text-anchor="start" x="949.5" y="-361.3" font-family="Times,serif" font-size="14.00">id :integer</text>
<text text-anchor="start" x="949.5" y="-346.3" font-family="Times,serif" font-size="14.00">titulo :string</text>
<text text-anchor="start" x="949.5" y="-331.3" font-family="Times,serif" font-size="14.00">descripción :text</text>
<text text-anchor="start" x="949.5" y="-316.3" font-family="Times,serif" font-size="14.00">producto_id :integer</text>
<text text-anchor="start" x="949.5" y="-301.3" font-family="Times,serif" font-size="14.00">created_at :datetime</text>
<text text-anchor="start" x="949.5" y="-286.3" font-family="Times,serif" font-size="14.00">updated_at :datetime</text>
<text text-anchor="start" x="949.5" y="-271.3" font-family="Times,serif" font-size="14.00">image_file_name :string</text>
<text text-anchor="start" x="949.5" y="-256.3" font-family="Times,serif" font-size="14.00">image_content_type :string</text>
<text text-anchor="start" x="949.5" y="-241.3" font-family="Times,serif" font-size="14.00">image_file_size :integer</text>
<text text-anchor="start" x="949.5" y="-226.3" font-family="Times,serif" font-size="14.00">image_updated_at :datetime</text>
</g>
<!-- VideosProducto -->
<g id="node9" class="node"><title>VideosProducto</title>
<path fill="none" stroke="black" d="M868,-23C868,-23 1002,-23 1002,-23 1008,-23 1014,-29 1014,-35 1014,-35 1014,-147 1014,-147 1014,-153 1008,-159 1002,-159 1002,-159 868,-159 868,-159 862,-159 856,-153 856,-147 856,-147 856,-35 856,-35 856,-29 862,-23 868,-23"/>
<text text-anchor="middle" x="935" y="-143.8" font-family="Times,serif" font-size="14.00">VideosProducto</text>
<polyline fill="none" stroke="black" points="856,-136 1014,-136 "/>
<text text-anchor="start" x="864" y="-120.8" font-family="Times,serif" font-size="14.00">id :integer</text>
<text text-anchor="start" x="864" y="-105.8" font-family="Times,serif" font-size="14.00">titulo :string</text>
<text text-anchor="start" x="864" y="-90.8" font-family="Times,serif" font-size="14.00">descripcion :string</text>
<text text-anchor="start" x="864" y="-75.8" font-family="Times,serif" font-size="14.00">url :string</text>
<text text-anchor="start" x="864" y="-60.8" font-family="Times,serif" font-size="14.00">item_producto_id :integer</text>
<text text-anchor="start" x="864" y="-45.8" font-family="Times,serif" font-size="14.00">created_at :datetime</text>
<text text-anchor="start" x="864" y="-30.8" font-family="Times,serif" font-size="14.00">updated_at :datetime</text>
</g>
<!-- ItemProducto&#45;&gt;VideosProducto -->
<g id="edge5" class="edge"><title>ItemProducto&#45;&gt;VideosProducto</title>
<path fill="none" stroke="#524d94" d="M985.603,-210.806C979.55,-196.595 973.39,-182.133 967.547,-168.415"/>
<ellipse fill="none" stroke="#524d94" cx="987.215" cy="-214.593" rx="4.00002" ry="4.00002"/>
<polygon fill="#524d94" stroke="#524d94" points="967.477,-168.25 967.699,-157.287 965.518,-163.65 963.558,-159.05 963.558,-159.05 963.558,-159.05 965.518,-163.65 959.418,-160.814 967.477,-168.25 967.477,-168.25"/>
</g>
<!-- GaleriaImagene -->
<g id="node11" class="node"><title>GaleriaImagene</title>
<path fill="none" stroke="black" d="M1055.5,-0.5C1055.5,-0.5 1202.5,-0.5 1202.5,-0.5 1208.5,-0.5 1214.5,-6.5 1214.5,-12.5 1214.5,-12.5 1214.5,-169.5 1214.5,-169.5 1214.5,-175.5 1208.5,-181.5 1202.5,-181.5 1202.5,-181.5 1055.5,-181.5 1055.5,-181.5 1049.5,-181.5 1043.5,-175.5 1043.5,-169.5 1043.5,-169.5 1043.5,-12.5 1043.5,-12.5 1043.5,-6.5 1049.5,-0.5 1055.5,-0.5"/>
<text text-anchor="middle" x="1129" y="-166.3" font-family="Times,serif" font-size="14.00">GaleriaImagene</text>
<polyline fill="none" stroke="black" points="1043.5,-158.5 1214.5,-158.5 "/>
<text text-anchor="start" x="1051.5" y="-143.3" font-family="Times,serif" font-size="14.00">id :integer</text>
<text text-anchor="start" x="1051.5" y="-128.3" font-family="Times,serif" font-size="14.00">titulo :string</text>
<text text-anchor="start" x="1051.5" y="-113.3" font-family="Times,serif" font-size="14.00">descripcion :string</text>
<text text-anchor="start" x="1051.5" y="-98.3" font-family="Times,serif" font-size="14.00">item_producto_id :integer</text>
<text text-anchor="start" x="1051.5" y="-83.3" font-family="Times,serif" font-size="14.00">created_at :datetime</text>
<text text-anchor="start" x="1051.5" y="-68.3" font-family="Times,serif" font-size="14.00">updated_at :datetime</text>
<text text-anchor="start" x="1051.5" y="-53.3" font-family="Times,serif" font-size="14.00">image_file_name :string</text>
<text text-anchor="start" x="1051.5" y="-38.3" font-family="Times,serif" font-size="14.00">image_content_type :string</text>
<text text-anchor="start" x="1051.5" y="-23.3" font-family="Times,serif" font-size="14.00">image_file_size :integer</text>
<text text-anchor="start" x="1051.5" y="-8.3" font-family="Times,serif" font-size="14.00">image_updated_at :datetime</text>
</g>
<!-- ItemProducto&#45;&gt;GaleriaImagene -->
<g id="edge4" class="edge"><title>ItemProducto&#45;&gt;GaleriaImagene</title>
<path fill="none" stroke="#f1bc02" d="M1072.86,-210.894C1076,-204.234 1079.17,-197.519 1082.32,-190.85"/>
<ellipse fill="none" stroke="#f1bc02" cx="1071.08" cy="-214.656" rx="4.00002" ry="4.00002"/>
<polygon fill="#f1bc02" stroke="#f1bc02" points="1082.33,-190.838 1090.67,-183.717 1084.46,-186.317 1086.6,-181.795 1086.6,-181.795 1086.6,-181.795 1084.46,-186.317 1082.53,-179.874 1082.33,-190.838 1082.33,-190.838"/>
</g>
<!-- InformacionEmpresa -->
<g id="node6" class="node"><title>InformacionEmpresa</title>
<path fill="none" stroke="black" d="M259,-474C259,-474 367,-474 367,-474 373,-474 379,-480 379,-486 379,-486 379,-568 379,-568 379,-574 373,-580 367,-580 367,-580 259,-580 259,-580 253,-580 247,-574 247,-568 247,-568 247,-486 247,-486 247,-480 253,-474 259,-474"/>
<text text-anchor="middle" x="313" y="-564.8" font-family="Times,serif" font-size="14.00">InformacionEmpresa</text>
<polyline fill="none" stroke="black" points="247,-557 379,-557 "/>
<text text-anchor="start" x="255" y="-541.8" font-family="Times,serif" font-size="14.00">id :integer</text>
<text text-anchor="start" x="255" y="-526.8" font-family="Times,serif" font-size="14.00">itemTitulo :string</text>
<text text-anchor="start" x="255" y="-511.8" font-family="Times,serif" font-size="14.00">empresa_id :integer</text>
<text text-anchor="start" x="255" y="-496.8" font-family="Times,serif" font-size="14.00">created_at :datetime</text>
<text text-anchor="start" x="255" y="-481.8" font-family="Times,serif" font-size="14.00">updated_at :datetime</text>
</g>
<!-- InformacionEmpresa&#45;&gt;ItemDeInfo -->
<g id="edge7" class="edge"><title>InformacionEmpresa&#45;&gt;ItemDeInfo</title>
<path fill="none" stroke="#8db478" d="M299.936,-465.959C296.124,-448.442 291.853,-428.813 287.66,-409.545"/>
<ellipse fill="none" stroke="#8db478" cx="300.832" cy="-470.079" rx="4.00001" ry="4.00001"/>
<polygon fill="#8db478" stroke="#8db478" points="287.604,-409.287 289.875,-398.558 286.541,-404.401 285.478,-399.515 285.478,-399.515 285.478,-399.515 286.541,-404.401 281.081,-400.472 287.604,-409.287 287.604,-409.287"/>
</g>
<!-- Video -->
<g id="node7" class="node"><title>Video</title>
<path fill="none" stroke="black" d="M598.5,-459C598.5,-459 705.5,-459 705.5,-459 711.5,-459 717.5,-465 717.5,-471 717.5,-471 717.5,-583 717.5,-583 717.5,-589 711.5,-595 705.5,-595 705.5,-595 598.5,-595 598.5,-595 592.5,-595 586.5,-589 586.5,-583 586.5,-583 586.5,-471 586.5,-471 586.5,-465 592.5,-459 598.5,-459"/>
<text text-anchor="middle" x="652" y="-579.8" font-family="Times,serif" font-size="14.00">Video</text>
<polyline fill="none" stroke="black" points="586.5,-572 717.5,-572 "/>
<text text-anchor="start" x="594.5" y="-556.8" font-family="Times,serif" font-size="14.00">id :integer</text>
<text text-anchor="start" x="594.5" y="-541.8" font-family="Times,serif" font-size="14.00">titulo :string</text>
<text text-anchor="start" x="594.5" y="-526.8" font-family="Times,serif" font-size="14.00">url :string</text>
<text text-anchor="start" x="594.5" y="-511.8" font-family="Times,serif" font-size="14.00">descripcion :text</text>
<text text-anchor="start" x="594.5" y="-496.8" font-family="Times,serif" font-size="14.00">empresa_id :integer</text>
<text text-anchor="start" x="594.5" y="-481.8" font-family="Times,serif" font-size="14.00">created_at :datetime</text>
<text text-anchor="start" x="594.5" y="-466.8" font-family="Times,serif" font-size="14.00">updated_at :datetime</text>
</g>
<!-- Video&#45;&gt;Video -->
<g id="edge9" class="edge"><title>Video&#45;&gt;Video</title>
<path fill="none" stroke="#434f44" d="M724.378,-559.387C730.902,-552.628 735,-541.832 735,-527 735,-513.076 731.388,-502.709 725.548,-495.9"/>
<ellipse fill="none" stroke="#434f44" cx="720.929" cy="-562.028" rx="4.00002" ry="4.00002"/>
<polygon fill="#434f44" stroke="#434f44" points="725.502,-495.861 720.597,-486.053 721.627,-492.701 717.753,-489.54 717.753,-489.54 717.753,-489.54 721.627,-492.701 714.908,-493.027 725.502,-495.861 725.502,-495.861"/>
</g>
<!-- Empresa -->
<g id="node8" class="node"><title>Empresa</title>
<path fill="none" stroke="black" d="M671.5,-722C671.5,-722 778.5,-722 778.5,-722 784.5,-722 790.5,-728 790.5,-734 790.5,-734 790.5,-876 790.5,-876 790.5,-882 784.5,-888 778.5,-888 778.5,-888 671.5,-888 671.5,-888 665.5,-888 659.5,-882 659.5,-876 659.5,-876 659.5,-734 659.5,-734 659.5,-728 665.5,-722 671.5,-722"/>
<text text-anchor="middle" x="725" y="-872.8" font-family="Times,serif" font-size="14.00">Empresa</text>
<polyline fill="none" stroke="black" points="659.5,-865 790.5,-865 "/>
<text text-anchor="start" x="667.5" y="-849.8" font-family="Times,serif" font-size="14.00">id :integer</text>
<text text-anchor="start" x="667.5" y="-834.8" font-family="Times,serif" font-size="14.00">nombre :string</text>
<text text-anchor="start" x="667.5" y="-819.8" font-family="Times,serif" font-size="14.00">actividad :string</text>
<text text-anchor="start" x="667.5" y="-804.8" font-family="Times,serif" font-size="14.00">provincia :string</text>
<text text-anchor="start" x="667.5" y="-789.8" font-family="Times,serif" font-size="14.00">localidad :string</text>
<text text-anchor="start" x="667.5" y="-774.8" font-family="Times,serif" font-size="14.00">dirección :string</text>
<text text-anchor="start" x="667.5" y="-759.8" font-family="Times,serif" font-size="14.00">telefono :string</text>
<text text-anchor="start" x="667.5" y="-744.8" font-family="Times,serif" font-size="14.00">created_at :datetime</text>
<text text-anchor="start" x="667.5" y="-729.8" font-family="Times,serif" font-size="14.00">updated_at :datetime</text>
</g>
<!-- Empresa&#45;&gt;NoticiaEmpresa -->
<g id="edge12" class="edge"><title>Empresa&#45;&gt;NoticiaEmpresa</title>
<path fill="none" stroke="#a7e5d9" d="M653.832,-722.833C626.981,-692.21 596.162,-657.061 568.159,-625.124"/>
<ellipse fill="none" stroke="#a7e5d9" cx="656.555" cy="-725.939" rx="4.00002" ry="4.00002"/>
<polygon fill="#a7e5d9" stroke="#a7e5d9" points="568.075,-625.027 564.866,-614.542 564.778,-621.268 561.482,-617.508 561.482,-617.508 561.482,-617.508 564.778,-621.268 558.098,-620.475 568.075,-625.027 568.075,-625.027"/>
</g>
<!-- Empresa&#45;&gt;InformacionEmpresa -->
<g id="edge11" class="edge"><title>Empresa&#45;&gt;InformacionEmpresa</title>
<path fill="none" stroke="#ccb02c" d="M651.75,-773.237C580.034,-740.988 469.914,-685.633 388,-618 377.272,-609.143 366.923,-598.594 357.516,-587.889"/>
<ellipse fill="none" stroke="#ccb02c" cx="655.781" cy="-775.038" rx="4.00002" ry="4.00002"/>
<polygon fill="#ccb02c" stroke="#ccb02c" points="357.343,-587.687 354.26,-577.163 354.092,-583.888 350.841,-580.089 350.841,-580.089 350.841,-580.089 354.092,-583.888 347.422,-583.015 357.343,-587.687 357.343,-587.687"/>
</g>
<!-- Empresa&#45;&gt;Video -->
<g id="edge15" class="edge"><title>Empresa&#45;&gt;Video</title>
<path fill="none" stroke="#e1b81e" d="M701.143,-713.801C691.86,-678.704 681.333,-638.901 672.409,-605.163"/>
<ellipse fill="none" stroke="#e1b81e" cx="702.272" cy="-718.071" rx="4.00001" ry="4.00001"/>
<polygon fill="#e1b81e" stroke="#e1b81e" points="672.373,-605.028 674.167,-594.209 671.095,-600.194 669.816,-595.36 669.816,-595.36 669.816,-595.36 671.095,-600.194 665.466,-596.511 672.373,-605.028 672.373,-605.028"/>
</g>
<!-- UbicacionGeo -->
<g id="node10" class="node"><title>UbicacionGeo</title>
<path fill="none" stroke="black" d="M765.5,-444C765.5,-444 872.5,-444 872.5,-444 878.5,-444 884.5,-450 884.5,-456 884.5,-456 884.5,-598 884.5,-598 884.5,-604 878.5,-610 872.5,-610 872.5,-610 765.5,-610 765.5,-610 759.5,-610 753.5,-604 753.5,-598 753.5,-598 753.5,-456 753.5,-456 753.5,-450 759.5,-444 765.5,-444"/>
<text text-anchor="middle" x="819" y="-594.8" font-family="Times,serif" font-size="14.00">UbicacionGeo</text>
<polyline fill="none" stroke="black" points="753.5,-587 884.5,-587 "/>
<text text-anchor="start" x="761.5" y="-571.8" font-family="Times,serif" font-size="14.00">id :integer</text>
<text text-anchor="start" x="761.5" y="-556.8" font-family="Times,serif" font-size="14.00">latitude :float</text>
<text text-anchor="start" x="761.5" y="-541.8" font-family="Times,serif" font-size="14.00">longitude :float</text>
<text text-anchor="start" x="761.5" y="-526.8" font-family="Times,serif" font-size="14.00">address :string</text>
<text text-anchor="start" x="761.5" y="-511.8" font-family="Times,serif" font-size="14.00">description :text</text>
<text text-anchor="start" x="761.5" y="-496.8" font-family="Times,serif" font-size="14.00">title :string</text>
<text text-anchor="start" x="761.5" y="-481.8" font-family="Times,serif" font-size="14.00">empresa_id :integer</text>
<text text-anchor="start" x="761.5" y="-466.8" font-family="Times,serif" font-size="14.00">created_at :datetime</text>
<text text-anchor="start" x="761.5" y="-451.8" font-family="Times,serif" font-size="14.00">updated_at :datetime</text>
</g>
<!-- Empresa&#45;&gt;UbicacionGeo -->
<g id="edge14" class="edge"><title>Empresa&#45;&gt;UbicacionGeo</title>
<path fill="none" stroke="#da7ac4" d="M755.655,-713.992C765.921,-683.849 777.375,-650.217 787.691,-619.93"/>
<ellipse fill="none" stroke="#da7ac4" cx="754.238" cy="-718.152" rx="4.00001" ry="4.00001"/>
<polygon fill="#da7ac4" stroke="#da7ac4" points="787.773,-619.688 795.257,-611.673 789.385,-614.955 790.997,-610.222 790.997,-610.222 790.997,-610.222 789.385,-614.955 786.737,-608.771 787.773,-619.688 787.773,-619.688"/>
</g>
<!-- Producto -->
<g id="node12" class="node"><title>Producto</title>
<path fill="none" stroke="black" d="M953.5,-474C953.5,-474 1060.5,-474 1060.5,-474 1066.5,-474 1072.5,-480 1072.5,-486 1072.5,-486 1072.5,-568 1072.5,-568 1072.5,-574 1066.5,-580 1060.5,-580 1060.5,-580 953.5,-580 953.5,-580 947.5,-580 941.5,-574 941.5,-568 941.5,-568 941.5,-486 941.5,-486 941.5,-480 947.5,-474 953.5,-474"/>
<text text-anchor="middle" x="1007" y="-564.8" font-family="Times,serif" font-size="14.00">Producto</text>
<polyline fill="none" stroke="black" points="941.5,-557 1072.5,-557 "/>
<text text-anchor="start" x="949.5" y="-541.8" font-family="Times,serif" font-size="14.00">id :integer</text>
<text text-anchor="start" x="949.5" y="-526.8" font-family="Times,serif" font-size="14.00">titulo :string</text>
<text text-anchor="start" x="949.5" y="-511.8" font-family="Times,serif" font-size="14.00">empresa_id :integer</text>
<text text-anchor="start" x="949.5" y="-496.8" font-family="Times,serif" font-size="14.00">created_at :datetime</text>
<text text-anchor="start" x="949.5" y="-481.8" font-family="Times,serif" font-size="14.00">updated_at :datetime</text>
</g>
<!-- Empresa&#45;&gt;Producto -->
<g id="edge13" class="edge"><title>Empresa&#45;&gt;Producto</title>
<path fill="none" stroke="#9539bc" d="M796.636,-733.888C842.863,-688.645 902.336,-630.437 946.246,-587.462"/>
<ellipse fill="none" stroke="#9539bc" cx="793.619" cy="-736.841" rx="4.00002" ry="4.00002"/>
<polygon fill="#9539bc" stroke="#9539bc" points="946.283,-587.426 956.577,-583.647 949.856,-583.928 953.429,-580.431 953.429,-580.431 953.429,-580.431 949.856,-583.928 950.282,-577.215 946.283,-587.426 946.283,-587.426"/>
</g>
<!-- Producto&#45;&gt;ItemProducto -->
<g id="edge20" class="edge"><title>Producto&#45;&gt;ItemProducto</title>
<path fill="none" stroke="#6e48d9" d="M1012.56,-465.959C1014.18,-448.442 1016,-428.813 1017.78,-409.545"/>
<ellipse fill="none" stroke="#6e48d9" cx="1012.18" cy="-470.005" rx="4" ry="4"/>
<polygon fill="#6e48d9" stroke="#6e48d9" points="1017.79,-409.473 1023.19,-399.93 1018.25,-404.494 1018.71,-399.515 1018.71,-399.515 1018.71,-399.515 1018.25,-404.494 1014.23,-399.1 1017.79,-409.473 1017.79,-409.473"/>
</g>
<!-- ActiveRecord::Base -->
<g id="node13" class="node"><title>ActiveRecord::Base</title>
<ellipse fill="none" stroke="black" cx="725" cy="-1031" rx="81.3646" ry="18"/>
<text text-anchor="middle" x="725" y="-1027.3" font-family="Times,serif" font-size="14.00">ActiveRecord::Base</text>
</g>
<!-- ActiveRecord::Base&#45;&gt;Audio -->
<g id="edge1" class="edge"><title>ActiveRecord::Base&#45;&gt;Audio</title>
<path fill="none" stroke="black" d="M694.232,-1014.32C676.973,-1006.26 654.789,-997.08 634,-992 541.066,-969.292 288.453,-1002.78 205,-956 200.07,-953.237 195.3,-950.15 190.692,-946.798"/>
</g>
<!-- ActiveRecord::Base&#45;&gt;NoticiaEmpresa -->
<g id="edge2" class="edge"><title>ActiveRecord::Base&#45;&gt;NoticiaEmpresa</title>
<path fill="none" stroke="black" d="M689.992,-1014.61C665.417,-1002.12 633.569,-982.288 614,-956 538.83,-855.019 506.338,-710.449 492.611,-617.895"/>
</g>
<!-- ActiveRecord::Base&#45;&gt;ItemDeInfo -->
<g id="edge3" class="edge"><title>ActiveRecord::Base&#45;&gt;ItemDeInfo</title>
<path fill="none" stroke="black" d="M693.325,-1014.23C676.167,-1006.34 654.364,-997.363 634,-992 569.069,-974.901 385.062,-999.601 334,-956 175.127,-820.341 210.578,-542.742 242.307,-399.665"/>
</g>
<!-- ActiveRecord::Base&#45;&gt;ItemProducto -->
<g id="edge6" class="edge"><title>ActiveRecord::Base&#45;&gt;ItemProducto</title>
<path fill="none" stroke="black" d="M804.522,-1027.22C861.99,-1021 937.558,-1003.47 985,-956 1151.14,-789.773 1128.25,-666.217 1081,-436 1078.54,-423.994 1074.88,-411.719 1070.61,-399.769"/>
</g>
<!-- ActiveRecord::Base&#45;&gt;InformacionEmpresa -->
<g id="edge8" class="edge"><title>ActiveRecord::Base&#45;&gt;InformacionEmpresa</title>
<path fill="none" stroke="black" d="M691.295,-1014.6C674.325,-1007.18 653.305,-998.513 634,-992 573.94,-971.738 544.03,-997.364 496,-956 380.267,-856.33 335.675,-670.543 320.261,-580.123"/>
</g>
<!-- ActiveRecord::Base&#45;&gt;Video -->
<g id="edge10" class="edge"><title>ActiveRecord::Base&#45;&gt;Video</title>
<path fill="none" stroke="black" d="M699.96,-1013.58C682.311,-1000.39 660.091,-980.133 650,-956 600.193,-836.887 618.916,-682.303 636.089,-595.266"/>
</g>
<!-- ActiveRecord::Base&#45;&gt;Empresa -->
<g id="edge16" class="edge"><title>ActiveRecord::Base&#45;&gt;Empresa</title>
<path fill="none" stroke="black" d="M725,-1012.8C725,-986.262 725,-933.655 725,-888.144"/>
</g>
<!-- ActiveRecord::Base&#45;&gt;VideosProducto -->
<g id="edge17" class="edge"><title>ActiveRecord::Base&#45;&gt;VideosProducto</title>
<path fill="none" stroke="black" d="M761.155,-1014.76C785.654,-1002.51 816.623,-982.897 834,-956 916.751,-827.912 873.799,-769.28 893,-618 913.849,-453.733 926.195,-259.211 931.651,-159.047"/>
</g>
<!-- ActiveRecord::Base&#45;&gt;UbicacionGeo -->
<g id="edge18" class="edge"><title>ActiveRecord::Base&#45;&gt;UbicacionGeo</title>
<path fill="none" stroke="black" d="M749.027,-1013.64C766.334,-1000.35 788.426,-979.931 799,-956 848.454,-844.073 842.61,-699.265 832.115,-610.05"/>
</g>
<!-- ActiveRecord::Base&#45;&gt;GaleriaImagene -->
<g id="edge19" class="edge"><title>ActiveRecord::Base&#45;&gt;GaleriaImagene</title>
<path fill="none" stroke="black" d="M799.192,-1023.62C887.906,-1014.38 1028.85,-994.062 1064,-956 1261.97,-741.598 1197.22,-355.971 1154.24,-181.759"/>
</g>
<!-- ActiveRecord::Base&#45;&gt;Producto -->
<g id="edge21" class="edge"><title>ActiveRecord::Base&#45;&gt;Producto</title>
<path fill="none" stroke="black" d="M795.406,-1021.93C839.636,-1013.1 894.312,-994.634 927,-956 1018.55,-847.797 1018.91,-668.497 1012.55,-580.291"/>
</g>
</g>
</svg>
