<?xml version="1.0" encoding="UTF-8" standalone="no"?>
<!DOCTYPE svg PUBLIC "-//W3C//DTD SVG 1.1//EN"
 "http://www.w3.org/Graphics/SVG/1.1/DTD/svg11.dtd">
<!-- Generated by graphviz version 2.36.0 (20140111.2315)
 -->
<!-- Title: models_diagram Pages: 1 -->
<svg width="1081pt" height="374pt"
 viewBox="0.00 0.00 1081.00 374.00" xmlns="http://www.w3.org/2000/svg" xmlns:xlink="http://www.w3.org/1999/xlink">
<g id="graph0" class="graph" transform="scale(1 1) rotate(0) translate(4 370)">
<title>models_diagram</title>
<polygon fill="white" stroke="none" points="-4,4 -4,-370 1077,-370 1077,4 -4,4"/>
<!-- _diagram_info -->
<g id="node1" class="node"><title>_diagram_info</title>
<text text-anchor="start" x="90" y="-351.6" font-family="Times,serif" font-size="13.00">Models diagram</text>
<text text-anchor="start" x="90" y="-337.6" font-family="Times,serif" font-size="13.00">Date: Jul 05 2015 &#45; 18:48</text>
<text text-anchor="start" x="90" y="-323.6" font-family="Times,serif" font-size="13.00">Migration version: 20150602225226</text>
<text text-anchor="start" x="90" y="-309.6" font-family="Times,serif" font-size="13.00">Generated by RailRoady 1.3.0</text>
<text text-anchor="start" x="90" y="-295.6" font-family="Times,serif" font-size="13.00">http://railroady.prestonlee.com</text>
</g>
<!-- Audio -->
<g id="node2" class="node"><title>Audio</title>
<ellipse fill="none" stroke="black" cx="346" cy="-327" rx="32.2457" ry="18"/>
<text text-anchor="middle" x="346" y="-323.3" font-family="Times,serif" font-size="14.00">Audio</text>
</g>
<!-- NoticiaEmpresa -->
<g id="node3" class="node"><title>NoticiaEmpresa</title>
<ellipse fill="none" stroke="black" cx="67" cy="-234" rx="67.3907" ry="18"/>
<text text-anchor="middle" x="67" y="-230.3" font-family="Times,serif" font-size="14.00">NoticiaEmpresa</text>
</g>
<!-- GaleriaProp -->
<g id="node4" class="node"><title>GaleriaProp</title>
<ellipse fill="none" stroke="black" cx="859" cy="-90" rx="52.9443" ry="18"/>
<text text-anchor="middle" x="859" y="-86.3" font-family="Times,serif" font-size="14.00">GaleriaProp</text>
</g>
<!-- ItemDeInfo -->
<g id="node5" class="node"><title>ItemDeInfo</title>
<ellipse fill="none" stroke="black" cx="225" cy="-162" rx="51.4931" ry="18"/>
<text text-anchor="middle" x="225" y="-158.3" font-family="Times,serif" font-size="14.00">ItemDeInfo</text>
</g>
<!-- Opinion -->
<g id="node6" class="node"><title>Opinion</title>
<ellipse fill="none" stroke="black" cx="153" cy="-90" rx="39.4691" ry="18"/>
<text text-anchor="middle" x="153" y="-86.3" font-family="Times,serif" font-size="14.00">Opinion</text>
</g>
<!-- ItemProducto -->
<g id="node7" class="node"><title>ItemProducto</title>
<ellipse fill="none" stroke="black" cx="354" cy="-162" rx="59.2173" ry="18"/>
<text text-anchor="middle" x="354" y="-158.3" font-family="Times,serif" font-size="14.00">ItemProducto</text>
</g>
<!-- ItemProducto&#45;&gt;Opinion -->
<g id="edge3" class="edge"><title>ItemProducto&#45;&gt;Opinion</title>
<path fill="none" stroke="#86b140" d="M308.352,-145.28C277.922,-134.777 237.044,-120.626 201,-108 198.301,-107.055 195.519,-106.077 192.716,-105.09"/>
<ellipse fill="none" stroke="#86b140" cx="312.468" cy="-146.699" rx="4.00001" ry="4.00001"/>
<polygon fill="#86b140" stroke="#86b140" points="192.633,-105.061 184.701,-97.4892 187.918,-103.397 183.203,-101.733 183.203,-101.733 183.203,-101.733 187.918,-103.397 181.705,-105.976 192.633,-105.061 192.633,-105.061"/>
</g>
<!-- VideosProducto -->
<g id="node14" class="node"><title>VideosProducto</title>
<ellipse fill="none" stroke="black" cx="278" cy="-90" rx="67.3907" ry="18"/>
<text text-anchor="middle" x="278" y="-86.3" font-family="Times,serif" font-size="14.00">VideosProducto</text>
</g>
<!-- ItemProducto&#45;&gt;VideosProducto -->
<g id="edge2" class="edge"><title>ItemProducto&#45;&gt;VideosProducto</title>
<path fill="none" stroke="#0f62cd" d="M330.398,-139.261C321.759,-131.304 311.955,-122.274 303.183,-114.194"/>
<ellipse fill="none" stroke="#0f62cd" cx="333.431" cy="-142.055" rx="4.00002" ry="4.00002"/>
<polygon fill="#0f62cd" stroke="#0f62cd" points="303.15,-114.165 298.843,-104.08 299.472,-110.777 295.795,-107.39 295.795,-107.39 295.795,-107.39 299.472,-110.777 292.746,-110.7 303.15,-114.165 303.15,-114.165"/>
</g>
<!-- GaleriaImagene -->
<g id="node17" class="node"><title>GaleriaImagene</title>
<ellipse fill="none" stroke="black" cx="431" cy="-90" rx="67.3907" ry="18"/>
<text text-anchor="middle" x="431" y="-86.3" font-family="Times,serif" font-size="14.00">GaleriaImagene</text>
</g>
<!-- ItemProducto&#45;&gt;GaleriaImagene -->
<g id="edge1" class="edge"><title>ItemProducto&#45;&gt;GaleriaImagene</title>
<path fill="none" stroke="#29d6c7" d="M377.912,-139.261C386.665,-131.304 396.599,-122.274 405.486,-114.194"/>
<ellipse fill="none" stroke="#29d6c7" cx="374.819" cy="-142.074" rx="4.00002" ry="4.00002"/>
<polygon fill="#29d6c7" stroke="#29d6c7" points="405.572,-114.117 415.998,-110.72 409.272,-110.753 412.971,-107.39 412.971,-107.39 412.971,-107.39 409.272,-110.753 409.944,-104.06 405.572,-114.117 405.572,-114.117"/>
</g>
<!-- Detalle -->
<g id="node21" class="node"><title>Detalle</title>
<ellipse fill="none" stroke="black" cx="553" cy="-90" rx="36.096" ry="18"/>
<text text-anchor="middle" x="553" y="-86.3" font-family="Times,serif" font-size="14.00">Detalle</text>
</g>
<!-- ItemProducto&#45;&gt;Detalle -->
<g id="edge4" class="edge"><title>ItemProducto&#45;&gt;Detalle</title>
<path fill="none" stroke="#2034e4" d="M399.705,-145.442C430.159,-135.008 471.043,-120.871 507,-108 509.705,-107.032 512.497,-106.023 515.305,-105.002"/>
<ellipse fill="none" stroke="#2034e4" cx="395.586" cy="-146.851" rx="4.00001" ry="4.00001"/>
<polygon fill="#2034e4" stroke="#2034e4" points="515.424,-104.959 526.361,-105.746 520.119,-103.24 524.814,-101.521 524.814,-101.521 524.814,-101.521 520.119,-103.24 523.267,-97.2948 515.424,-104.959 515.424,-104.959"/>
</g>
<!-- PrepararMate -->
<g id="node8" class="node"><title>PrepararMate</title>
<ellipse fill="none" stroke="black" cx="490" cy="-162" rx="59.2173" ry="18"/>
<text text-anchor="middle" x="490" y="-158.3" font-family="Times,serif" font-size="14.00">PrepararMate</text>
</g>
<!-- InformacionEmpresa -->
<g id="node9" class="node"><title>InformacionEmpresa</title>
<ellipse fill="none" stroke="black" cx="238" cy="-234" rx="85.19" ry="18"/>
<text text-anchor="middle" x="238" y="-230.3" font-family="Times,serif" font-size="14.00">InformacionEmpresa</text>
</g>
<!-- InformacionEmpresa&#45;&gt;ItemDeInfo -->
<g id="edge5" class="edge"><title>InformacionEmpresa&#45;&gt;ItemDeInfo</title>
<path fill="none" stroke="#01278c" d="M233.29,-207.64C232.228,-201.92 231.097,-195.828 230.022,-190.042"/>
<ellipse fill="none" stroke="#01278c" cx="234.056" cy="-211.764" rx="4.00001" ry="4.00001"/>
<polygon fill="#01278c" stroke="#01278c" points="230.003,-189.936 232.601,-179.283 229.09,-185.02 228.177,-180.104 228.177,-180.104 228.177,-180.104 229.09,-185.02 223.752,-180.926 230.003,-189.936 230.003,-189.936"/>
</g>
<!-- Video -->
<g id="node10" class="node"><title>Video</title>
<ellipse fill="none" stroke="black" cx="374" cy="-234" rx="32.2457" ry="18"/>
<text text-anchor="middle" x="374" y="-230.3" font-family="Times,serif" font-size="14.00">Video</text>
</g>
<!-- Video&#45;&gt;Video -->
<g id="edge6" class="edge"><title>Video&#45;&gt;Video</title>
<path fill="none" stroke="#432dbd" d="M405.372,-247.5C415.732,-247.465 424,-242.965 424,-234 424,-225.562 416.676,-221.08 407.177,-220.553"/>
<ellipse fill="none" stroke="#432dbd" cx="401.124" cy="-247.064" rx="4" ry="4"/>
<polygon fill="#432dbd" stroke="#432dbd" points="407.114,-220.558 396.791,-216.858 402.129,-220.951 397.145,-221.344 397.145,-221.344 397.145,-221.344 402.129,-220.951 397.498,-225.83 407.114,-220.558 407.114,-220.558"/>
</g>
<!-- GaleriaPrepMate -->
<g id="node11" class="node"><title>GaleriaPrepMate</title>
<ellipse fill="none" stroke="black" cx="639" cy="-162" rx="71.2405" ry="18"/>
<text text-anchor="middle" x="639" y="-158.3" font-family="Times,serif" font-size="14.00">GaleriaPrepMate</text>
</g>
<!-- Empresa -->
<g id="node12" class="node"><title>Empresa</title>
<ellipse fill="none" stroke="black" cx="439" cy="-327" rx="42.3701" ry="18"/>
<text text-anchor="middle" x="439" y="-323.3" font-family="Times,serif" font-size="14.00">Empresa</text>
</g>
<!-- Empresa&#45;&gt;NoticiaEmpresa -->
<g id="edge8" class="edge"><title>Empresa&#45;&gt;NoticiaEmpresa</title>
<path fill="none" stroke="#d6906c" d="M415.574,-305.158C407.105,-298.675 397.124,-292.147 387,-288 285.562,-246.448 250.783,-271.978 143,-252 137.516,-250.984 131.826,-249.853 126.139,-248.672"/>
<ellipse fill="none" stroke="#d6906c" cx="418.889" cy="-307.806" rx="4.00002" ry="4.00002"/>
<polygon fill="#d6906c" stroke="#d6906c" points="125.732,-248.586 116.887,-242.104 120.841,-247.546 115.951,-246.505 115.951,-246.505 115.951,-246.505 120.841,-247.546 115.015,-250.907 125.732,-248.586 125.732,-248.586"/>
</g>
<!-- Empresa&#45;&gt;InformacionEmpresa -->
<g id="edge7" class="edge"><title>Empresa&#45;&gt;InformacionEmpresa</title>
<path fill="none" stroke="#f85dfc" d="M413.981,-305.461C405.72,-299.308 396.267,-292.9 387,-288 358.775,-273.075 325.447,-260.773 297.476,-251.791"/>
<ellipse fill="none" stroke="#f85dfc" cx="417.432" cy="-308.101" rx="4.00002" ry="4.00002"/>
<polygon fill="#f85dfc" stroke="#f85dfc" points="297.362,-251.755 289.174,-244.461 292.593,-250.254 287.823,-248.753 287.823,-248.753 287.823,-248.753 292.593,-250.254 286.472,-253.046 297.362,-251.755 297.362,-251.755"/>
</g>
<!-- Empresa&#45;&gt;Video -->
<g id="edge11" class="edge"><title>Empresa&#45;&gt;Video</title>
<path fill="none" stroke="#c40fd3" d="M422.358,-302.701C412.859,-289.402 400.966,-272.752 391.351,-259.292"/>
<ellipse fill="none" stroke="#c40fd3" cx="424.753" cy="-306.054" rx="4.00002" ry="4.00002"/>
<polygon fill="#c40fd3" stroke="#c40fd3" points="391.223,-259.112 389.072,-248.359 388.317,-255.043 385.41,-250.975 385.41,-250.975 385.41,-250.975 388.317,-255.043 381.749,-253.59 391.223,-259.112 391.223,-259.112"/>
</g>
<!-- UbicacionGeo -->
<g id="node16" class="node"><title>UbicacionGeo</title>
<ellipse fill="none" stroke="black" cx="504" cy="-234" rx="61.6163" ry="18"/>
<text text-anchor="middle" x="504" y="-230.3" font-family="Times,serif" font-size="14.00">UbicacionGeo</text>
</g>
<!-- Empresa&#45;&gt;UbicacionGeo -->
<g id="edge10" class="edge"><title>Empresa&#45;&gt;UbicacionGeo</title>
<path fill="none" stroke="#829fd0" d="M455.855,-302.403C465.129,-289.419 476.636,-273.31 486.074,-260.096"/>
<ellipse fill="none" stroke="#829fd0" cx="453.247" cy="-306.054" rx="4.00002" ry="4.00002"/>
<polygon fill="#829fd0" stroke="#829fd0" points="486.121,-260.031 495.595,-254.509 489.027,-255.962 491.933,-251.893 491.933,-251.893 491.933,-251.893 489.027,-255.962 488.272,-249.278 486.121,-260.031 486.121,-260.031"/>
</g>
<!-- Producto -->
<g id="node18" class="node"><title>Producto</title>
<ellipse fill="none" stroke="black" cx="626" cy="-234" rx="42.3701" ry="18"/>
<text text-anchor="middle" x="626" y="-230.3" font-family="Times,serif" font-size="14.00">Producto</text>
</g>
<!-- Empresa&#45;&gt;Producto -->
<g id="edge9" class="edge"><title>Empresa&#45;&gt;Producto</title>
<path fill="none" stroke="#e3b403" d="M464.116,-305.641C472.382,-299.497 481.814,-293.049 491,-288 507.719,-278.81 551.95,-261.928 585.262,-249.681"/>
<ellipse fill="none" stroke="#e3b403" cx="460.662" cy="-308.271" rx="4.00002" ry="4.00002"/>
<polygon fill="#e3b403" stroke="#e3b403" points="585.38,-249.638 596.318,-250.428 590.076,-247.92 594.771,-246.202 594.771,-246.202 594.771,-246.202 590.076,-247.92 593.225,-241.976 585.38,-249.638 585.38,-249.638"/>
</g>
<!-- ConsultaCliente -->
<g id="node20" class="node"><title>ConsultaCliente</title>
<ellipse fill="none" stroke="black" cx="754" cy="-234" rx="67.3907" ry="18"/>
<text text-anchor="middle" x="754" y="-230.3" font-family="Times,serif" font-size="14.00">ConsultaCliente</text>
</g>
<!-- Empresa&#45;&gt;ConsultaCliente -->
<g id="edge12" class="edge"><title>Empresa&#45;&gt;ConsultaCliente</title>
<path fill="none" stroke="#d1a523" d="M462.535,-305.416C471.013,-298.953 480.971,-292.372 491,-288 568.184,-254.349 594.549,-269.078 677,-252 682.668,-250.826 688.564,-249.576 694.458,-248.307"/>
<ellipse fill="none" stroke="#d1a523" cx="459.216" cy="-308.045" rx="4.00002" ry="4.00002"/>
<polygon fill="#d1a523" stroke="#d1a523" points="694.563,-248.285 705.29,-250.562 699.45,-247.225 704.336,-246.164 704.336,-246.164 704.336,-246.164 699.45,-247.225 703.382,-241.767 694.563,-248.285 694.563,-248.285"/>
</g>
<!-- Company -->
<g id="node13" class="node"><title>Company</title>
<ellipse fill="none" stroke="black" cx="545" cy="-327" rx="45.244" ry="18"/>
<text text-anchor="middle" x="545" y="-323.3" font-family="Times,serif" font-size="14.00">Company</text>
</g>
<!-- GaleriaProceso -->
<g id="node15" class="node"><title>GaleriaProceso</title>
<ellipse fill="none" stroke="black" cx="793" cy="-162" rx="64.0172" ry="18"/>
<text text-anchor="middle" x="793" y="-158.3" font-family="Times,serif" font-size="14.00">GaleriaProceso</text>
</g>
<!-- Producto&#45;&gt;ItemProducto -->
<g id="edge13" class="edge"><title>Producto&#45;&gt;ItemProducto</title>
<path fill="none" stroke="#9c4fe3" d="M586.322,-219.652C582.175,-218.37 578.011,-217.129 574,-216 507.17,-197.197 489.455,-196.419 422,-180 417.367,-178.872 412.558,-177.691 407.737,-176.5"/>
<ellipse fill="none" stroke="#9c4fe3" cx="590.414" cy="-220.944" rx="4.00001" ry="4.00001"/>
<polygon fill="#9c4fe3" stroke="#9c4fe3" points="407.581,-176.461 398.959,-169.686 402.728,-175.258 397.876,-174.054 397.876,-174.054 397.876,-174.054 402.728,-175.258 396.792,-178.421 407.581,-176.461 407.581,-176.461"/>
</g>
<!-- Producto&#45;&gt;PrepararMate -->
<g id="edge16" class="edge"><title>Producto&#45;&gt;PrepararMate</title>
<path fill="none" stroke="#be49d4" d="M592.745,-215.883C573.202,-205.824 548.423,-193.071 528.096,-182.608"/>
<ellipse fill="none" stroke="#be49d4" cx="596.543" cy="-217.838" rx="4.00002" ry="4.00002"/>
<polygon fill="#be49d4" stroke="#be49d4" points="527.996,-182.557 521.164,-173.979 523.551,-180.269 519.105,-177.981 519.105,-177.981 519.105,-177.981 523.551,-180.269 517.046,-181.982 527.996,-182.557 527.996,-182.557"/>
</g>
<!-- Producto&#45;&gt;GaleriaPrepMate -->
<g id="edge17" class="edge"><title>Producto&#45;&gt;GaleriaPrepMate</title>
<path fill="none" stroke="#276c85" d="M630.71,-207.64C631.772,-201.92 632.903,-195.828 633.978,-190.042"/>
<ellipse fill="none" stroke="#276c85" cx="629.944" cy="-211.764" rx="4.00001" ry="4.00001"/>
<polygon fill="#276c85" stroke="#276c85" points="633.997,-189.936 640.248,-180.926 634.91,-185.02 635.823,-180.104 635.823,-180.104 635.823,-180.104 634.91,-185.02 631.399,-179.283 633.997,-189.936 633.997,-189.936"/>
</g>
<!-- Producto&#45;&gt;GaleriaProceso -->
<g id="edge15" class="edge"><title>Producto&#45;&gt;GaleriaProceso</title>
<path fill="none" stroke="#d0dadc" d="M662.49,-217.705C688.112,-206.965 722.495,-192.553 749.538,-181.218"/>
<ellipse fill="none" stroke="#d0dadc" cx="658.778" cy="-219.261" rx="4.00002" ry="4.00002"/>
<polygon fill="#d0dadc" stroke="#d0dadc" points="749.548,-181.213 760.51,-181.498 754.159,-179.281 758.771,-177.348 758.771,-177.348 758.771,-177.348 754.159,-179.281 757.031,-173.198 749.548,-181.213 749.548,-181.213"/>
</g>
<!-- PropGeneral -->
<g id="node23" class="node"><title>PropGeneral</title>
<ellipse fill="none" stroke="black" cx="931" cy="-162" rx="55.3682" ry="18"/>
<text text-anchor="middle" x="931" y="-158.3" font-family="Times,serif" font-size="14.00">PropGeneral</text>
</g>
<!-- Producto&#45;&gt;PropGeneral -->
<g id="edge14" class="edge"><title>Producto&#45;&gt;PropGeneral</title>
<path fill="none" stroke="#ae6887" d="M665.027,-219.403C669.049,-218.178 673.093,-217.019 677,-216 759.745,-194.432 782.589,-198.829 866,-180 870.661,-178.948 875.496,-177.797 880.328,-176.606"/>
<ellipse fill="none" stroke="#ae6887" cx="661.177" cy="-220.615" rx="4.00001" ry="4.00001"/>
<polygon fill="#ae6887" stroke="#ae6887" points="880.49,-176.565 891.286,-178.488 885.339,-175.344 890.188,-174.124 890.188,-174.124 890.188,-174.124 885.339,-175.344 889.089,-169.76 880.49,-176.565 880.49,-176.565"/>
</g>
<!-- PropEspecifica -->
<g id="node19" class="node"><title>PropEspecifica</title>
<ellipse fill="none" stroke="black" cx="553" cy="-18" rx="63.5411" ry="18"/>
<text text-anchor="middle" x="553" y="-14.3" font-family="Times,serif" font-size="14.00">PropEspecifica</text>
</g>
<!-- ConsultaCliente&#45;&gt;ConsultaCliente -->
<g id="edge18" class="edge"><title>ConsultaCliente&#45;&gt;ConsultaCliente</title>
<path fill="none" stroke="#6685ab" d="M808.059,-247.496C825.329,-247.34 839,-242.841 839,-234 839,-225.477 826.296,-220.99 809.911,-220.538"/>
<ellipse fill="none" stroke="#6685ab" cx="803.905" cy="-247.377" rx="4" ry="4"/>
<polygon fill="#6685ab" stroke="#6685ab" points="809.905,-220.538 799.817,-216.239 804.906,-220.638 799.907,-220.738 799.907,-220.738 799.907,-220.738 804.906,-220.638 799.997,-225.237 809.905,-220.538 809.905,-220.538"/>
</g>
<!-- Detalle&#45;&gt;PropEspecifica -->
<g id="edge19" class="edge"><title>Detalle&#45;&gt;PropEspecifica</title>
<path fill="none" stroke="#84ea35" d="M553,-63.6398C553,-58.0629 553,-52.1319 553,-46.4761"/>
<ellipse fill="none" stroke="#84ea35" cx="553" cy="-67.6966" rx="4" ry="4"/>
<polygon fill="#84ea35" stroke="#84ea35" points="553,-46.1043 557.5,-36.1043 553,-41.1043 553,-36.1043 553,-36.1043 553,-36.1043 553,-41.1043 548.5,-36.1044 553,-46.1043 553,-46.1043"/>
</g>
<!-- PropGeneralItem -->
<g id="node22" class="node"><title>PropGeneralItem</title>
<ellipse fill="none" stroke="black" cx="1002" cy="-90" rx="71.2405" ry="18"/>
<text text-anchor="middle" x="1002" y="-86.3" font-family="Times,serif" font-size="14.00">PropGeneralItem</text>
</g>
<!-- PropGeneral&#45;&gt;GaleriaProp -->
<g id="edge21" class="edge"><title>PropGeneral&#45;&gt;GaleriaProp</title>
<path fill="none" stroke="#d50a4f" d="M908.301,-138.932C900.187,-131.043 891.024,-122.134 882.818,-114.156"/>
<ellipse fill="none" stroke="#d50a4f" cx="911.433" cy="-141.976" rx="4.00002" ry="4.00002"/>
<polygon fill="#d50a4f" stroke="#d50a4f" points="882.779,-114.118 878.746,-103.921 879.194,-110.633 875.609,-107.147 875.609,-107.147 875.609,-107.147 879.194,-110.633 872.472,-110.374 882.779,-114.118 882.779,-114.118"/>
</g>
<!-- PropGeneral&#45;&gt;PropGeneralItem -->
<g id="edge20" class="edge"><title>PropGeneral&#45;&gt;PropGeneralItem</title>
<path fill="none" stroke="#298636" d="M953.296,-139.019C961.014,-131.408 969.705,-122.841 977.585,-115.071"/>
<ellipse fill="none" stroke="#298636" cx="950.316" cy="-141.956" rx="4.00002" ry="4.00002"/>
<polygon fill="#298636" stroke="#298636" points="978.008,-114.654 988.288,-110.838 981.568,-111.144 985.129,-107.633 985.129,-107.633 985.129,-107.633 981.568,-111.144 981.97,-104.429 978.008,-114.654 978.008,-114.654"/>
</g>
</g>
</svg>
